<?xml version="1.0" encoding="UTF-8" standalone="no"?>
<!DOCTYPE svg PUBLIC "-//W3C//DTD SVG 1.1//EN" "http://www.w3.org/Graphics/SVG/1.1/DTD/svg11.dtd">
<svg xmlns="http://www.w3.org/2000/svg" xmlns:xlink="http://www.w3.org/1999/xlink" version="1.1" width="216.801pt" height="217.029pt" viewBox="0 0 216.801 217.029">
<path transform="matrix(1,0,0,-1,.506,216.83)" stroke-width="1" stroke-linecap="butt" stroke-miterlimit="10" stroke-linejoin="miter" fill="none" stroke="#808080" d="M 9.25313 99.65877 L 9.25313 103.9103 M 194.31594 99.65877 L 194.31594 103.9103 "/>
<path transform="matrix(1,0,0,-1,.506,216.83)" stroke-width="1" stroke-linecap="butt" stroke-miterlimit="10" stroke-linejoin="miter" fill="none" stroke="#808080" d="M 99.65877 9.25313 L 103.9103 9.25313 M 99.65877 194.31594 L 103.9103 194.31594 "/>
<path transform="matrix(1,0,0,-1,.506,216.83)" stroke-width="1" stroke-linecap="butt" stroke-miterlimit="10" stroke-linejoin="miter" fill="none" stroke="#000000" d="M 0 101.78453 L 201.57656 101.78453 "/>
<path transform="matrix(1,0,0,-1,202.08255,115.04547)" d="M 1.99252 0 L -1.19551 1.59401 L 0 0 L -1.19551 -1.59401 "/>
<path transform="matrix(1,0,0,-1,.506,216.83)" stroke-width="1" stroke-linecap="butt" stroke-miterlimit="10" stroke-linejoin="miter" fill="none" stroke="#000000" d="M 101.78453 0 L 101.78453 201.57656 "/>
<path transform="matrix(0,-1,-1,-0,102.29053,15.2534489)" d="M 1.99252 0 L -1.19551 1.59401 L 0 0 L -1.19551 -1.59401 "/>
<symbol id="font_0_1">
<path d="M .57600006 0 C .59300008 0 .611 0 .611 .019999996 C .611 .040000008 .59300008 .040000008 .57600006 .040000008 L .035000005 .040000008 C .018 .040000008 0 .040000008 0 .019999996 C 0 0 .018 0 .035000005 0 L .57600006 0 Z "/>
</symbol>
<use xlink:href="#font_0_1" transform="matrix(9.9626,0,0,-9.9626,4.220896,124.89461)"/>
<symbol id="font_1_1">
<path d="M .205 .64000007 C .205 .66400006 .205 .666 .18200003 .666 C .120000008 .60200008 .032000007 .60200008 0 .60200008 L 0 .57100006 C .020000004 .57100006 .07900001 .57100006 .13100001 .597 L .13100001 .079 C .13100001 .043 .128 .031000002 .038000004 .031000002 L .0060000049 .031000002 L .0060000049 0 C .04100001 .003 .128 .003 .168 .003 C .20800002 .003 .29500003 .003 .33000005 0 L .33000005 .031000002 L .29800005 .031000002 C .20800002 .031000002 .205 .042000005 .205 .079 L .205 .64000007 Z "/>
</symbol>
<use xlink:href="#font_1_1" transform="matrix(9.9626,0,0,-9.9626,12.029671,127.186008)"/>
<use xlink:href="#font_1_1" transform="matrix(9.9626,0,0,-9.9626,193.21567,127.186008)"/>
<use xlink:href="#font_0_1" transform="matrix(9.9626,0,0,-9.9626,84.66689,208.08061)"/>
<use xlink:href="#font_1_1" transform="matrix(9.9626,0,0,-9.9626,92.47567,210.37201)"/>
<use xlink:href="#font_1_1" transform="matrix(9.9626,0,0,-9.9626,92.47567,25.727005)"/>
<path transform="matrix(1,0,0,-1,.506,216.83)" stroke-width="1" stroke-linecap="butt" stroke-miterlimit="10" stroke-linejoin="miter" fill="none" stroke="#000000" d="M 101.78453 101.78453 L 101.78453 194.31594 "/>
<path transform="matrix(1,0,0,-1,.506,216.83)" stroke-width="1.59404" stroke-linecap="butt" stroke-miterlimit="10" stroke-linejoin="miter" fill="none" stroke="#800000" d="M 101.78453 101.78453 L 101.78453 194.31594 "/>
<path transform="matrix(1,0,0,-1,.506,216.83)" stroke-width="1" stroke-linecap="butt" stroke-miterlimit="10" stroke-linejoin="miter" fill="none" stroke="#000000" d="M 115.66425 101.78453 C 115.66425 101.78453 115.65051 102.44093 115.63397 102.69226 C 115.61743 102.94357 115.57787 103.34625 115.54501 103.59596 C 115.51216 103.84566 115.44624 104.24496 115.39719 104.49205 C 115.34813 104.73915 115.25656 105.13353 115.19136 105.37686 C 115.12616 105.62021 115.00829 106.0074 114.92723 106.2459 C 114.84619 106.48438 114.70355 106.86305 114.60716 107.09573 C 114.51076 107.32841 114.34373 107.69699 114.23242 107.92296 C 114.1211 108.14893 113.93071 108.50624 113.80476 108.7244 C 113.67883 108.94254 113.46469 109.28589 113.32468 109.49527 C 113.18466 109.70465 112.94893 110.03365 112.79558 110.23352 C 112.64221 110.4334 112.38531 110.7464 112.21928 110.93584 C 112.05324 111.12527 111.77693 111.4208 111.59888 111.59888 C 111.4208 111.77693 111.12527 112.05324 110.93584 112.21928 C 110.7464 112.38531 110.4334 112.64221 110.23352 112.79558 C 110.03365 112.94893 109.70465 113.18466 109.49527 113.32468 C 109.28589 113.46469 108.94254 113.67883 108.7244 113.80476 C 108.50624 113.93071 108.14893 114.1211 107.92296 114.23242 C 107.69699 114.34373 107.32841 114.51076 107.09573 114.60716 C 106.86305 114.70355 106.48438 114.84619 106.2459 114.92723 C 106.0074 115.00829 105.62021 115.12616 105.37686 115.19136 C 105.13353 115.25656 104.73915 115.34813 104.49205 115.39719 C 104.24496 115.44624 103.84566 115.51216 103.59596 115.54501 C 103.34625 115.57787 102.94357 115.61743 102.69226 115.63397 C 102.44093 115.65051 101.78453 115.66425 101.78453 115.66425 "/>
<symbol id="font_2_1">
<path d="M .41300003 .511 C .41300003 .577 .395 .716 .293 .716 C .15400002 .716 0 .43400003 0 .20500002 C 0 .111 .029 0 .12 0 C .261 0 .41300003 .28700004 .41300003 .511 M .106 .374 C .123 .43800003 .143 .518 .183 .589 C .21000001 .638 .24700001 .694 .29200004 .694 C .34100003 .694 .34700004 .63 .34700004 .573 C .34700004 .524 .33900003 .47300003 .31500004 .374 L .106 .374 M .30600003 .34200005 C .29500003 .29600004 .27400003 .21100001 .23600003 .13900002 C .201 .071 .16300002 .022000002 .12 .022000002 C .087000008 .022000002 .066 .051000004 .066 .14400001 C .066 .18600002 .072000008 .24400002 .098 .34200005 L .30600003 .34200005 Z "/>
</symbol>
<use xlink:href="#font_2_1" transform="matrix(9.9626,0,0,-9.9626,116.47942,108.43659)"/>
<symbol id="font_2_5">
<path d="M .09 .094000007 C .14400001 .15200001 .17300001 .17700002 .209 .20800002 C .209 .20900002 .271 .26200003 .307 .298 C .402 .39100004 .424 .43900005 .424 .44300003 C .424 .45300005 .41500003 .45300005 .41300003 .45300005 C .40600003 .45300005 .403 .45100004 .398 .44200004 C .368 .39400003 .347 .37800003 .323 .37800003 C .299 .37800003 .287 .39300005 .272 .41000004 C .253 .43300004 .23600002 .45300005 .20300001 .45300005 C .128 .45300005 .082 .36 .082 .33900003 C .082 .33400003 .08500001 .328 .09400001 .328 C .103000018 .328 .105000007 .33300004 .10700001 .33900003 C .12600002 .38500003 .18400002 .38600005 .19200002 .38600005 C .21300002 .38600005 .23200001 .37900005 .255 .37100003 C .29500003 .35600005 .306 .35600005 .33200003 .35600005 C .296 .31300003 .21200003 .24100001 .19300002 .22500003 L .103000018 .14100002 C .035 .074 0 .017 0 .010000001 C 0 0 .010000002 0 .012000002 0 C .02 0 .022000004 .0020000004 .028 .013000001 C .051000004 .048 .081 .075 .113000009 .075 C .136 .075 .14600002 .06600001 .17100002 .037 C .18800001 .016 .20600002 0 .23500003 0 C .334 0 .39200003 .127 .39200003 .15400002 C .39200003 .15900001 .388 .16400002 .38 .16400002 C .37100003 .16400002 .36900003 .158 .366 .15100001 C .343 .086 .279 .067 .246 .067 C .22600003 .067 .20800002 .07300001 .187 .080000009 C .15300001 .093 .13800001 .097 .11700001 .097 C .11500001 .097 .09900001 .097 .09 .094000007 Z "/>
</symbol>
<use xlink:href="#font_2_5" transform="matrix(9.9626,0,0,-9.9626,108.48238,24.942597)"/>
<symbol id="font_1_2">
<path d="M .63100007 .19400002 C .646 .19400002 .665 .19400002 .665 .214 C .665 .23400001 .646 .23400001 .632 .23400001 L .033 .23400001 C .019000002 .23400001 0 .23400001 0 .214 C 0 .19400002 .019000002 .19400002 .034 .19400002 L .63100007 .19400002 M .632 0 C .646 0 .665 0 .665 .02000001 C .665 .040000008 .646 .040000008 .63100007 .040000008 L .034 .040000008 C .019000002 .040000008 0 .040000008 0 .02000001 C 0 0 .019000002 0 .033 0 L .632 0 Z "/>
</symbol>
<use xlink:href="#font_1_2" transform="matrix(9.9626,0,0,-9.9626,116.4499,23.507983)"/>
<symbol id="font_2_2">
<path d="M .41000004 .83000007 C .41000004 .8490001 .39600004 .86600008 .37200005 .86600008 C .34900005 .86600008 .31900005 .84300008 .31900005 .8130001 C .31900005 .793 .33300004 .77700009 .35600005 .77700009 C .38300003 .77700009 .41000004 .8030001 .41000004 .83000007 M .209 .15500002 C .19 .07900001 .142 .022 .08600001 .022 C .08 .022 .065 .022 .047000003 .031000004 C .07700001 .038000004 .09200001 .06400001 .09200001 .08400001 C .09200001 .10000001 .081 .11900001 .054 .11900001 C .029000001 .11900001 0 .098000008 0 .062000008 C 0 .022 .04 0 .088 0 C .158 0 .25100003 .053000004 .27600003 .15200001 L .36800004 .518 C .37300004 .538 .37300004 .55200007 .37300004 .55500009 C .37300004 .612 .33100004 .6470001 .28100003 .6470001 C .179 .6470001 .12200001 .50200006 .12200001 .49300004 C .12200001 .48300005 .132 .48300005 .134 .48300005 C .143 .48300005 .14400001 .48400004 .15200001 .503 C .177 .564 .223 .625 .27800004 .625 C .29200004 .625 .31000004 .62100008 .31000004 .579 C .31000004 .556 .307 .545 .30300004 .528 L .209 .15500002 Z "/>
</symbol>
<use xlink:href="#font_2_2" transform="matrix(9.9626,0,0,-9.9626,126.27947,26.875342)"/>
<symbol id="font_2_3">
<path d="M .305 .31300003 C .311 .33900003 .334 .43100003 .404 .43100003 C .409 .43100003 .433 .43100003 .454 .418 C .426 .41300003 .40600003 .388 .40600003 .36400003 C .40600003 .34800003 .417 .32900004 .444 .32900004 C .46600003 .32900004 .498 .34700004 .498 .38700003 C .498 .43900005 .439 .45300005 .405 .45300005 C .347 .45300005 .312 .40000005 .3 .37700004 C .275 .44300003 .221 .45300005 .19200002 .45300005 C .08800001 .45300005 .031000002 .32400004 .031000002 .29900003 C .031000002 .28900004 .041 .28900004 .043000007 .28900004 C .051000008 .28900004 .054000006 .291 .056 .3 C .09 .40600003 .156 .43100003 .19000001 .43100003 C .209 .43100003 .244 .42200003 .244 .36400003 C .244 .33300004 .22700002 .26600004 .19000001 .126 C .17400001 .064 .13900002 .022000002 .095000009 .022000002 C .08900001 .022000002 .06600001 .022000002 .045 .035 C .07000001 .040000004 .09200001 .061 .09200001 .089 C .09200001 .116000007 .07000001 .124000009 .055000009 .124000009 C .025 .124000009 0 .098000008 0 .06600001 C 0 .020000002 .050000006 0 .094000007 0 C .16000001 0 .19600001 .07000001 .19900002 .076000008 C .21100001 .039 .24700003 0 .307 0 C .41 0 .467 .12900001 .467 .15400002 C .467 .16400002 .458 .16400002 .455 .16400002 C .446 .16400002 .444 .16000001 .442 .15300001 C .409 .046 .341 .022000002 .30900003 .022000002 C .27 .022000002 .254 .054 .254 .08800001 C .254 .11000001 .26 .13200002 .271 .17600002 L .305 .31300003 Z "/>
</symbol>
<use xlink:href="#font_2_3" transform="matrix(9.9626,0,0,-9.9626,208.0009,117.27758)"/>
<symbol id="font_2_4">
<path d="M .45700003 .586 C .461 .6 .461 .602 .461 .609 C .461 .62700006 .447 .63600006 .432 .63600006 C .42200003 .63600006 .40600003 .63 .397 .615 C .395 .61 .387 .579 .38300003 .561 C .37600003 .535 .36900003 .508 .363 .48100005 L .318 .301 C .314 .286 .271 .21600002 .20500002 .21600002 C .15400002 .21600002 .143 .26000003 .143 .29700003 C .143 .34300003 .16000001 .40500004 .194 .49300004 C .21000001 .53400006 .21400002 .545 .21400002 .56500008 C .21400002 .61 .18200001 .6470001 .13200002 .6470001 C .037 .6470001 0 .50200006 0 .49300004 C 0 .48300005 .01 .48300005 .012 .48300005 C .022000002 .48300005 .023 .485 .028000003 .50100007 C .055000009 .595 .095000009 .625 .12900001 .625 C .13700001 .625 .15400002 .625 .15400002 .59300008 C .15400002 .568 .14400001 .54200008 .13700001 .523 C .097 .41700004 .079 .36 .079 .31300003 C .079 .224 .142 .194 .201 .194 C .24000003 .194 .274 .21100001 .30200003 .23900002 C .289 .187 .277 .13800001 .237 .08500001 C .21100001 .051 .17300001 .022 .127 .022 C .113000009 .022 .068 .025000006 .051000008 .06400001 C .067 .06400001 .080000009 .06400001 .094000007 .076000008 C .104 .08500001 .11400001 .098000008 .11400001 .117000009 C .11400001 .148 .087000008 .15200001 .07700001 .15200001 C .054000006 .15200001 .021 .136 .021 .087000008 C .021 .037 .065000008 0 .127 0 C .23 0 .333 .091000009 .361 .20400001 L .45700003 .586 Z "/>
</symbol>
<use xlink:href="#font_2_4" transform="matrix(9.9626,0,0,-9.9626,99.98191,9.725332)"/>
</svg>
