<?xml version="1.0" encoding="UTF-8" standalone="no"?>
<!DOCTYPE svg PUBLIC "-//W3C//DTD SVG 1.1//EN" "http://www.w3.org/Graphics/SVG/1.1/DTD/svg11.dtd">
<svg xmlns="http://www.w3.org/2000/svg" xmlns:xlink="http://www.w3.org/1999/xlink" version="1.1" width="161.395pt" height="161.395pt" viewBox="0 0 161.395 161.395">
<clipPath id="cp0">
<path transform="matrix(1,0,0,-1,13.45,147.945)" d="M -13.45044 -13.45044 L 147.94692 -13.45044 L 147.94692 147.94692 L -13.45044 147.94692 Z "/>
</clipPath>
<g clip-path="url(#cp0)">
<path transform="matrix(1,0,0,-1,13.45,147.945)" stroke-width="1.19553" stroke-linecap="butt" stroke-miterlimit="10" stroke-linejoin="miter" fill="none" stroke="#000080" d="M 134.49646 44.83215 L 47.0866 132.24214 "/>
<path transform="matrix(-.70715,-.7071,-.7071,.70715,60.53661,15.702866)" d="M 3.18808 0 L -1.91284 2.55046 L 0 0 L -1.91284 -2.55046 " fill="#000080"/>
<path transform="matrix(1,0,0,-1,13.45,147.945)" stroke-width="1.19553" stroke-linecap="butt" stroke-miterlimit="10" stroke-linejoin="miter" fill="none" stroke="#800000" d="M 134.49646 44.83215 L 91.91862 2.2543 "/>
<path transform="matrix(-.7071,.7071,.7071,.7071,105.368618,145.6907)" d="M 3.18808 0 L -1.91284 2.55046 L 0 0 L -1.91284 -2.55046 " fill="#800000"/>
<path transform="matrix(1,0,0,-1,13.45,147.945)" stroke-width="1.19553" stroke-linecap="butt" stroke-miterlimit="10" stroke-linejoin="miter" fill="none" stroke="#800080" d="M 134.49646 44.83215 L 3.02748 88.6552 "/>
<path transform="matrix(-.94963,-.31653,-.31653,.94963,16.47748,59.289827)" d="M 3.18808 0 L -1.91284 2.55046 L 0 0 L -1.91284 -2.55046 " fill="#800080"/>
<path transform="matrix(1,0,0,-1,13.45,147.945)" stroke-width="1.19553" stroke-linecap="butt" stroke-miterlimit="10" stroke-linejoin="miter" fill="none" stroke="#008000" d="M 134.49646 44.83215 L 3.18808 44.83215 "/>
<path transform="matrix(-1,0,0,1,16.63808,103.112857)" d="M 3.18808 0 L -1.91284 2.55046 L 0 0 L -1.91284 -2.55046 " fill="#008000"/>
<path transform="matrix(1,0,0,-1,13.45,147.945)" stroke-width="1.19553" stroke-linecap="butt" stroke-miterlimit="10" stroke-linejoin="miter" fill="none" stroke="#cc6600" d="M 134.49646 44.83215 L 3.02748 1.0091 "/>
<path transform="matrix(-.94963,.31653,.31653,.94963,16.47748,146.9359)" d="M 3.18808 0 L -1.91284 2.55046 L 0 0 L -1.91284 -2.55046 " fill="#cc6600"/>
<symbol id="font_1_1">
<path d="M 1.098 0 C 1.12 0 1.1350001 0 1.1350001 .029 C 1.1350001 .039000006 1.1350001 .049999983 1.1220001 .05700001 C 1.067 .083000008 .95300009 .137 .86800006 .28800003 C .85600009 .307 .855 .308 .82900008 .308 C .81200006 .308 .79300007 .308 .79300007 .28599999 C .79300007 .272 .8510001 .15599999 .9560001 .072999987 L .051000008 .072999987 C .036 .072999987 0 .072999987 0 .037 C 0 0 .035000005 0 .051000008 0 L 1.098 0 Z "/>
</symbol>
<use xlink:href="#font_1_1" transform="matrix(6.9738,0,0,-6.9738,107.18393,46.848627)" fill="#000080"/>
<symbol id="font_2_4">
<path d="M .48000006 .38000003 C .48600004 .39400003 .49000005 .40100003 .554 .40100003 L .554 .44800005 C .529 .44600005 .5 .44500003 .47500006 .44500003 C .45000003 .44500003 .40500004 .44700004 .38400004 .44800005 L .38400004 .40100003 C .40300004 .40100003 .43200005 .39800004 .43200005 .39000003 C .43200005 .38900004 .43100003 .38700003 .42700003 .37800003 L .31100003 .128 L .18400002 .40100003 L .238 .40100003 L .238 .44800005 C .20500002 .44600005 .115 .44500003 .114 .44500003 C .086 .44500003 .041 .44700004 0 .44800005 L 0 .40100003 L .064 .40100003 L .23900002 .025000003 C .25100003 0 .26400004 0 .277 0 C .29400004 0 .30400003 .003 .314 .024000003 L .48000006 .38000003 Z "/>
</symbol>
<use xlink:href="#font_2_4" transform="matrix(9.9626,0,0,-9.9626,108.303028,54.80187)" fill="#000080"/>
<use xlink:href="#font_1_1" transform="matrix(6.9738,0,0,-6.9738,129.59993,122.75762)" fill="#800000"/>
<symbol id="font_2_5">
<path d="M .7120001 .38000003 C .71700009 .39300005 .7210001 .40100003 .7800001 .40100003 L .7800001 .44800005 C .7570001 .44600005 .72700008 .44500003 .70300009 .44500003 C .67600008 .44500003 .62900009 .44700004 .60700008 .44800005 L .60700008 .40100003 C .61600008 .40100003 .6650001 .40000005 .6650001 .38900004 C .6650001 .38600005 .66200008 .38000003 .6610001 .37700004 L .55600008 .12100001 L .442 .40100003 L .498 .40100003 L .498 .44800005 C .46600003 .44700004 .414 .44500003 .384 .44500003 C .342 .44500003 .3 .44700004 .284 .44800005 L .284 .40100003 L .34300003 .40100003 C .36400003 .351 .36400003 .34900005 .36400003 .34800003 C .36400003 .344 .361 .33800004 .36 .33500005 L .28100003 .143 L .176 .40100003 L .232 .40100003 L .232 .44800005 C .191 .44600005 .15 .44500003 .109000008 .44500003 C .07800001 .44500003 .034 .44700004 0 .44800005 L 0 .40100003 L .059000009 .40100003 L .21200001 .027000003 C .21900001 .01 .223 0 .248 0 C .273 0 .277 .01 .284 .027000003 L .39000003 .286 L .49600003 .027000003 C .503 .01 .507 0 .53200009 0 C .55700007 0 .56100007 .01 .5680001 .027000003 L .7120001 .38000003 Z "/>
</symbol>
<use xlink:href="#font_2_5" transform="matrix(9.9626,0,0,-9.9626,129.59506,130.70987)" fill="#800000"/>
<use xlink:href="#font_1_1" transform="matrix(6.9738,0,0,-6.9738,84.76793,69.264629)" fill="#800080"/>
<symbol id="font_2_1">
<path d="M .342 .083000008 C .342 .052000006 .342 .006 .446 .006 L .49400003 .006 C .514 .006 .526 .006 .526 .030000002 C .526 .053000004 .513 .053000004 .5 .053000004 C .439 .054 .439 .067 .439 .09 L .439 .30500005 C .439 .39400003 .368 .45900003 .21900001 .45900003 C .162 .45900003 .040000004 .45500005 .040000004 .36700005 C .040000004 .323 .075 .30400003 .102 .30400003 C .133 .30400003 .165 .32500003 .165 .36700005 C .165 .39700005 .146 .41400004 .143 .41600005 C .171 .42200003 .20300001 .42300005 .215 .42300005 C .29000003 .42300005 .32500003 .38100005 .32500003 .30500005 L .32500003 .27100004 C .254 .26800005 0 .25900004 0 .114 C 0 .018 .124 0 .193 0 C .273 0 .32000003 .041 .342 .083000008 M .32500003 .24000001 L .32500003 .14500001 C .32500003 .049000004 .23300001 .036000004 .208 .036000004 C .157 .036000004 .117 .071 .117 .115 C .117 .223 .275 .237 .32500003 .24000001 Z "/>
</symbol>
<use xlink:href="#font_2_1" transform="matrix(9.9626,0,0,-9.9626,86.26479,77.23779)" fill="#800080"/>
<use xlink:href="#font_1_1" transform="matrix(6.9738,0,0,-6.9738,76.73493,89.18961)" fill="#008000"/>
<symbol id="font_2_2">
<path d="M .17700002 .40700004 L .17700002 .7 L 0 .69200006 L 0 .64500007 C .062000008 .64500007 .069000009 .64500007 .069000009 .606 L .069000009 .006 L .11600001 .006 L .165 .062000004 C .17300001 .054 .222 0 .31100003 0 C .46 0 .563 .09 .563 .229 C .563 .36200003 .46900005 .45600004 .32400004 .45600004 C .25100003 .45600004 .201 .42700006 .17700002 .40700004 M .18300002 .105000007 L .18300002 .35600005 C .21000001 .39100004 .25800003 .42000006 .31300003 .42000006 C .43500004 .42000006 .43500004 .29900003 .43500004 .229 C .43500004 .18200001 .43500004 .127 .409 .088 C .38000003 .047000003 .33400003 .036000004 .30200003 .036000004 C .23200003 .036000004 .193 .09 .18300002 .105000007 Z "/>
</symbol>
<use xlink:href="#font_2_2" transform="matrix(9.9626,0,0,-9.9626,77.88361,99.65278)" fill="#008000"/>
<use xlink:href="#font_1_1" transform="matrix(6.9738,0,0,-6.9738,84.76793,131.41762)" fill="#cc6600"/>
<symbol id="font_2_3">
<path d="M .32200004 .41300003 C .30400003 .39700005 .302 .37600003 .302 .36700005 C .302 .323 .337 .30400003 .36400003 .30400003 C .39500005 .30400003 .42700006 .32500003 .42700006 .36700005 C .42700006 .45300005 .311 .45900003 .25300003 .45900003 C .074 .45900003 0 .34400005 0 .22800002 C 0 .095 .094 0 .24800001 0 C .41000004 0 .44 .116000007 .44 .123 C .44 .13700001 .426 .13700001 .416 .13700001 C .398 .13700001 .397 .135 .39200003 .122 C .366 .059000005 .31800003 .040000004 .26700003 .040000004 C .128 .040000004 .128 .187 .128 .23300001 C .128 .28900004 .128 .41900004 .25700004 .41900004 C .292 .41900004 .30900003 .41600005 .32200004 .41300003 Z "/>
</symbol>
<use xlink:href="#font_2_3" transform="matrix(9.9626,0,0,-9.9626,86.563579,139.39078)" fill="#cc6600"/>
</g>
</svg>
