<?xml version="1.0" encoding="UTF-8" standalone="no"?>
<!DOCTYPE svg PUBLIC "-//W3C//DTD SVG 1.1//EN" "http://www.w3.org/Graphics/SVG/1.1/DTD/svg11.dtd">
<svg xmlns="http://www.w3.org/2000/svg" xmlns:xlink="http://www.w3.org/1999/xlink" version="1.1" width="399.251pt" height="97.381pt" viewBox="0 0 399.251 97.381">
<path transform="matrix(1,0,0,-1,.199,97.182)" stroke-width="1" stroke-linecap="butt" stroke-miterlimit="10" stroke-linejoin="miter" fill="none" stroke="#808080" d="M 13.47961 40.89412 L 13.47961 45.14601 M 58.5073 40.89412 L 58.5073 45.14601 M 103.53499 40.89412 L 103.53499 45.14601 M 148.56267 40.89412 L 148.56267 45.14601 M 238.61803 40.89412 L 238.61803 45.14601 M 283.70307 40.89412 L 283.70307 45.14601 M 328.6734 40.89412 L 328.6734 45.14601 M 373.70109 40.89412 L 373.70109 45.14601 "/>
<path transform="matrix(1,0,0,-1,.199,97.182)" stroke-width="1" stroke-linecap="butt" stroke-miterlimit="10" stroke-linejoin="miter" fill="none" stroke="#808080" d="M 191.4644 14.34001 L 195.71628 14.34001 M 191.4644 71.70012 L 195.71628 71.70012 "/>
<path transform="matrix(1,0,0,-1,.199,97.182)" stroke-width="1" stroke-linecap="butt" stroke-miterlimit="10" stroke-linejoin="miter" fill="none" stroke="#000000" d="M 0 43.02007 L 385.18818 43.02007 "/>
<path transform="matrix(1,0,0,-1,385.38719,54.16193)" d="M 1.99252 0 L -1.19551 1.59401 L 0 0 L -1.19551 -1.59401 "/>
<path transform="matrix(1,0,0,-1,.199,97.182)" stroke-width="1" stroke-linecap="butt" stroke-miterlimit="10" stroke-linejoin="miter" fill="none" stroke="#000000" d="M 193.59035 0 L 193.59035 84.04762 "/>
<path transform="matrix(0,-1,-1,-0,193.78936,13.134377)" d="M 1.99252 0 L -1.19551 1.59401 L 0 0 L -1.19551 -1.59401 "/>
<symbol id="font_0_1">
<path d="M .57600006 0 C .59300008 0 .611 0 .611 .019999996 C .611 .040000008 .59300008 .040000008 .57600006 .040000008 L .035000005 .040000008 C .018 .040000008 0 .040000008 0 .019999996 C 0 0 .018 0 .035000005 0 L .57600006 0 Z "/>
</symbol>
<use xlink:href="#font_0_1" transform="matrix(9.9626,0,0,-9.9626,5.121896,63.9366)"/>
<symbol id="font_1_5">
<path d="M .07700001 .07700001 L .18300002 .18 C .33900003 .31800003 .39900003 .372 .39900003 .47200004 C .39900003 .586 .30900003 .666 .18700002 .666 C .074 .666 0 .574 0 .485 C 0 .42900003 .05 .42900003 .053000008 .42900003 C .07000001 .42900003 .105000007 .441 .105000007 .48200003 C .105000007 .508 .08700001 .53400006 .052000006 .53400006 C .044000005 .53400006 .042000008 .53400006 .039 .53300008 C .062000004 .59800007 .11600001 .63500007 .17400001 .63500007 C .26500003 .63500007 .308 .554 .308 .47200004 C .308 .39200003 .25800003 .31300003 .20300003 .25100003 L .011000004 .037 C 0 .026 0 .024 0 0 L .37100003 0 L .39900003 .17400001 L .374 .17400001 C .36900003 .14400001 .36200003 .1 .352 .085 C .345 .07700001 .279 .07700001 .257 .07700001 L .07700001 .07700001 Z "/>
</symbol>
<use xlink:href="#font_1_5" transform="matrix(9.9626,0,0,-9.9626,12.54213,66.228)"/>
<symbol id="font_2_2">
<path d="M .23800002 .38400004 L .351 .38400004 C .31800003 .23600002 .30900003 .19300002 .30900003 .126 C .30900003 .111 .30900003 .08400001 .317 .05 C .327 .0060000007 .338 0 .35300002 0 C .373 0 .39400003 .018000002 .39400003 .038000004 C .39400003 .044 .39400003 .046 .388 .060000004 C .359 .13200002 .359 .19700001 .359 .22500003 C .359 .27800004 .366 .33200003 .377 .38400004 L .491 .38400004 C .504 .38400004 .54 .38400004 .54 .418 C .54 .44200004 .519 .44200004 .5 .44200004 L .165 .44200004 C .143 .44200004 .105 .44200004 .061000006 .395 C .026000003 .35600005 0 .31000004 0 .305 C 0 .30400003 0 .29500003 .012 .29500003 C .020000002 .29500003 .022000002 .29900003 .028000003 .307 C .077 .38400004 .135 .38400004 .15500002 .38400004 L .21200001 .38400004 C .18000002 .263 .12600002 .14200002 .08400001 .051000004 C .076000008 .036000004 .076000008 .034 .076000008 .027000003 C .076000008 .008000001 .092 0 .105 0 C .135 0 .143 .028 .15500002 .065000008 C .16900002 .111 .16900002 .113000009 .18200001 .16300002 L .23800002 .38400004 Z "/>
</symbol>
<use xlink:href="#font_2_2" transform="matrix(9.9626,0,0,-9.9626,17.29499,66.337589)"/>
<use xlink:href="#font_0_1" transform="matrix(9.9626,0,0,-9.9626,45.167898,64.9886)"/>
<symbol id="font_1_6">
<path d="M .24800003 .37400005 C .33 .40100003 .388 .47100006 .388 .55 C .388 .632 .3 .688 .204 .688 C .10300001 .688 .027000003 .628 .027000003 .55200007 C .027000003 .519 .049000004 .5 .078 .5 C .109000008 .5 .12900001 .522 .12900001 .55100008 C .12900001 .6010001 .082 .6010001 .067 .6010001 C .098 .65000006 .164 .66300007 .20000002 .66300007 C .24100003 .66300007 .29600004 .64100006 .29600004 .55100008 C .29600004 .53900006 .29400004 .48100005 .268 .43700005 C .238 .38900004 .204 .38600005 .17900002 .38500003 C .171 .38400004 .14700002 .38200004 .14000002 .38200004 C .132 .38100005 .125 .38000003 .125 .37000004 C .125 .35900004 .132 .35900004 .14900002 .35900004 L .19300002 .35900004 C .275 .35900004 .312 .29100005 .312 .193 C .312 .057000005 .24300003 .028 .199 .028 C .15600002 .028 .081 .045 .046000005 .104 C .081 .09900001 .11200001 .12100001 .11200001 .15900001 C .11200001 .19500001 .085 .215 .056 .215 C .031999999 .215 0 .201 0 .157 C 0 .06600001 .093 0 .20200002 0 C .32400004 0 .41500003 .091000009 .41500003 .193 C .41500003 .27500005 .35200004 .35300005 .24800003 .37400005 Z "/>
</symbol>
<use xlink:href="#font_1_6" transform="matrix(9.9626,0,0,-9.9626,52.50843,67.499179)"/>
<symbol id="font_2_3">
<path d="M .384 .962 C .38900004 .975 .38900004 .97900006 .38900004 .98 C .38900004 .99100008 .38000003 1 .36900003 1 C .36200003 1 .35500003 .99700006 .352 .99100008 L .004999999 .037999989 C 0 .024999991 0 .020999983 0 .019999996 C 0 .008999988 .009 0 .02 0 C .033000005 0 .036000004 .0069999846 .042 .023999989 L .384 .962 Z "/>
</symbol>
<use xlink:href="#font_2_2" transform="matrix(9.9626,0,0,-9.9626,57.33999,67.38959)"/>
<use xlink:href="#font_2_3" transform="matrix(9.9626,0,0,-9.9626,63.656278,69.770648)"/>
<use xlink:href="#font_1_5" transform="matrix(9.9626,0,0,-9.9626,68.58713,67.28)"/>
<use xlink:href="#font_0_1" transform="matrix(9.9626,0,0,-9.9626,97.66689,63.327608)"/>
<use xlink:href="#font_2_2" transform="matrix(9.9626,0,0,-9.9626,104.85799,65.72859)"/>
<use xlink:href="#font_0_1" transform="matrix(9.9626,0,0,-9.9626,137.71289,64.9886)"/>
<use xlink:href="#font_2_2" transform="matrix(9.9626,0,0,-9.9626,144.90399,67.38959)"/>
<use xlink:href="#font_2_3" transform="matrix(9.9626,0,0,-9.9626,151.22028,69.770648)"/>
<use xlink:href="#font_1_5" transform="matrix(9.9626,0,0,-9.9626,156.15113,67.28)"/>
<use xlink:href="#font_2_2" transform="matrix(9.9626,0,0,-9.9626,231.084,67.38959)"/>
<use xlink:href="#font_2_3" transform="matrix(9.9626,0,0,-9.9626,237.40029,69.770648)"/>
<use xlink:href="#font_1_5" transform="matrix(9.9626,0,0,-9.9626,242.33013,67.28)"/>
<use xlink:href="#font_2_2" transform="matrix(9.9626,0,0,-9.9626,281.149,64.20659)"/>
<use xlink:href="#font_1_6" transform="matrix(9.9626,0,0,-9.9626,318.79643,67.499179)"/>
<use xlink:href="#font_2_2" transform="matrix(9.9626,0,0,-9.9626,323.62797,67.38959)"/>
<use xlink:href="#font_2_3" transform="matrix(9.9626,0,0,-9.9626,329.94425,69.770648)"/>
<use xlink:href="#font_1_5" transform="matrix(9.9626,0,0,-9.9626,334.87513,67.28)"/>
<use xlink:href="#font_1_5" transform="matrix(9.9626,0,0,-9.9626,368.88514,66.228)"/>
<use xlink:href="#font_2_2" transform="matrix(9.9626,0,0,-9.9626,373.63697,66.337589)"/>
<use xlink:href="#font_0_1" transform="matrix(9.9626,0,0,-9.9626,176.2379,83.345607)"/>
<symbol id="font_1_4">
<path d="M .205 .64000007 C .205 .66400006 .205 .666 .18200003 .666 C .120000008 .60200008 .032000007 .60200008 0 .60200008 L 0 .57100006 C .020000004 .57100006 .07900001 .57100006 .13100001 .597 L .13100001 .079 C .13100001 .043 .128 .031000002 .038000004 .031000002 L .0060000049 .031000002 L .0060000049 0 C .04100001 .003 .128 .003 .168 .003 C .20800002 .003 .29500003 .003 .33000005 0 L .33000005 .031000002 L .29800005 .031000002 C .20800002 .031000002 .205 .042000005 .205 .079 L .205 .64000007 Z "/>
</symbol>
<use xlink:href="#font_1_4" transform="matrix(9.9626,0,0,-9.9626,184.04668,85.637)"/>
<use xlink:href="#font_1_4" transform="matrix(9.9626,0,0,-9.9626,184.04668,28.693)"/>
<clipPath id="cp3">
<path transform="matrix(1,0,0,-1,.199,97.182)" d="M 0 0 L 387.1807 0 L 387.1807 86.04015 L 0 86.04015 Z "/>
</clipPath>
<g clip-path="url(#cp3)">
<path transform="matrix(1,0,0,-1,.199,97.182)" stroke-width="1.19553" stroke-linecap="butt" stroke-miterlimit="10" stroke-linejoin="miter" fill="none" stroke="#000080" d="M 0 68.6302 C 0 68.6302 2.82536 69.79686 3.9105 70.14795 C 4.99565 70.49904 6.73589 70.95213 7.82103 71.16064 C 8.90617 71.36916 10.64641 71.58846 11.73155 71.65079 C 12.81671 71.71313 14.55693 71.69499 15.64209 71.61006 C 16.72723 71.52515 18.46747 71.2694 19.55261 71.03876 C 20.63776 70.80814 22.37798 70.3199 23.46312 69.94775 C 24.54826 69.57562 26.2885 68.86351 27.37364 68.3566 C 28.4588 67.84969 30.19902 66.92635 31.28418 66.2942 C 32.36932 65.66206 34.10956 64.54599 35.1947 63.80048 C 36.27985 63.05496 38.02008 61.76608 39.10522 60.921 C 40.19037 60.07593 41.93059 58.6387 43.01573 57.7097 C 44.10089 56.78069 45.84111 55.2212 46.92627 54.22536 C 48.01141 53.2295 49.75165 51.57623 50.83679 50.53224 C 51.92194 49.48824 53.66217 47.77351 54.74731 46.70087 C 55.83246 45.62822 57.5727 43.88289 58.65784 42.80124 C 59.743 41.71959 61.48322 39.97559 62.56836 38.90504 C 63.6535 37.8345 65.39374 36.12495 66.47888 35.08545 C 67.56403 34.04593 69.30426 32.40218 70.3894 31.41296 C 71.47456 30.42375 73.21478 28.87631 74.29994 27.95587 C 75.38509 27.03542 77.12532 25.61362 78.21046 24.77898 C 79.29561 23.94432 81.03583 22.6738 82.12097 21.94023 C 83.20612 21.20667 84.94635 20.11053 86.0315 19.4918 C 87.11665 18.87306 88.85687 17.97292 89.94203 17.48076 C 91.02718 16.98862 92.76741 16.3012 93.85255 15.94466 C 94.9377 15.58813 96.67793 15.12547 97.76308 14.91104 C 98.84822 14.6966 100.58844 14.46748 101.67358 14.3991 C 102.75874 14.3307 104.49896 14.3392 105.58412 14.41801 C 106.66927 14.49684 108.4095 14.7425 109.49464 14.96724 C 110.57979 15.19199 112.32002 15.67122 113.40517 16.03787 C 114.49031 16.40451 116.23055 17.1082 117.31569 17.60983 C 118.40085 18.11145 120.14107 19.02611 121.22621 19.65327 C 122.31136 20.28046 124.05159 21.38902 125.13673 22.1301 C 126.22188 22.87115 127.96211 24.15303 129.04726 24.99437 C 130.13242 25.83571 131.87264 27.26788 132.9578 28.1939 C 134.04294 29.11992 135.78318 30.67503 136.86832 31.6685 C 137.95346 32.66196 139.6937 34.31172 140.77884 35.35417 C 141.86399 36.39662 143.6042 38.10988 144.68935 39.18181 C 145.7745 40.25375 147.51473 41.99835 148.59989 43.08 C 149.68503 44.16165 151.42527 45.90628 152.5104 46.97762 C 153.59555 48.04897 155.33579 49.7604 156.42093 50.80154 C 157.50608 51.84268 159.2463 53.48982 160.33145 54.48146 C 161.41661 55.4731 163.15682 57.02498 164.24198 57.94861 C 165.32712 58.87224 167.06735 60.2998 168.1525 61.1384 C 169.23764 61.97699 170.97788 63.25478 172.06302 63.99265 C 173.14817 64.73051 174.8884 65.83315 175.97354 66.45654 C 177.0587 67.07993 178.79894 67.98813 179.88408 68.48567 C 180.96923 68.9832 182.70944 69.6801 183.79459 70.0424 C 184.87973 70.40472 186.61997 70.87653 187.70511 71.09697 C 188.79027 71.31741 190.53049 71.55676 191.61565 71.63129 C 192.70079 71.70581 194.44103 71.70717 195.52617 71.63414 C 196.61132 71.56113 198.35155 71.3241 199.43669 71.10501 C 200.52184 70.88593 202.26206 70.41603 203.3472 70.05502 C 204.43236 69.69403 206.17258 68.99928 207.25774 68.50314 C 208.34288 68.00702 210.08312 67.10136 211.16826 66.4792 C 212.2534 65.85704 213.99364 64.75581 215.07878 64.01901 C 216.16393 63.28223 217.90416 62.00642 218.9893 61.16881 C 220.07447 60.33118 221.81467 58.90483 222.89983 57.98187 C 223.98497 57.05891 225.7252 55.50775 226.81035 54.51675 C 227.8955 53.52574 229.63573 51.88008 230.72087 50.83939 C 231.80602 49.79869 233.54625 48.08722 234.6314 47.01605 C 235.71656 45.94487 237.45679 44.20065 238.54193 43.119 C 239.62708 42.03735 241.3673 40.29237 242.45244 39.22025 C 243.53759 38.14812 245.27782 36.43454 246.36296 35.39174 C 247.44812 34.34892 249.18834 32.69844 250.2735 31.70435 C 251.35865 30.71024 253.09888 29.15361 254.18402 28.22688 C 255.26917 27.30016 257.0094 25.86726 258.09455 25.02505 C 259.1797 24.18283 260.91993 22.89893 262.00508 22.15675 C 263.09025 21.41458 264.83045 20.30426 265.9156 19.67593 C 267.00074 19.0476 268.74098 18.13112 269.8261 17.62817 C 270.91127 17.12523 272.6515 16.41917 273.73664 16.05106 C 274.82179 15.68295 276.562 15.20125 277.64717 14.97499 C 278.73234 14.74873 280.47254 14.50056 281.5577 14.42032 C 282.64286 14.34006 284.38307 14.32947 285.4682 14.39651 C 286.55335 14.46355 288.29359 14.69057 289.37873 14.90356 C 290.46388 15.11658 292.20414 15.57661 293.28929 15.93176 C 294.37446 16.28691 296.11466 16.97238 297.19978 17.46327 C 298.28495 17.95415 300.02516 18.85222 301.1103 19.46973 C 302.19548 20.08723 303.93565 21.18138 305.0208 21.91385 C 306.10597 22.6463 307.8462 23.91512 308.93138 24.74886 C 310.0165 25.5826 311.75675 27.00314 312.8419 27.92288 C 313.92704 28.84262 315.66725 30.38911 316.75239 31.37769 C 317.83753 32.36626 319.57777 34.00879 320.66294 35.04787 C 321.74809 36.08693 323.4883 37.79628 324.57347 38.86662 C 325.65864 39.93695 327.3988 41.68057 328.48396 42.76224 C 329.5691 43.84389 331.30934 45.58951 332.39448 46.66243 C 333.4796 47.73537 335.21989 49.45087 336.30503 50.49524 C 337.39018 51.5396 339.13038 53.19315 340.2155 54.18951 C 341.30067 55.18588 343.04093 56.74664 344.12605 57.67644 C 345.2112 58.60623 346.95146 60.0449 348.0366 60.8909 C 349.12178 61.73688 350.86195 63.02715 351.9471 63.77382 C 353.03227 64.52048 354.7725 65.63911 355.85765 66.27242 C 356.94279 66.9057 358.68305 67.83017 359.7682 68.33824 C 360.85334 68.8463 362.59355 69.56076 363.67869 69.9343 C 364.76387 70.30782 366.50407 70.79845 367.58924 71.03043 C 368.67436 71.2624 370.4146 71.51997 371.49977 71.60632 C 372.5849 71.69267 374.3251 71.71356 375.41026 71.6528 C 376.4954 71.59204 378.23564 71.3755 379.32078 71.1684 C 380.40596 70.96127 382.14613 70.50974 383.2313 70.15999 C 384.3164 69.81026 387.1418 68.6477 387.1418 68.6477 "/>
<path transform="matrix(1,0,0,-1,.199,97.182)" stroke-width="1.19553" stroke-linecap="butt" stroke-miterlimit="10" stroke-linejoin="miter" fill="none" stroke="#008000" d="M 0 55.92694 C 0 55.92694 2.82536 53.34883 3.9105 52.32559 C 4.99565 51.30237 6.73589 49.61365 7.82103 48.55215 C 8.90617 47.49068 10.64641 45.7551 11.73155 44.67519 C 12.81671 43.59528 14.55693 41.84723 15.64209 40.76897 C 16.72723 39.6907 18.46747 37.96065 19.55261 36.90375 C 20.63776 35.84685 22.37798 34.16722 23.46312 33.15154 C 24.54826 32.13586 26.2885 30.53908 27.37364 29.58345 C 28.4588 28.62782 30.19902 27.14197 31.28418 26.26402 C 32.36932 25.38608 34.10956 24.03961 35.1947 23.25578 C 36.27985 22.47195 38.02008 21.28983 39.10522 20.61464 C 40.19037 19.93944 41.93059 18.94354 43.01573 18.38936 C 44.10089 17.83516 45.84111 17.04308 46.92627 16.62036 C 48.01141 16.19765 49.75165 15.62592 50.83679 15.34267 C 51.92194 15.05942 53.66217 14.71771 54.74731 14.57892 C 55.83246 14.44012 57.5727 14.3341 58.65784 14.3423 C 59.743 14.3505 61.48322 14.4828 62.56836 14.63799 C 63.6535 14.79317 65.39374 15.16154 66.47888 15.46083 C 67.56403 15.76012 69.30426 16.35718 70.3894 16.79501 C 71.47456 17.23285 73.21478 18.0482 74.29994 18.61649 C 75.38509 19.18477 77.12532 20.20285 78.21046 20.89082 C 79.29561 21.57881 81.03583 22.77989 82.12097 23.575 C 83.20612 24.37009 84.94635 25.73389 86.0315 26.62138 C 87.11665 27.50887 88.85687 29.0082 89.94203 29.9715 C 91.02718 30.9348 92.76741 32.54295 93.85255 33.56424 C 94.9377 34.58553 96.67793 36.272 97.76308 37.33223 C 98.84822 38.39247 100.58844 40.12622 101.67358 41.20576 C 102.75874 42.2853 104.49896 44.03407 105.58412 45.11285 C 106.66927 46.19164 108.4095 47.92284 109.49464 48.98091 C 110.57979 50.039 112.32002 51.72113 113.40517 52.73888 C 114.49031 53.75662 116.23055 55.35768 117.31569 56.31613 C 118.40085 57.27458 120.14107 58.76534 121.22621 59.64674 C 122.31136 60.52815 124.05159 61.8807 125.13673 62.66876 C 126.22188 63.45682 127.96211 64.6466 129.04726 65.32654 C 130.13242 66.00648 131.87264 67.01018 132.9578 67.56934 C 134.04294 68.1285 135.78318 68.92857 136.86832 69.35666 C 137.95346 69.78474 139.6937 70.3656 140.77884 70.65472 C 141.86399 70.94386 143.6042 71.29564 144.68935 71.44057 C 145.7745 71.58548 147.51473 71.70145 148.59989 71.69926 C 149.68503 71.69707 151.42527 71.57416 152.5104 71.42479 C 153.59555 71.2754 155.33579 70.91623 156.42093 70.6226 C 157.50608 70.32898 159.2463 69.74078 160.33145 69.30849 C 161.41661 68.87619 163.15682 68.06982 164.24198 67.5068 C 165.32712 66.94379 167.06735 65.93387 168.1525 65.25055 C 169.23764 64.56723 170.97788 63.37296 172.06302 62.58186 C 173.14817 61.79079 174.8884 60.43312 175.97354 59.54895 C 177.0587 58.6648 178.79894 57.17 179.88408 56.20944 C 180.96923 55.24889 182.70944 53.64508 183.79459 52.62587 C 184.87973 51.60664 186.61997 49.92267 187.70511 48.86362 C 188.79027 47.80458 190.53049 46.07211 191.61565 44.99297 C 192.70079 43.91382 194.44103 42.16505 195.52617 41.08588 C 196.61132 40.0067 198.35155 38.2743 199.43669 37.21494 C 200.52184 36.15558 202.26206 34.47044 203.3472 33.45068 C 204.43236 32.43092 206.17258 30.82637 207.25774 29.8651 C 208.34288 28.90384 210.08312 27.40742 211.16826 26.52245 C 212.2534 25.63747 213.99364 24.27864 215.07878 23.48665 C 216.16393 22.69466 217.90416 21.49864 218.9893 20.81425 C 220.07447 20.12985 221.81467 19.11823 222.89983 18.55397 C 223.98497 17.98973 225.7252 17.18117 226.81035 16.74742 C 227.8955 16.31367 229.63573 15.72295 230.72087 15.42784 C 231.80602 15.13274 233.54625 14.7713 234.6314 14.6205 C 235.71656 14.4697 237.45679 14.34444 238.54193 14.34087 C 239.62708 14.3373 241.3673 14.4513 242.45244 14.5947 C 243.53759 14.7381 245.27782 15.08676 246.36296 15.3745 C 247.44812 15.66225 249.18834 16.24182 250.2735 16.66855 C 251.35865 17.09529 253.09888 17.89224 254.18402 18.45015 C 255.26917 19.00804 257.0094 20.01067 258.09455 20.68948 C 259.1797 21.36832 260.91993 22.55565 262.00508 23.34268 C 263.09025 24.1297 264.83045 25.48122 265.9156 26.36183 C 267.00074 27.24245 268.74098 28.73189 269.8261 29.68958 C 270.91127 30.64728 272.6515 32.24709 273.73664 33.26427 C 274.82179 34.28145 276.562 35.96289 277.64717 37.02078 C 278.73234 38.07867 280.47254 39.81015 281.5577 40.88884 C 282.64286 41.96754 284.38307 43.71577 285.4682 44.79536 C 286.55335 45.87494 288.29359 47.60922 289.37873 48.66975 C 290.46388 49.73027 292.20414 51.41708 293.28929 52.43889 C 294.37446 53.46068 296.11466 55.07014 297.19978 56.03421 C 298.28495 56.99828 300.02516 58.49901 301.1103 59.38719 C 302.19548 60.27536 303.93565 61.6395 305.0208 62.4356 C 306.10597 63.23169 307.8462 64.43571 308.93138 65.12494 C 310.0165 65.81415 311.75675 66.83347 312.8419 67.40298 C 313.92704 67.97249 315.66725 68.79036 316.75239 69.22961 C 317.83753 69.66888 319.57777 70.26839 320.66294 70.56897 C 321.74809 70.86957 323.4883 71.23953 324.57347 71.39612 C 325.65864 71.55269 327.3988 71.68779 328.48396 71.69754 C 329.5691 71.70729 331.30934 71.6037 332.39448 71.46638 C 333.4796 71.32906 335.21989 70.9897 336.30503 70.70778 C 337.39018 70.42586 339.13038 69.85574 340.2155 69.43439 C 341.30067 69.01303 343.04093 68.22374 344.12605 67.67085 C 345.2112 67.11798 346.95146 66.12367 348.0366 65.44958 C 349.12178 64.7755 350.86195 63.59525 351.9471 62.81245 C 353.03227 62.02966 354.7725 60.68468 355.85765 59.80765 C 356.94279 58.93062 358.68305 57.44635 359.7682 56.49136 C 360.85334 55.53638 362.59355 53.93996 363.67869 52.92473 C 364.76387 51.90948 366.50407 50.23071 367.58924 49.17422 C 368.67436 48.11774 370.4146 46.38835 371.49977 45.31018 C 372.5849 44.232 374.3251 42.4834 375.41026 41.40337 C 376.4954 40.32335 378.23564 38.58781 379.32078 37.52611 C 380.40596 36.4644 382.14613 34.77487 383.2313 33.75124 C 384.3164 32.72762 387.1418 30.14845 387.1418 30.14845 "/>
<path transform="matrix(1,0,0,-1,.199,97.182)" stroke-width="1.19553" stroke-linecap="butt" stroke-miterlimit="10" stroke-linejoin="miter" fill="none" stroke="#800000" d="M 0 30.11317 C 0 30.11317 2.82536 32.6913 3.9105 33.71452 C 4.99565 34.73776 6.73589 36.42648 7.82103 37.48796 C 8.90617 38.54944 10.64641 40.28503 11.73155 41.36494 C 12.81671 42.44484 14.55693 44.1929 15.64209 45.27116 C 16.72723 46.34943 18.46747 48.07947 19.55261 49.13637 C 20.63776 50.19328 22.37798 51.87291 23.46312 52.88858 C 24.54826 53.90427 26.2885 55.50105 27.37364 56.45668 C 28.4588 57.41231 30.19902 58.89816 31.28418 59.77611 C 32.36932 60.65405 34.10956 62.00052 35.1947 62.78435 C 36.27985 63.56818 38.02008 64.75029 39.10522 65.42549 C 40.19037 66.1007 41.93059 67.09659 43.01573 67.65077 C 44.10089 68.20496 45.84111 68.99704 46.92627 69.41977 C 48.01141 69.84248 49.75165 70.41422 50.83679 70.69746 C 51.92194 70.9807 53.66217 71.32242 54.74731 71.46121 C 55.83246 71.6 57.5727 71.70602 58.65784 71.69783 C 59.743 71.68964 61.48322 71.55731 62.56836 71.40213 C 63.6535 71.24695 65.39374 70.87857 66.47888 70.5793 C 67.56403 70.28001 69.30426 69.68294 70.3894 69.24512 C 71.47456 68.80728 73.21478 67.99191 74.29994 67.42365 C 75.38509 66.85536 77.12532 65.83728 78.21046 65.1493 C 79.29561 64.46132 81.03583 63.26022 82.12097 62.46513 C 83.20612 61.67004 84.94635 60.30624 86.0315 59.41875 C 87.11665 58.53127 88.85687 57.03194 89.94203 56.06863 C 91.02718 55.10533 92.76741 53.49716 93.85255 52.47589 C 94.9377 51.4546 96.67793 49.76813 97.76308 48.70789 C 98.84822 47.64766 100.58844 45.91391 101.67358 44.83437 C 102.75874 43.75482 104.49896 42.00606 105.58412 40.92728 C 106.66927 39.8485 108.4095 38.1173 109.49464 37.0592 C 110.57979 36.00111 112.32002 34.31898 113.40517 33.30125 C 114.49031 32.28351 116.23055 30.68245 117.31569 29.724 C 118.40085 28.76553 120.14107 27.2748 121.22621 26.39337 C 122.31136 25.51196 124.05159 24.15942 125.13673 23.37137 C 126.22188 22.58331 127.96211 21.39352 129.04726 20.71358 C 130.13242 20.03365 131.87264 19.02995 132.9578 18.4708 C 134.04294 17.91164 135.78318 17.11156 136.86832 16.68347 C 137.95346 16.25537 139.6937 15.67453 140.77884 15.38539 C 141.86399 15.09627 143.6042 14.74448 144.68935 14.59956 C 145.7745 14.45464 147.51473 14.33868 148.59989 14.34087 C 149.68503 14.34306 151.42527 14.46597 152.5104 14.61534 C 153.59555 14.76471 155.33579 15.12389 156.42093 15.41753 C 157.50608 15.71115 159.2463 16.29935 160.33145 16.73164 C 161.41661 17.16394 163.15682 17.97029 164.24198 18.53331 C 165.32712 19.09634 167.06735 20.10626 168.1525 20.78958 C 169.23764 21.4729 170.97788 22.66718 172.06302 23.45825 C 173.14817 24.24934 174.8884 25.60701 175.97354 26.49117 C 177.0587 27.37534 178.79894 28.87013 179.88408 29.83069 C 180.96923 30.79123 182.70944 32.39505 183.79459 33.41426 C 184.87973 34.43347 186.61997 36.11746 187.70511 37.17651 C 188.79027 38.23555 190.53049 39.96802 191.61565 41.04716 C 192.70079 42.1263 194.44103 43.87508 195.52617 44.95425 C 196.61132 46.03342 198.35155 47.76582 199.43669 48.8252 C 200.52184 49.88455 202.26206 51.56967 203.3472 52.58945 C 204.43236 53.6092 206.17258 55.21376 207.25774 56.17503 C 208.34288 57.13629 210.08312 58.6327 211.16826 59.51768 C 212.2534 60.40266 213.99364 61.76147 215.07878 62.55347 C 216.16393 63.34546 217.90416 64.54149 218.9893 65.22588 C 220.07447 65.91026 221.81467 66.9219 222.89983 67.48615 C 223.98497 68.0504 225.7252 68.85896 226.81035 69.29271 C 227.8955 69.72646 229.63573 70.31718 230.72087 70.61229 C 231.80602 70.90738 233.54625 71.26883 234.6314 71.41963 C 235.71656 71.57043 237.45679 71.69568 238.54193 71.69926 C 239.62708 71.70284 241.3673 71.58884 242.45244 71.44543 C 243.53759 71.30203 245.27782 70.95337 246.36296 70.66563 C 247.44812 70.37788 249.18834 69.79831 250.2735 69.37158 C 251.35865 68.94484 253.09888 68.14787 254.18402 67.58998 C 255.26917 67.03209 257.0094 66.02946 258.09455 65.35063 C 259.1797 64.67181 260.91993 63.48447 262.00508 62.69745 C 263.09025 61.91043 264.83045 60.55891 265.9156 59.6783 C 267.00074 58.79767 268.74098 57.30824 269.8261 56.35056 C 270.91127 55.39285 272.6515 53.79305 273.73664 52.77586 C 274.82179 51.75868 276.562 50.07724 277.64717 49.01935 C 278.73234 47.96146 280.47254 46.22998 281.5577 45.15128 C 282.64286 44.07259 284.38307 42.32436 285.4682 41.24477 C 286.55335 40.16519 288.29359 38.4309 289.37873 37.37038 C 290.46388 36.30986 292.20414 34.62305 293.28929 33.60124 C 294.37446 32.57944 296.11466 30.96999 297.19978 30.00592 C 298.28495 29.04185 300.02516 27.5411 301.1103 26.65294 C 302.19548 25.76476 303.93565 24.40062 305.0208 23.60452 C 306.10597 22.80843 307.8462 21.6044 308.93138 20.91519 C 310.0165 20.22598 311.75675 19.20667 312.8419 18.63715 C 313.92704 18.06764 315.66725 17.24977 316.75239 16.8105 C 317.83753 16.37125 319.57777 15.77174 320.66294 15.47115 C 321.74809 15.17056 323.4883 14.8006 324.57347 14.64401 C 325.65864 14.48743 327.3988 14.35233 328.48396 14.34259 C 329.5691 14.33284 331.30934 14.43643 332.39448 14.57375 C 333.4796 14.71107 335.21989 15.05042 336.30503 15.33234 C 337.39018 15.61426 339.13038 16.18439 340.2155 16.60574 C 341.30067 17.02708 343.04093 17.81639 344.12605 18.36928 C 345.2112 18.92215 346.95146 19.91646 348.0366 20.59055 C 349.12178 21.26463 350.86195 22.44487 351.9471 23.22768 C 353.03227 24.01047 354.7725 25.35545 355.85765 26.23248 C 356.94279 27.10951 358.68305 28.59378 359.7682 29.54877 C 360.85334 30.50375 362.59355 32.10017 363.67869 33.1154 C 364.76387 34.13065 366.50407 35.8094 367.58924 36.8659 C 368.67436 37.9224 370.4146 39.65176 371.49977 40.72995 C 372.5849 41.80814 374.3251 43.55673 375.41026 44.63675 C 376.4954 45.71678 378.23564 47.45232 379.32078 48.51402 C 380.40596 49.57573 382.14613 51.26526 383.2313 52.28888 C 384.3164 53.31252 387.1418 55.89168 387.1418 55.89168 "/>
<symbol id="font_1_7">
<path d="M .083000008 .22900002 C .083000008 .39200003 .16500002 .43400003 .218 .43400003 C .227 .43400003 .29 .43300004 .32500003 .397 C .284 .39400003 .278 .36400003 .278 .351 C .278 .32500003 .296 .305 .324 .305 C .35 .305 .37 .32200004 .37 .35200004 C .37 .42000003 .294 .45900003 .21700001 .45900003 C .092 .45900003 0 .351 0 .22700002 C 0 .09900001 .099 0 .215 0 C .349 0 .381 .120000008 .381 .13000001 C .381 .14000002 .37100003 .14000002 .368 .14000002 C .359 .14000002 .35700003 .136 .35500003 .13000001 C .326 .037 .261 .025000003 .224 .025000003 C .171 .025000003 .083000008 .068 .083000008 .22900002 Z "/>
</symbol>
<symbol id="font_1_8">
<path d="M .44300003 .22500003 C .44300003 .35300002 .34300003 .45900003 .222 .45900003 C .097 .45900003 0 .35000003 0 .22500003 C 0 .096 .104 0 .22100002 0 C .342 0 .44300003 .098000008 .44300003 .22500003 M .222 .025000003 C .17900002 .025000003 .135 .046 .10800001 .092 C .083000008 .136 .083000008 .19700001 .083000008 .23300003 C .083000008 .272 .083000008 .32600004 .10700001 .37000004 C .134 .41600005 .18100001 .43700005 .22100002 .43700005 C .26500003 .43700005 .30800004 .41500003 .33400003 .37200005 C .36 .32900004 .36 .27100004 .36 .23300003 C .36 .19700001 .36 .143 .33800004 .09900001 C .316 .054 .272 .025000003 .222 .025000003 Z "/>
</symbol>
<symbol id="font_1_9">
<path d="M .17500001 .20500002 C .197 .20100002 .279 .18500002 .279 .113000009 C .279 .062000004 .24400002 .022000002 .16600001 .022000002 C .082 .022000002 .046000005 .079 .027000003 .16400002 C .024000004 .17700002 .023000002 .18100001 .013000004 .18100001 C 0 .18100001 0 .17400001 0 .15600002 L 0 .024 C 0 .0070000009 0 0 .011000004 0 C .016000003 0 .017 .0010000002 .036000007 .020000002 C .038000004 .022000002 .038000004 .024 .056 .043 C .1 .0010000002 .14500001 0 .16600001 0 C .28100003 0 .32700003 .067 .32700003 .13900002 C .32700003 .19200002 .29700003 .22200002 .28500004 .23400001 C .25200004 .26600004 .213 .27400003 .171 .28200004 C .115 .293 .048 .30600003 .048 .36400003 C .048 .39900003 .07400001 .44000004 .16 .44000004 C .27 .44000004 .27500005 .35000003 .277 .31900005 C .27800004 .31000004 .28700004 .31000004 .28900004 .31000004 C .30200003 .31000004 .30200003 .31500004 .30200003 .33400003 L .30200003 .43500004 C .30200003 .45200003 .30200003 .45900003 .291 .45900003 C .286 .45900003 .284 .45900003 .27100004 .44700004 C .26800005 .44300003 .25800003 .43400003 .254 .43100003 C .21600002 .45900003 .17500001 .45900003 .16 .45900003 C .038000004 .45900003 0 .39200003 0 .33600004 C 0 .30100004 .016000003 .27300004 .043000007 .25100003 C .075 .22500003 .10300001 .21900001 .17500001 .20500002 Z "/>
</symbol>
<symbol id="font_1_1">
<path d="M .23200003 .00999999 C .23200003 .012999982 .23200003 .014999986 .215 .03199999 C .09 .15799999 .058 .347 .058 .5 C .058 .674 .096 .84800007 .21900001 .97300007 C .23200003 .985 .23200003 .98700007 .23200003 .99 C .23200003 .99700006 .22800002 1 .222 1 C .21200001 1 .12200001 .93200007 .06299999 .805 C .012000002 .69500008 0 .584 0 .5 C 0 .422 .011 .301 .066 .188 C .126 .065 .21200001 0 .222 0 C .22800002 0 .23200003 .0029999912 .23200003 .00999999 Z "/>
</symbol>
<use xlink:href="#font_1_7" transform="matrix(9.9626,0,0,-9.9626,95.06573,91.17859)" fill="#000080"/>
<use xlink:href="#font_1_8" transform="matrix(9.9626,0,0,-9.9626,99.429347,91.17859)" fill="#000080"/>
<use xlink:href="#font_1_9" transform="matrix(9.9626,0,0,-9.9626,104.46046,91.17859)" fill="#000080"/>
<use xlink:href="#font_1_1" transform="matrix(9.9626,0,0,-9.9626,109.04325,93.55965)" fill="#000080"/>
<symbol id="font_2_1">
<path d="M .41300003 .511 C .41300003 .577 .395 .716 .293 .716 C .15400002 .716 0 .43400003 0 .20500002 C 0 .111 .029 0 .12 0 C .261 0 .41300003 .28700004 .41300003 .511 M .106 .374 C .123 .43800003 .143 .518 .183 .589 C .21000001 .638 .24700001 .694 .29200004 .694 C .34100003 .694 .34700004 .63 .34700004 .573 C .34700004 .524 .33900003 .47300003 .31500004 .374 L .106 .374 M .30600003 .34200005 C .29500003 .29600004 .27400003 .21100001 .23600003 .13900002 C .201 .071 .16300002 .022000002 .12 .022000002 C .087000008 .022000002 .066 .051000004 .066 .14400001 C .066 .18600002 .072000008 .24400002 .098 .34200005 L .30600003 .34200005 Z "/>
</symbol>
<use xlink:href="#font_2_1" transform="matrix(9.9626,0,0,-9.9626,112.35942,91.17859)" fill="#000080"/>
<symbol id="font_1_2">
<path d="M .232 .5 C .232 .578 .22100002 .699 .16600001 .81200006 C .106 .93500009 .020000004 1 .009999998 1 C .0040000008 1 0 .99600008 0 .99 C 0 .98700007 0 .985 .019000002 .967 C .117000009 .86800006 .174 .709 .174 .5 C .174 .329 .137 .153 .012999997 .026999996 C 0 .014999986 0 .012999982 0 .00999999 C 0 .003999993 .0040000008 0 .009999998 0 C .020000004 0 .11000001 .06799999 .169 .195 C .22 .305 .232 .416 .232 .5 Z "/>
</symbol>
<use xlink:href="#font_1_2" transform="matrix(9.9626,0,0,-9.9626,117.46187,93.55965)" fill="#000080"/>
<use xlink:href="#font_1_7" transform="matrix(9.9626,0,0,-9.9626,117.68873,22.346589)" fill="#008000"/>
<use xlink:href="#font_1_8" transform="matrix(9.9626,0,0,-9.9626,122.052349,22.346589)" fill="#008000"/>
<use xlink:href="#font_1_9" transform="matrix(9.9626,0,0,-9.9626,127.08346,22.346589)" fill="#008000"/>
<use xlink:href="#font_1_1" transform="matrix(9.9626,0,0,-9.9626,131.66626,24.72765)" fill="#008000"/>
<use xlink:href="#font_2_1" transform="matrix(9.9626,0,0,-9.9626,134.98143,22.346589)" fill="#008000"/>
<symbol id="font_1_3">
<path d="M .35300002 .31300003 L .632 .31300003 C .646 .31300003 .665 .31300003 .665 .333 C .665 .35300002 .646 .35300002 .632 .35300002 L .35300002 .35300002 L .35300002 .633 C .35300002 .647 .35300002 .666 .33300004 .666 C .31300003 .666 .31300003 .647 .31300003 .633 L .31300003 .35300002 L .033 .35300002 C .019000002 .35300002 0 .35300002 0 .333 C 0 .31300003 .019000002 .31300003 .033 .31300003 L .31300003 .31300003 L .31300003 .033000005 C .31300003 .019000002 .31300003 0 .33300004 0 C .35300002 0 .35300002 .019000002 .35300002 .033000005 L .35300002 .31300003 Z "/>
</symbol>
<use xlink:href="#font_1_3" transform="matrix(9.9626,0,0,-9.9626,142.28792,23.063897)" fill="#008000"/>
<use xlink:href="#font_2_2" transform="matrix(9.9626,0,0,-9.9626,151.962,22.346589)" fill="#008000"/>
<use xlink:href="#font_2_3" transform="matrix(9.9626,0,0,-9.9626,158.27829,24.72765)" fill="#008000"/>
<use xlink:href="#font_1_5" transform="matrix(9.9626,0,0,-9.9626,163.20914,22.237)" fill="#008000"/>
<use xlink:href="#font_1_2" transform="matrix(9.9626,0,0,-9.9626,168.26018,24.72765)" fill="#008000"/>
<use xlink:href="#font_1_7" transform="matrix(9.9626,0,0,-9.9626,253.05673,22.346589)" fill="#800000"/>
<use xlink:href="#font_1_8" transform="matrix(9.9626,0,0,-9.9626,257.42036,22.346589)" fill="#800000"/>
<use xlink:href="#font_1_9" transform="matrix(9.9626,0,0,-9.9626,262.45146,22.346589)" fill="#800000"/>
<use xlink:href="#font_1_1" transform="matrix(9.9626,0,0,-9.9626,267.03425,24.72765)" fill="#800000"/>
<use xlink:href="#font_2_1" transform="matrix(9.9626,0,0,-9.9626,270.34944,22.346589)" fill="#800000"/>
<use xlink:href="#font_0_1" transform="matrix(9.9626,0,0,-9.9626,277.9249,19.945603)" fill="#800000"/>
<use xlink:href="#font_2_2" transform="matrix(9.9626,0,0,-9.9626,287.33,22.346589)" fill="#800000"/>
<use xlink:href="#font_2_3" transform="matrix(9.9626,0,0,-9.9626,293.64628,24.72765)" fill="#800000"/>
<use xlink:href="#font_1_5" transform="matrix(9.9626,0,0,-9.9626,298.57716,22.237)" fill="#800000"/>
<use xlink:href="#font_1_2" transform="matrix(9.9626,0,0,-9.9626,303.62818,24.72765)" fill="#800000"/>
</g>
<use xlink:href="#font_2_1" transform="matrix(9.9626,0,0,-9.9626,391.39546,57.721586)"/>
<symbol id="font_2_4">
<path d="M .305 .31300003 C .311 .33900003 .334 .43100003 .404 .43100003 C .409 .43100003 .433 .43100003 .454 .418 C .426 .41300003 .40600003 .388 .40600003 .36400003 C .40600003 .34800003 .417 .32900004 .444 .32900004 C .46600003 .32900004 .498 .34700004 .498 .38700003 C .498 .43900005 .439 .45300005 .405 .45300005 C .347 .45300005 .312 .40000005 .3 .37700004 C .275 .44300003 .221 .45300005 .19200002 .45300005 C .08800001 .45300005 .031000002 .32400004 .031000002 .29900003 C .031000002 .28900004 .041 .28900004 .043000007 .28900004 C .051000008 .28900004 .054000006 .291 .056 .3 C .09 .40600003 .156 .43100003 .19000001 .43100003 C .209 .43100003 .244 .42200003 .244 .36400003 C .244 .33300004 .22700002 .26600004 .19000001 .126 C .17400001 .064 .13900002 .022000002 .095000009 .022000002 C .08900001 .022000002 .06600001 .022000002 .045 .035 C .07000001 .040000004 .09200001 .061 .09200001 .089 C .09200001 .116000007 .07000001 .124000009 .055000009 .124000009 C .025 .124000009 0 .098000008 0 .06600001 C 0 .020000002 .050000006 0 .094000007 0 C .16000001 0 .19600001 .07000001 .19900002 .076000008 C .21100001 .039 .24700003 0 .307 0 C .41 0 .467 .12900001 .467 .15400002 C .467 .16400002 .458 .16400002 .455 .16400002 C .446 .16400002 .444 .16000001 .442 .15300001 C .409 .046 .341 .022000002 .30900003 .022000002 C .27 .022000002 .254 .054 .254 .08800001 C .254 .11000001 .26 .13200002 .271 .17600002 L .305 .31300003 Z "/>
</symbol>
<use xlink:href="#font_2_4" transform="matrix(9.9626,0,0,-9.9626,191.26992,7.719589)"/>
</svg>
