<?xml version="1.0" encoding="UTF-8" standalone="no"?>
<!DOCTYPE svg PUBLIC "-//W3C//DTD SVG 1.1//EN" "http://www.w3.org/Graphics/SVG/1.1/DTD/svg11.dtd">
<svg xmlns="http://www.w3.org/2000/svg" xmlns:xlink="http://www.w3.org/1999/xlink" version="1.1" width="215.938pt" height="181.444pt" viewBox="0 0 215.938 181.444">
<path transform="matrix(1,0,0,-1,9.686,174.498)" stroke-width="1" stroke-linecap="butt" stroke-miterlimit="10" stroke-linejoin="miter" fill="none" stroke="#bfbfbf" d="M 0 0 L 0 161.3994 M 64.55975 0 L 64.55975 161.3994 M 96.83963 0 L 96.83963 161.3994 M 129.11952 0 L 129.11952 161.3994 M 161.3994 0 L 161.3994 161.3994 M 193.67928 0 L 193.67928 161.3994 "/>
<path transform="matrix(1,0,0,-1,9.686,174.498)" stroke-width="1" stroke-linecap="butt" stroke-miterlimit="10" stroke-linejoin="miter" fill="none" stroke="#bfbfbf" d="M 0 0 L 193.67928 0 M 0 64.55975 L 193.67928 64.55975 M 0 96.83963 L 193.67928 96.83963 M 0 129.11952 L 193.67928 129.11952 M 0 161.3994 L 193.67928 161.3994 "/>
<path transform="matrix(1,0,0,-1,9.686,174.498)" stroke-width="1" stroke-linecap="butt" stroke-miterlimit="10" stroke-linejoin="miter" fill="none" stroke="#808080" d="M 0 30.15392 L 0 34.4058 M 64.55975 30.15392 L 64.55975 34.4058 M 96.83963 30.15392 L 96.83963 34.4058 M 129.11952 30.15392 L 129.11952 34.4058 M 161.3994 30.15392 L 161.3994 34.4058 M 193.67928 30.15392 L 193.67928 34.4058 "/>
<path transform="matrix(1,0,0,-1,9.686,174.498)" stroke-width="1" stroke-linecap="butt" stroke-miterlimit="10" stroke-linejoin="miter" fill="none" stroke="#808080" d="M 30.15392 0 L 34.4058 0 M 30.15392 64.55975 L 34.4058 64.55975 M 30.15392 96.83963 L 34.4058 96.83963 M 30.15392 129.11952 L 34.4058 129.11952 M 30.15392 161.3994 L 34.4058 161.3994 "/>
<path transform="matrix(1,0,0,-1,9.686,174.498)" stroke-width="1" stroke-linecap="butt" stroke-miterlimit="10" stroke-linejoin="miter" fill="none" stroke="#000000" d="M 0 32.27988 L 191.68675 32.27988 "/>
<path transform="matrix(1,0,0,-1,201.37276,142.21813)" d="M 1.99252 0 L -1.19551 1.59401 L 0 0 L -1.19551 -1.59401 "/>
<path transform="matrix(1,0,0,-1,9.686,174.498)" stroke-width="1" stroke-linecap="butt" stroke-miterlimit="10" stroke-linejoin="miter" fill="none" stroke="#000000" d="M 32.27988 0 L 32.27988 159.40688 "/>
<path transform="matrix(0,-1,-1,-0,41.96588,15.0911259)" d="M 1.99252 0 L -1.19551 1.59401 L 0 0 L -1.19551 -1.59401 "/>
<symbol id="font_0_1">
<path d="M .57600006 0 C .59300008 0 .611 0 .611 .019999996 C .611 .040000008 .59300008 .040000008 .57600006 .040000008 L .035000005 .040000008 C .018 .040000008 0 .040000008 0 .019999996 C 0 0 .018 0 .035000005 0 L .57600006 0 Z "/>
</symbol>
<use xlink:href="#font_0_1" transform="matrix(9.9626,0,0,-9.9626,4.147896,151.9936)"/>
<symbol id="font_1_1">
<path d="M .205 .64000007 C .205 .66400006 .205 .666 .18200003 .666 C .120000008 .60200008 .032000007 .60200008 0 .60200008 L 0 .57100006 C .020000004 .57100006 .07900001 .57100006 .13100001 .597 L .13100001 .079 C .13100001 .043 .128 .031000002 .038000004 .031000002 L .0060000049 .031000002 L .0060000049 0 C .04100001 .003 .128 .003 .168 .003 C .20800002 .003 .29500003 .003 .33000005 0 L .33000005 .031000002 L .29800005 .031000002 C .20800002 .031000002 .205 .042000005 .205 .079 L .205 .64000007 Z "/>
</symbol>
<use xlink:href="#font_1_1" transform="matrix(9.9626,0,0,-9.9626,11.955671,154.285)"/>
<use xlink:href="#font_1_1" transform="matrix(9.9626,0,0,-9.9626,72.64067,154.285)"/>
<symbol id="font_1_2">
<path d="M .07700001 .07700001 L .18300002 .18 C .33900003 .31800003 .39900003 .372 .39900003 .47200004 C .39900003 .586 .30900003 .666 .18700002 .666 C .074 .666 0 .574 0 .485 C 0 .42900003 .05 .42900003 .053000008 .42900003 C .07000001 .42900003 .105000007 .441 .105000007 .48200003 C .105000007 .508 .08700001 .53400006 .052000006 .53400006 C .044000005 .53400006 .042000008 .53400006 .039 .53300008 C .062000004 .59800007 .11600001 .63500007 .17400001 .63500007 C .26500003 .63500007 .308 .554 .308 .47200004 C .308 .39200003 .25800003 .31300003 .20300003 .25100003 L .011000004 .037 C 0 .026 0 .024 0 0 L .37100003 0 L .39900003 .17400001 L .374 .17400001 C .36900003 .14400001 .36200003 .1 .352 .085 C .345 .07700001 .279 .07700001 .257 .07700001 L .07700001 .07700001 Z "/>
</symbol>
<use xlink:href="#font_1_2" transform="matrix(9.9626,0,0,-9.9626,104.53113,154.285)"/>
<symbol id="font_1_3">
<path d="M .24800003 .37400005 C .33 .40100003 .388 .47100006 .388 .55 C .388 .632 .3 .688 .204 .688 C .10300001 .688 .027000003 .628 .027000003 .55200007 C .027000003 .519 .049000004 .5 .078 .5 C .109000008 .5 .12900001 .522 .12900001 .55100008 C .12900001 .6010001 .082 .6010001 .067 .6010001 C .098 .65000006 .164 .66300007 .20000002 .66300007 C .24100003 .66300007 .29600004 .64100006 .29600004 .55100008 C .29600004 .53900006 .29400004 .48100005 .268 .43700005 C .238 .38900004 .204 .38600005 .17900002 .38500003 C .171 .38400004 .14700002 .38200004 .14000002 .38200004 C .132 .38100005 .125 .38000003 .125 .37000004 C .125 .35900004 .132 .35900004 .14900002 .35900004 L .19300002 .35900004 C .275 .35900004 .312 .29100005 .312 .193 C .312 .057000005 .24300003 .028 .199 .028 C .15600002 .028 .081 .045 .046000005 .104 C .081 .09900001 .11200001 .12100001 .11200001 .15900001 C .11200001 .19500001 .085 .215 .056 .215 C .031999999 .215 0 .201 0 .157 C 0 .06600001 .093 0 .20200002 0 C .32400004 0 .41500003 .091000009 .41500003 .193 C .41500003 .27500005 .35200004 .35300005 .24800003 .37400005 Z "/>
</symbol>
<use xlink:href="#font_1_3" transform="matrix(9.9626,0,0,-9.9626,136.73143,154.50418)"/>
<symbol id="font_1_4">
<path d="M .266 .165 L .266 .078 C .266 .042000005 .26400004 .031000002 .19000001 .031000002 L .16900002 .031000002 L .16900002 0 C .21000001 .003 .26200003 .003 .30400003 .003 C .34600003 .003 .39900003 .003 .44000004 0 L .44000004 .031000002 L .41900004 .031000002 C .34500004 .031000002 .34300003 .042000005 .34300003 .078 L .34300003 .165 L .44300003 .165 L .44300003 .19600001 L .34300003 .19600001 L .34300003 .651 C .34300003 .671 .34300003 .67700007 .32700003 .67700007 C .31800003 .67700007 .31500004 .67700007 .307 .665 L 0 .19600001 L 0 .165 L .266 .165 M .272 .19600001 L .028 .19600001 L .272 .569 L .272 .19600001 Z "/>
</symbol>
<use xlink:href="#font_1_4" transform="matrix(9.9626,0,0,-9.9626,168.87096,154.285)"/>
<symbol id="font_1_5">
<path d="M .39900003 .223 C .39900003 .34200005 .317 .44200004 .209 .44200004 C .16100002 .44200004 .118000019 .42600004 .082 .39100004 L .082 .586 C .10200001 .58000007 .135 .573 .16700001 .573 C .29 .573 .36 .66400006 .36 .67700007 C .36 .683 .357 .688 .35 .688 C .349 .688 .347 .688 .342 .68500009 C .322 .67600008 .273 .656 .20600002 .656 C .16600001 .656 .120000008 .66300007 .073 .6840001 C .065 .68700006 .06300001 .68700006 .061000009 .68700006 C .051000004 .68700006 .051000004 .679 .051000004 .66300007 L .051000004 .36700005 C .051000004 .34900005 .051000004 .34100003 .065 .34100003 C .07200001 .34100003 .074 .34400005 .07800001 .35000003 C .08900002 .36600004 .12600002 .42000006 .207 .42000006 C .259 .42000006 .284 .37400005 .292 .35600005 C .308 .31900005 .31 .28000004 .31 .23 C .31 .19500001 .31 .135 .286 .093 C .262 .054000006 .22500001 .028 .17900002 .028 C .106000009 .028 .049000008 .08100001 .032 .14000002 C .035 .13900002 .038000008 .13800001 .049000008 .13800001 C .082 .13800001 .09900001 .163 .09900001 .187 C .09900001 .21100001 .082 .23600002 .049000008 .23600002 C .035 .23600002 0 .22900002 0 .18300002 C 0 .097 .069000009 0 .18100001 0 C .297 0 .39900003 .096 .39900003 .223 Z "/>
</symbol>
<use xlink:href="#font_1_5" transform="matrix(9.9626,0,0,-9.9626,201.37014,154.50418)"/>
<use xlink:href="#font_0_1" transform="matrix(9.9626,0,0,-9.9626,24.415898,175.0016)"/>
<use xlink:href="#font_1_1" transform="matrix(9.9626,0,0,-9.9626,32.224676,177.293)"/>
<use xlink:href="#font_1_1" transform="matrix(9.9626,0,0,-9.9626,32.224676,113.149)"/>
<use xlink:href="#font_1_2" transform="matrix(9.9626,0,0,-9.9626,31.836133,80.87)"/>
<use xlink:href="#font_1_3" transform="matrix(9.9626,0,0,-9.9626,31.75643,48.809175)"/>
<use xlink:href="#font_1_4" transform="matrix(9.9626,0,0,-9.9626,31.616955,16.311005)"/>
<path transform="matrix(1,0,0,-1,9.686,174.498)" stroke-width="1.19553" stroke-linecap="butt" stroke-miterlimit="10" stroke-linejoin="miter" fill="none" stroke="#000080" d="M 64.55975 96.83963 L 158.3719 128.11046 "/>
<path transform="matrix(.94963,-.31651,-.31651,-.94963,168.0579,46.387559)" d="M 3.18808 0 L -1.91284 2.55046 L 0 0 L -1.91284 -2.55046 " fill="#000080"/>
<path transform="matrix(1,0,0,-1,9.686,174.498)" stroke-width="1.19553" stroke-linecap="butt" stroke-miterlimit="10" stroke-linejoin="miter" fill="none" stroke="#800000" d="M 32.27988 32.27988 L 126.09203 63.55069 "/>
<path transform="matrix(.94963,-.31651,-.31651,-.94963,135.77803,110.94733)" d="M 3.18808 0 L -1.91284 2.55046 L 0 0 L -1.91284 -2.55046 " fill="#800000"/>
<symbol id="font_2_1">
<path d="M 1.098 0 C 1.12 0 1.1350001 0 1.1350001 .029 C 1.1350001 .039000006 1.1350001 .049999983 1.1220001 .05700001 C 1.067 .083000008 .95300009 .137 .86800006 .28800003 C .85600009 .307 .855 .308 .82900008 .308 C .81200006 .308 .79300007 .308 .79300007 .28599999 C .79300007 .272 .8510001 .15599999 .9560001 .072999987 L .051000008 .072999987 C .036 .072999987 0 .072999987 0 .037 C 0 0 .035000005 0 .051000008 0 L 1.098 0 Z "/>
</symbol>
<use xlink:href="#font_2_1" transform="matrix(6.9738,0,0,-6.9738,118.70093,50.08761)" fill="#000080"/>
<symbol id="font_3_1">
<path d="M .48000006 .38000003 C .48600004 .39400003 .49000005 .40100003 .554 .40100003 L .554 .44800005 C .529 .44600005 .5 .44500003 .47500006 .44500003 C .45000003 .44500003 .40500004 .44700004 .38400004 .44800005 L .38400004 .40100003 C .40300004 .40100003 .43200005 .39800004 .43200005 .39000003 C .43200005 .38900004 .43100003 .38700003 .42700003 .37800003 L .31100003 .128 L .18400002 .40100003 L .238 .40100003 L .238 .44800005 C .20500002 .44600005 .115 .44500003 .114 .44500003 C .086 .44500003 .041 .44700004 0 .44800005 L 0 .40100003 L .064 .40100003 L .23900002 .025000003 C .25100003 0 .26400004 0 .277 0 C .29400004 0 .30400003 .003 .314 .024000003 L .48000006 .38000003 Z "/>
</symbol>
<use xlink:href="#font_3_1" transform="matrix(9.9626,0,0,-9.9626,119.82002,58.039854)" fill="#000080"/>
<use xlink:href="#font_2_1" transform="matrix(6.9738,0,0,-6.9738,86.42193,114.64661)" fill="#800000"/>
<symbol id="font_3_2">
<path d="M .7120001 .38000003 C .71700009 .39300005 .7210001 .40100003 .7800001 .40100003 L .7800001 .44800005 C .7570001 .44600005 .72700008 .44500003 .70300009 .44500003 C .67600008 .44500003 .62900009 .44700004 .60700008 .44800005 L .60700008 .40100003 C .61600008 .40100003 .6650001 .40000005 .6650001 .38900004 C .6650001 .38600005 .66200008 .38000003 .6610001 .37700004 L .55600008 .12100001 L .442 .40100003 L .498 .40100003 L .498 .44800005 C .46600003 .44700004 .414 .44500003 .384 .44500003 C .342 .44500003 .3 .44700004 .284 .44800005 L .284 .40100003 L .34300003 .40100003 C .36400003 .351 .36400003 .34900005 .36400003 .34800003 C .36400003 .344 .361 .33800004 .36 .33500005 L .28100003 .143 L .176 .40100003 L .232 .40100003 L .232 .44800005 C .191 .44600005 .15 .44500003 .109000008 .44500003 C .07800001 .44500003 .034 .44700004 0 .44800005 L 0 .40100003 L .059000009 .40100003 L .21200001 .027000003 C .21900001 .01 .223 0 .248 0 C .273 0 .277 .01 .284 .027000003 L .39000003 .286 L .49600003 .027000003 C .503 .01 .507 0 .53200009 0 C .55700007 0 .56100007 .01 .5680001 .027000003 L .7120001 .38000003 Z "/>
</symbol>
<use xlink:href="#font_3_2" transform="matrix(9.9626,0,0,-9.9626,86.41605,122.59885)" fill="#800000"/>
<symbol id="font_4_1">
<path d="M .305 .31300003 C .311 .33900003 .334 .43100003 .404 .43100003 C .409 .43100003 .433 .43100003 .454 .418 C .426 .41300003 .40600003 .388 .40600003 .36400003 C .40600003 .34800003 .417 .32900004 .444 .32900004 C .46600003 .32900004 .498 .34700004 .498 .38700003 C .498 .43900005 .439 .45300005 .405 .45300005 C .347 .45300005 .312 .40000005 .3 .37700004 C .275 .44300003 .221 .45300005 .19200002 .45300005 C .08800001 .45300005 .031000002 .32400004 .031000002 .29900003 C .031000002 .28900004 .041 .28900004 .043000007 .28900004 C .051000008 .28900004 .054000006 .291 .056 .3 C .09 .40600003 .156 .43100003 .19000001 .43100003 C .209 .43100003 .244 .42200003 .244 .36400003 C .244 .33300004 .22700002 .26600004 .19000001 .126 C .17400001 .064 .13900002 .022000002 .095000009 .022000002 C .08900001 .022000002 .06600001 .022000002 .045 .035 C .07000001 .040000004 .09200001 .061 .09200001 .089 C .09200001 .116000007 .07000001 .124000009 .055000009 .124000009 C .025 .124000009 0 .098000008 0 .06600001 C 0 .020000002 .050000006 0 .094000007 0 C .16000001 0 .19600001 .07000001 .19900002 .076000008 C .21100001 .039 .24700003 0 .307 0 C .41 0 .467 .12900001 .467 .15400002 C .467 .16400002 .458 .16400002 .455 .16400002 C .446 .16400002 .444 .16000001 .442 .15300001 C .409 .046 .341 .022000002 .30900003 .022000002 C .27 .022000002 .254 .054 .254 .08800001 C .254 .11000001 .26 .13200002 .271 .17600002 L .305 .31300003 Z "/>
</symbol>
<use xlink:href="#font_4_1" transform="matrix(9.9626,0,0,-9.9626,207.21193,144.46659)"/>
<symbol id="font_4_2">
<path d="M .45700003 .586 C .461 .6 .461 .602 .461 .609 C .461 .62700006 .447 .63600006 .432 .63600006 C .42200003 .63600006 .40600003 .63 .397 .615 C .395 .61 .387 .579 .38300003 .561 C .37600003 .535 .36900003 .508 .363 .48100005 L .318 .301 C .314 .286 .271 .21600002 .20500002 .21600002 C .15400002 .21600002 .143 .26000003 .143 .29700003 C .143 .34300003 .16000001 .40500004 .194 .49300004 C .21000001 .53400006 .21400002 .545 .21400002 .56500008 C .21400002 .61 .18200001 .6470001 .13200002 .6470001 C .037 .6470001 0 .50200006 0 .49300004 C 0 .48300005 .01 .48300005 .012 .48300005 C .022000002 .48300005 .023 .485 .028000003 .50100007 C .055000009 .595 .095000009 .625 .12900001 .625 C .13700001 .625 .15400002 .625 .15400002 .59300008 C .15400002 .568 .14400001 .54200008 .13700001 .523 C .097 .41700004 .079 .36 .079 .31300003 C .079 .224 .142 .194 .201 .194 C .24000003 .194 .274 .21100001 .30200003 .23900002 C .289 .187 .277 .13800001 .237 .08500001 C .21100001 .051 .17300001 .022 .127 .022 C .113000009 .022 .068 .025000006 .051000008 .06400001 C .067 .06400001 .080000009 .06400001 .094000007 .076000008 C .104 .08500001 .11400001 .098000008 .11400001 .117000009 C .11400001 .148 .087000008 .15200001 .07700001 .15200001 C .054000006 .15200001 .021 .136 .021 .087000008 C .021 .037 .065000008 0 .127 0 C .23 0 .333 .091000009 .361 .20400001 L .45700003 .586 Z "/>
</symbol>
<use xlink:href="#font_4_2" transform="matrix(9.9626,0,0,-9.9626,39.637914,9.652334)"/>
</svg>
