<?xml version="1.0" encoding="UTF-8" standalone="no"?>
<!DOCTYPE svg PUBLIC "-//W3C//DTD SVG 1.1//EN" "http://www.w3.org/Graphics/SVG/1.1/DTD/svg11.dtd">
<svg xmlns="http://www.w3.org/2000/svg" xmlns:xlink="http://www.w3.org/1999/xlink" version="1.1" width="119.977pt" height="91.117pt" viewBox="0 0 119.977 91.117">
<path transform="matrix(1,0,0,-1,61.244,42.329999)" d="M -14.17339 0 L 14.17339 0 L 28.3468 -28.3468 L -28.3468 -28.3468 Z " fill="#e6e6e6"/>
<path transform="matrix(1,0,0,-1,61.244,42.329999)" stroke-width="1" stroke-linecap="butt" stroke-miterlimit="10" stroke-linejoin="miter" fill="none" stroke="#cccccc" d="M -14.17339 0 L 14.17339 0 L 28.3468 -28.3468 L -28.3468 -28.3468 Z "/>
<path transform="matrix(1,0,0,-1,61.244,42.329999)" stroke-width="1.19553" stroke-linecap="butt" stroke-miterlimit="10" stroke-linejoin="miter" fill="none" stroke="#000000" d="M 0 0 L 0 -45.00139 "/>
<path transform="matrix(0,1,1,0,61.244,87.33139)" d="M 3.18808 0 L -1.91284 2.55046 L 0 0 L -1.91284 -2.55046 "/>
<path transform="matrix(1,0,0,-1,61.244,42.329999)" stroke-width="1.19553" stroke-linecap="butt" stroke-miterlimit="10" stroke-linejoin="miter" fill="none" stroke="#000000" d="M 0 0 L -22.49564 38.9637 "/>
<path transform="matrix(-.50159,-.86877,-.86877,.50159,38.74836,3.3662987)" d="M 3.18808 0 L -1.91284 2.55046 L 0 0 L -1.91284 -2.55046 "/>
<path transform="matrix(1,0,0,-1,61.244,42.329999)" stroke-width="1.19553" stroke-linecap="butt" stroke-miterlimit="10" stroke-linejoin="miter" fill="none" stroke="#000000" d="M 0 0 L 31.82068 31.82082 "/>
<path transform="matrix(.70715,-.7071,-.7071,-.70715,93.06466,10.509178)" d="M 3.18808 0 L -1.91284 2.55046 L 0 0 L -1.91284 -2.55046 "/>
<path transform="matrix(1,0,0,-1,61.244,42.329999)" stroke-width="1" stroke-linecap="butt" stroke-miterlimit="10" stroke-linejoin="miter" fill="none" stroke="#000000" d="M 11.33855 0 C 11.33855 6.26218 6.26218 11.33855 0 11.33855 C -1.98979 11.33855 -3.94608 10.8143 -3.93822 10.8188 "/>
<path transform="matrix(-.86877,.50154,.50154,.86877,57.30578,31.511178)" d="M 1.99252 0 L -1.19551 1.59401 L 0 0 L -1.19551 -1.59401 "/>
<path transform="matrix(1,0,0,-1,61.244,42.329999)" stroke-width="1" stroke-linecap="butt" stroke-miterlimit="10" stroke-linejoin="miter" fill="none" stroke="#000000" d="M 36.85092 0 C 36.85092 9.77164 32.96709 19.14801 27.46645 24.64864 "/>
<path transform="matrix(-.70709,-.7071,-.7071,.70709,88.71045,17.681359)" d="M 1.99252 0 L -1.19551 1.59401 L 0 0 L -1.19551 -1.59401 "/>
<path transform="matrix(1,0,0,-1,61.244,42.329999)" stroke-width="1" stroke-linecap="butt" stroke-dasharray="2.98883,2.98883" stroke-miterlimit="10" stroke-linejoin="miter" fill="none" stroke="#000000" d="M -42.5202 0 L 56.69362 0 "/>
<symbol id="font_0_2">
<path d="M .22600001 .63600006 C .22600001 .66300007 .224 .66400006 .19600001 .66400006 C .132 .601 .041 .6 0 .6 L 0 .564 C .023999997 .564 .09000001 .564 .14500001 .592 L .14500001 .082 C .14500001 .049000004 .14500001 .036000004 .04500001 .036000004 L .0069999995 .036000004 L .0069999995 0 C .024999999 .001 .148 .004 .185 .004 C .21600002 .004 .34200005 .001 .36400003 0 L .36400003 .036000004 L .32600004 .036000004 C .22600001 .036000004 .22600001 .049000004 .22600001 .082 L .22600001 .63600006 Z "/>
</symbol>
<symbol id="font_0_3">
<path d="M .442 .18200001 L .40800003 .18200001 C .40500004 .16000001 .39500005 .101 .38200004 .091000009 C .374 .085 .29700003 .085 .28300003 .085 L .099 .085 C .20400003 .178 .23900002 .20600002 .29900003 .25300003 C .37300004 .312 .442 .374 .442 .469 C .442 .59000006 .33600004 .66400006 .20800004 .66400006 C .084 .66400006 0 .577 0 .485 C 0 .43400003 .043000007 .42900003 .053000004 .42900003 C .077 .42900003 .10600001 .446 .10600001 .48200003 C .10600001 .5 .099 .535 .047000007 .535 C .078 .606 .146 .628 .19300002 .628 C .293 .628 .34500004 .55 .34500004 .469 C .34500004 .38200004 .28300003 .31300003 .25100003 .277 L .010000005 .039 C 0 .030000002 0 .028 0 0 L .41200004 0 L .442 .18200001 Z "/>
</symbol>
<symbol id="font_0_1">
<path d="M .46400006 .33900003 C .46400006 .44900004 .45100004 .528 .40500004 .598 C .374 .644 .31200005 .684 .23200001 .684 C 0 .684 0 .41100005 0 .33900003 C 0 .26700003 0 0 .23200001 0 C .46400006 0 .46400006 .26700003 .46400006 .33900003 M .23200001 .028 C .186 .028 .125 .055 .105000007 .13700001 C .091000009 .19600001 .091000009 .27800004 .091000009 .35200004 C .091000009 .42500005 .091000009 .50100007 .106000009 .556 C .127 .635 .19100002 .656 .23200001 .656 C .286 .656 .338 .623 .356 .565 C .37200005 .51100006 .37300004 .43900005 .37300004 .35200004 C .37300004 .27800004 .37300004 .20400001 .36 .141 C .34000004 .050000006 .272 .028 .23200001 .028 Z "/>
</symbol>
<use xlink:href="#font_0_2" transform="matrix(6.9738,0,0,-6.9738,72.611148,38.524)"/>
<use xlink:href="#font_0_3" transform="matrix(6.9738,0,0,-6.9738,76.26541,38.524)"/>
<use xlink:href="#font_0_1" transform="matrix(6.9738,0,0,-6.9738,80.16377,38.663476)"/>
<symbol id="font_1_1">
<path d="M .486 .243 C .486 .377 .37700004 .48600004 .24300003 .48600004 C .10900001 .48600004 0 .377 0 .243 C 0 .109000008 .10900001 0 .24300003 0 C .37700004 0 .486 .109000008 .486 .243 M .24300003 .056 C .14000002 .056 .05600001 .14 .05600001 .243 C .05600001 .34600003 .14000002 .43 .24300003 .43 C .34600003 .43 .43 .34600003 .43 .243 C .43 .14 .34600003 .056 .24300003 .056 Z "/>
</symbol>
<use xlink:href="#font_1_1" transform="matrix(4.9813,0,0,-4.9813,84.387668,34.984128)"/>
<symbol id="font_0_4">
<path d="M .49000005 .164 L .49000005 .2 L .379 .2 L .379 .646 C .379 .66700008 .379 .674 .35700003 .674 C .345 .674 .34100003 .674 .331 .66 L 0 .2 L 0 .164 L .294 .164 L .294 .082 C .294 .048 .294 .036000004 .213 .036000004 L .186 .036000004 L .186 0 C .236 .002 .3 .004 .33600004 .004 C .37300004 .004 .437 .002 .48700003 0 L .48700003 .036000004 L .46 .036000004 C .379 .036000004 .379 .048 .379 .082 L .379 .164 L .49000005 .164 M .301 .56600007 L .301 .2 L .037000006 .2 L .301 .56600007 Z "/>
</symbol>
<symbol id="font_0_5">
<path d="M .092 .578 C .143 .565 .17300001 .565 .18900001 .565 C .321 .565 .39900003 .65500006 .39900003 .67 C .39900003 .681 .39200003 .684 .38700003 .684 C .38500003 .684 .38300003 .684 .37900005 .681 C .35500003 .672 .30200003 .652 .22800002 .652 C .20000002 .652 .14700002 .654 .08200001 .679 C .072000008 .684 .07 .684 .069 .684 C .056 .684 .056 .67300006 .056 .657 L .056 .36200003 C .056 .34500004 .056 .33300004 .072000008 .33300004 C .08100001 .33300004 .08200001 .33500005 .092 .34700004 C .13500002 .40200005 .19600001 .41000004 .231 .41000004 C .291 .41000004 .31800003 .36200003 .323 .35400004 C .34100003 .32100005 .34700004 .28300003 .34700004 .22500001 C .34700004 .19500001 .34700004 .136 .31700004 .09200001 C .29200004 .056 .24900002 .032 .20000002 .032 C .13500002 .032 .06800001 .068 .043000007 .134 C .08100001 .13100001 .1 .156 .1 .183 C .1 .22600001 .063 .23400001 .050000006 .23400001 C .048000009 .23400001 0 .23400001 0 .18 C 0 .09 .08200001 0 .20200002 0 C .33 0 .442 .095000009 .442 .221 C .442 .33400003 .35600005 .43800003 .23200003 .43800003 C .18800003 .43800003 .136 .42700003 .092 .38900004 L .092 .578 Z "/>
</symbol>
<use xlink:href="#font_0_4" transform="matrix(6.9738,0,0,-6.9738,104.74798,32.104997)"/>
<use xlink:href="#font_0_5" transform="matrix(6.9738,0,0,-6.9738,108.89041,32.244474)"/>
<use xlink:href="#font_1_1" transform="matrix(4.9813,0,0,-4.9813,113.040668,28.565127)"/>
<symbol id="font_2_1">
<path d="M 1.2490001 0 C 1.273 0 1.289 0 1.289 .033999996 C 1.289 .044999988 1.289 .060000004 1.273 .065999988 C 1.229 .08500001 1.176 .10699999 1.1060001 .164 C 1.041 .21700001 1.008 .266 .985 .301 C .97300007 .31800003 .969 .31800003 .94200006 .31800003 C .9250001 .31800003 .89900007 .31800003 .89900007 .29299999 C .89900007 .275 .972 .15900001 1.069 .085999999 L .05600001 .085999999 C .042999999 .085999999 0 .085999999 0 .042999984 C 0 0 .042999999 0 .05600001 0 L 1.2490001 0 Z "/>
</symbol>
<use xlink:href="#font_2_1" transform="matrix(4.9813,0,0,-4.9813,34.722887,18.404868)"/>
<symbol id="font_3_1">
<path d="M .66 .679 L 0 .679 L 0 .623 L .107 .623 L .107 .056 L 0 .056 L 0 0 C .026 .002 .17700002 .004 .185 .004 C .222 .004 .259 .003 .296 .003 C .322 .002 .366 .002 .39200003 0 L .39200003 .056 L .25800003 .056 L .25800003 .312 L .32 .312 C .40800003 .312 .43100003 .284 .43100003 .202 L .494 .202 L .494 .47800002 L .43100003 .47800002 C .43100003 .397 .409 .36800004 .32 .36800004 L .25800003 .36800004 L .25800003 .623 L .421 .623 C .563 .623 .61200007 .577 .63100007 .44000004 L .69400009 .44000004 L .66 .679 Z "/>
</symbol>
<use xlink:href="#font_3_1" transform="matrix(6.9738,0,0,-6.9738,35.514509,25.614998)"/>
<symbol id="font_4_1">
<path d="M .25500003 .63600006 C .25500003 .666 .252 .666 .21900001 .666 C .148 .60200008 .037 .60200008 .017000005 .60200008 L 0 .60200008 L 0 .558 L .017000005 .558 C .040000008 .558 .105000007 .56100007 .16300002 .586 L .16300002 .086 C .16300002 .055000005 .16300002 .044000005 .056999998 .044000005 L .0069999995 .044000005 L .0069999995 0 C .062000008 .004 .151 .004 .20900002 .004 C .26700003 .004 .356 .004 .411 0 L .411 .044000005 L .361 .044000005 C .25500003 .044000005 .25500003 .055000005 .25500003 .086 L .25500003 .63600006 Z "/>
</symbol>
<use xlink:href="#font_4_1" transform="matrix(4.9813,0,0,-4.9813,42.427328,26.612)"/>
<use xlink:href="#font_2_1" transform="matrix(4.9813,0,0,-4.9813,64.99089,17.556868)"/>
<use xlink:href="#font_3_1" transform="matrix(6.9738,0,0,-6.9738,65.78251,24.767998)"/>
<symbol id="font_4_2">
<path d="M .49800004 .193 L .45600004 .193 C .453 .17400001 .44300003 .112 .427 .102000009 C .41900004 .096 .33500005 .096 .32 .096 L .124 .096 C .19000001 .14500001 .264 .201 .324 .24100001 C .41399998 .303 .49800004 .36100004 .49800004 .467 C .49800004 .595 .37700004 .666 .23400001 .666 C .09900001 .666 0 .588 0 .49 C 0 .43800003 .044 .42900003 .058 .42900003 C .08500001 .42900003 .117 .44700004 .117 .48800005 C .117 .52400007 .091000009 .544 .060000004 .54700008 C .088 .592 .14600002 .62200006 .21300002 .62200006 C .31 .62200006 .39100004 .564 .39100004 .46600003 C .39100004 .38200004 .333 .31800003 .25599999 .25300003 L .012000002 .046000005 C .0019999967 .037 .001000002 .037 0 .030000002 L 0 0 L .46500004 0 L .49800004 .193 Z "/>
</symbol>
<use xlink:href="#font_4_2" transform="matrix(4.9813,0,0,-4.9813,72.4363,25.764)"/>
<use xlink:href="#font_2_1" transform="matrix(4.9813,0,0,-4.9813,3.956888,53.07087)"/>
<use xlink:href="#font_3_1" transform="matrix(6.9738,0,0,-6.9738,4.7485077,60.281999)"/>
<symbol id="font_5_1">
<path d="M 1.077 .58100005 C 1.125 .65500006 1.166 .65800008 1.205 .66 C 1.217 .6610001 1.223 .6750001 1.223 .688 C 1.223 .702 1.211 .70500007 1.207 .70500007 C 1.194 .70500007 1.179 .702 1.165 .702 C 1.151 .702 1.135 .70100006 1.12 .70100006 L 1.061 .702 C 1.042 .702 1.021 .70500007 1.002 .70500007 C .9880001 .70500007 .9780001 .6980001 .9780001 .67700007 C .9780001 .6610001 .9930001 .66 1.001 .66 C 1.013 .65900006 1.056 .656 1.056 .62900009 C 1.056 .61700007 1.048 .605 1.042 .596 L .74100008 .13300002 L .665 .63900008 C .67700007 .65700009 .70400008 .66 .73300006 .66 C .75200006 .66 .7670001 .66 .7670001 .688 C .7670001 .70000007 .757 .70500007 .7490001 .70500007 C .72800007 .70500007 .70400008 .702 .68200007 .702 C .65900006 .702 .63600006 .70100006 .61300006 .70100006 C .59300008 .70100006 .5730001 .702 .554 .702 C .535 .702 .51400008 .70500007 .49600006 .70500007 C .47900004 .70500007 .47200007 .693 .47200007 .67700007 C .47200007 .66 .48800005 .66 .50100007 .66 C .51800009 .66 .54800006 .66 .55500009 .65000006 C .558 .646 .56500008 .59700009 .56500008 .591 C .56500008 .59000006 .56500008 .58800008 .558 .57800009 L .269 .13300002 L .19600003 .623 C .19600003 .62500008 .19400002 .63500007 .19400002 .63600006 C .19400002 .66 .25600005 .66 .26200003 .66 C .27900005 .66 .296 .66 .296 .688 C .296 .69600006 .28900004 .70500007 .278 .70500007 C .25700004 .70500007 .23300003 .702 .21100001 .702 C .18800001 .702 .165 .70100006 .14100002 .70100006 C .12100001 .70100006 .10100001 .702 .082 .702 C .07000001 .702 .025000006 .70500007 .024000004 .70500007 C .011000007 .70500007 0 .6980001 0 .67700007 C 0 .66 .015000001 .66 .028000012 .66 C .08400001 .66 .08400001 .65500006 .088000018 .63100007 L .17800002 .028 C .18100001 .010000002 .18300002 0 .20500003 0 C .228 0 .23500003 .011000001 .24200003 .022000002 L .57400009 .53300008 L .65000006 .029000003 C .65300008 .0090000019 .65400007 0 .67700007 0 C .6980001 0 .70500007 .0090000019 .71500006 .024000003 L 1.077 .58100005 Z "/>
</symbol>
<use xlink:href="#font_5_1" transform="matrix(4.9813,0,0,-4.9813,11.576644,61.392587)"/>
<symbol id="font_0_6">
<path d="M .698 .22000003 C .71300008 .22000003 .73600009 .22000003 .73600009 .24500004 C .73600009 .26900003 .7120001 .26900003 .69900009 .26900003 L .037000009 .26900003 C .024000004 .26900003 0 .26900003 0 .24500004 C 0 .22000003 .023000002 .22000003 .038000004 .22000003 L .698 .22000003 M .69900009 0 C .7120001 0 .73600009 0 .73600009 .023999997 C .73600009 .049000004 .71300008 .049000004 .698 .049000004 L .038000004 .049000004 C .023000002 .049000004 0 .049000004 0 .023999997 C 0 0 .024000004 0 .037000009 0 L .69900009 0 Z "/>
</symbol>
<use xlink:href="#font_0_6" transform="matrix(6.9738,0,0,-6.9738,21.440167,59.473039)"/>
<symbol id="font_6_2">
<path d="M .24000001 .95500007 C .24599999 .96900007 .24599999 .9710001 .24599999 .97400006 C .24599999 .99000009 .23300001 .9990001 .222 .9990001 C .20500002 .9990001 .201 .98800006 .195 .97400006 L .0059999974 .51900008 C 0 .505 0 .503 0 .5 C 0 .495 0 .49400003 .0059999974 .48000003 L .194 .026000008 C .20000002 .011000007 .206 0 .222 0 C .23300001 0 .24599999 .009000003 .24599999 .025000006 C .24599999 .027999998 .24599999 .030000002 .24000001 .044 L .051 .499 L .24000001 .95500007 Z "/>
</symbol>
<use xlink:href="#font_6_2" transform="matrix(6.9738,0,0,-6.9738,30.298384,62.018476)"/>
<use xlink:href="#font_0_1" transform="matrix(6.9738,0,0,-6.9738,32.922636,60.421476)"/>
<symbol id="font_7_1">
<path d="M .09900001 .209 C .09900001 .154 .089 .089999999 .020999998 .025999994 C .017000005 .022 .013999999 .018999994 .013999999 .013999999 C .013999999 .0069999995 .022 0 .027999998 0 C .04200001 0 .127 .08 .127 .199 C .127 .261 .103 .308 .05700001 .308 C .024000004 .308 0 .282 0 .25100003 C 0 .21900001 .023000002 .193 .058 .193 C .082 .193 .098000008 .209 .09900001 .209 Z "/>
</symbol>
<use xlink:href="#font_7_1" transform="matrix(6.9738,0,0,-6.9738,37.312067,61.62794)"/>
<symbol id="font_6_1">
<path d="M .63600006 0 C .65200009 0 .67600008 0 .67600008 .023999989 C .67600008 .048999996 .65300008 .048999996 .63600006 .048999996 L .04 .048999996 C .023999997 .048999996 0 .048999996 0 .025000006 C 0 0 .02300001 0 .04 0 L .63600006 0 Z "/>
</symbol>
<use xlink:href="#font_6_1" transform="matrix(6.9738,0,0,-6.9738,41.01117,58.705919)"/>
<use xlink:href="#font_0_5" transform="matrix(6.9738,0,0,-6.9738,46.92335,60.421476)"/>
<use xlink:href="#font_0_1" transform="matrix(6.9738,0,0,-6.9738,50.821706,60.421476)"/>
<symbol id="font_6_3">
<path d="M .24 .48000003 C .246 .49400003 .246 .49600003 .246 .499 C .246 .50400009 .246 .505 .24 .51900008 L .052 .97300007 C .045999998 .98800006 .04 .9990001 .023999997 .9990001 C .012999997 .9990001 0 .99000009 0 .97400006 C 0 .9710001 0 .96900007 .0059999974 .95500007 L .19500001 .5 L .0059999974 .044 C 0 .030000002 0 .027999998 0 .025000006 C 0 .009000003 .012999997 0 .023999997 0 C .041 0 .045 .011000007 .051 .025000006 L .24 .48000003 Z "/>
</symbol>
<use xlink:href="#font_6_3" transform="matrix(6.9738,0,0,-6.9738,54.963987,62.018476)"/>
</svg>
