<?xml version="1.0" encoding="UTF-8" standalone="no"?>
<!DOCTYPE svg PUBLIC "-//W3C//DTD SVG 1.1//EN" "http://www.w3.org/Graphics/SVG/1.1/DTD/svg11.dtd">
<svg xmlns="http://www.w3.org/2000/svg" xmlns:xlink="http://www.w3.org/1999/xlink" version="1.1" width="216.579pt" height="216.882pt" viewBox="0 0 216.579 216.882">
<path transform="matrix(1,0,0,-1,.433,216.683)" stroke-width="1" stroke-linecap="butt" stroke-miterlimit="10" stroke-linejoin="miter" fill="none" stroke="#808080" d="M 9.25313 99.65877 L 9.25313 103.9103 M 194.31594 99.65877 L 194.31594 103.9103 "/>
<path transform="matrix(1,0,0,-1,.433,216.683)" stroke-width="1" stroke-linecap="butt" stroke-miterlimit="10" stroke-linejoin="miter" fill="none" stroke="#808080" d="M 99.65877 9.25313 L 103.9103 9.25313 M 99.65877 194.31594 L 103.9103 194.31594 "/>
<path transform="matrix(1,0,0,-1,.433,216.683)" stroke-width="1" stroke-linecap="butt" stroke-miterlimit="10" stroke-linejoin="miter" fill="none" stroke="#000000" d="M 0 101.78453 L 201.57656 101.78453 "/>
<path transform="matrix(1,0,0,-1,202.00955,114.89847)" d="M 1.99252 0 L -1.19551 1.59401 L 0 0 L -1.19551 -1.59401 "/>
<path transform="matrix(1,0,0,-1,.433,216.683)" stroke-width="1" stroke-linecap="butt" stroke-miterlimit="10" stroke-linejoin="miter" fill="none" stroke="#000000" d="M 101.78453 0 L 101.78453 201.57656 "/>
<path transform="matrix(0,-1,-1,-0,102.21753,15.106445)" d="M 1.99252 0 L -1.19551 1.59401 L 0 0 L -1.19551 -1.59401 "/>
<symbol id="font_0_1">
<path d="M .57600006 0 C .59300008 0 .611 0 .611 .019999996 C .611 .040000008 .59300008 .040000008 .57600006 .040000008 L .035000005 .040000008 C .018 .040000008 0 .040000008 0 .019999996 C 0 0 .018 0 .035000005 0 L .57600006 0 Z "/>
</symbol>
<use xlink:href="#font_0_1" transform="matrix(9.9626,0,0,-9.9626,4.147896,124.67359)"/>
<symbol id="font_1_3">
<path d="M .205 .64000007 C .205 .66400006 .205 .666 .18200003 .666 C .120000008 .60200008 .032000007 .60200008 0 .60200008 L 0 .57100006 C .020000004 .57100006 .07900001 .57100006 .13100001 .597 L .13100001 .079 C .13100001 .043 .128 .031000002 .038000004 .031000002 L .0060000049 .031000002 L .0060000049 0 C .04100001 .003 .128 .003 .168 .003 C .20800002 .003 .29500003 .003 .33000005 0 L .33000005 .031000002 L .29800005 .031000002 C .20800002 .031000002 .205 .042000005 .205 .079 L .205 .64000007 Z "/>
</symbol>
<use xlink:href="#font_1_3" transform="matrix(9.9626,0,0,-9.9626,11.955671,126.96499)"/>
<use xlink:href="#font_1_3" transform="matrix(9.9626,0,0,-9.9626,193.14168,126.96499)"/>
<use xlink:href="#font_0_1" transform="matrix(9.9626,0,0,-9.9626,84.66689,207.93361)"/>
<use xlink:href="#font_1_3" transform="matrix(9.9626,0,0,-9.9626,92.47567,210.225)"/>
<use xlink:href="#font_1_3" transform="matrix(9.9626,0,0,-9.9626,92.47567,25.580002)"/>
<path transform="matrix(1,0,0,-1,.433,216.683)" stroke-width="1" stroke-linecap="butt" stroke-dasharray="2.98883,2.98883" stroke-miterlimit="10" stroke-linejoin="miter" fill="none" stroke="#000000" d="M 194.31594 101.78453 C 194.31594 101.78453 192.88336 119.31422 191.16338 125.7335 C 189.4434 132.15279 185.2425 142.29497 181.9195 148.05023 C 178.5965 153.80551 171.91278 162.51419 167.21349 167.21349 C 162.51419 171.91278 153.80551 178.5965 148.05023 181.9195 C 142.29497 185.2425 132.15279 189.4434 125.7335 191.16338 C 119.31422 192.88336 108.43028 194.31594 101.78453 194.31594 C 95.1388 194.31594 84.25482 192.88336 77.83556 191.16338 C 71.41628 189.4434 61.27411 185.2425 55.51883 181.9195 C 49.76357 178.5965 41.05487 171.91278 36.35558 167.21349 C 31.65628 162.51419 24.97255 153.80551 21.64955 148.05023 C 18.32655 142.29497 14.12564 132.15279 12.40567 125.7335 C 10.6857 119.31422 9.25313 108.43028 9.25313 101.78453 C 9.25313 95.1388 10.6857 84.25482 12.40567 77.83556 C 14.12564 71.41628 18.32655 61.27411 21.64955 55.51883 C 24.97255 49.76357 31.65628 41.05487 36.35558 36.35558 C 41.05487 31.65628 49.76357 24.97255 55.51883 21.64955 C 61.27411 18.32655 71.41628 14.12564 77.83556 12.40567 C 84.25482 10.6857 95.1388 9.25313 101.78453 9.25313 C 108.43028 9.25313 119.31422 10.6857 125.7335 12.40567 C 132.15279 14.12564 142.29497 18.32655 148.05023 21.64955 C 153.80551 24.97255 162.51419 31.65628 167.21349 36.35558 C 171.91278 41.05487 178.5965 49.76357 181.9195 55.51883 C 185.2425 61.27411 189.4434 71.41628 191.16338 77.83556 C 192.88336 84.25482 194.31594 101.78453 194.31594 101.78453 "/>
<path transform="matrix(1,0,0,-1,.433,216.683)" stroke-width="1" stroke-linecap="butt" stroke-miterlimit="10" stroke-linejoin="miter" fill="none" stroke="#000080" d="M 172.66359 101.78453 L 172.66359 161.28223 "/>
<path transform="matrix(1,0,0,-1,.433,216.683)" stroke-width="1" stroke-linecap="butt" stroke-miterlimit="10" stroke-linejoin="miter" fill="none" stroke="#800000" d="M 101.78453 101.78453 L 172.66359 101.78453 "/>
<path transform="matrix(1,0,0,-1,.433,216.683)" stroke-width="1" stroke-linecap="butt" stroke-miterlimit="10" stroke-linejoin="miter" fill="none" stroke="#000000" d="M 115.66425 101.78453 C 115.66425 101.78453 115.66107 102.0761 115.65771 102.188 C 115.65434 102.29993 115.64641 102.47939 115.63995 102.59122 C 115.63348 102.70303 115.6208 102.8824 115.61108 102.994 C 115.60136 103.1056 115.58289 103.2843 115.56985 103.39554 C 115.55682 103.50676 115.5333 103.68488 115.51712 103.79572 C 115.50095 103.90656 115.47272 104.08412 115.45328 104.19446 C 115.43382 104.3048 115.39967 104.48134 115.37692 104.591 C 115.35419 104.70067 115.31512 104.87593 115.28935 104.9849 C 115.26357 105.09387 115.22006 105.26825 115.19107 105.37646 C 115.16208 105.48466 115.11249 105.65752 115.08032 105.7648 C 115.04816 105.8721 114.99428 106.04347 114.95915 106.14984 C 114.92401 106.25621 114.86533 106.42627 114.82701 106.53154 C 114.7887 106.6368 114.72435 106.80446 114.68294 106.9085 C 114.64153 107.01254 114.57274 107.17856 114.52846 107.28145 C 114.48418 107.38434 114.41103 107.54858 114.3637 107.6501 C 114.31638 107.75162 114.23763 107.91312 114.1873 108.01318 C 114.13696 108.11324 114.054 108.27264 114.0009 108.37128 C 113.9478 108.46991 113.86052 108.62706 113.80449 108.7241 C 113.74847 108.82114 113.65602 108.97536 113.59714 109.07068 C 113.53827 109.16599 113.44154 109.31755 113.38005 109.41115 C 113.31856 109.50475 113.21812 109.6536 113.15395 109.74538 C 113.08975 109.83714 112.98439 109.98283 112.91743 110.07266 C 112.85046 110.16249 112.74069 110.30501 112.67122 110.39285 C 112.60175 110.48068 112.41666 110.70584 112.41666 110.70584 "/>
<symbol id="font_2_1">
<path d="M .41300003 .511 C .41300003 .577 .395 .716 .293 .716 C .15400002 .716 0 .43400003 0 .20500002 C 0 .111 .029 0 .12 0 C .261 0 .41300003 .28700004 .41300003 .511 M .106 .374 C .123 .43800003 .143 .518 .183 .589 C .21000001 .638 .24700001 .694 .29200004 .694 C .34100003 .694 .34700004 .63 .34700004 .573 C .34700004 .524 .33900003 .47300003 .31500004 .374 L .106 .374 M .30600003 .34200005 C .29500003 .29600004 .27400003 .21100001 .23600003 .13900002 C .201 .071 .16300002 .022000002 .12 .022000002 C .087000008 .022000002 .066 .051000004 .066 .14400001 C .066 .18600002 .072000008 .24400002 .098 .34200005 L .30600003 .34200005 Z "/>
</symbol>
<use xlink:href="#font_2_1" transform="matrix(9.9626,0,0,-9.9626,120.033428,111.99158)"/>
<symbol id="font_1_8">
<path d="M .17500001 .20500002 C .197 .20100002 .279 .18500002 .279 .113000009 C .279 .062000004 .24400002 .022000002 .16600001 .022000002 C .082 .022000002 .046000005 .079 .027000003 .16400002 C .024000004 .17700002 .023000002 .18100001 .013000004 .18100001 C 0 .18100001 0 .17400001 0 .15600002 L 0 .024 C 0 .0070000009 0 0 .011000004 0 C .016000003 0 .017 .0010000002 .036000007 .020000002 C .038000004 .022000002 .038000004 .024 .056 .043 C .1 .0010000002 .14500001 0 .16600001 0 C .28100003 0 .32700003 .067 .32700003 .13900002 C .32700003 .19200002 .29700003 .22200002 .28500004 .23400001 C .25200004 .26600004 .213 .27400003 .171 .28200004 C .115 .293 .048 .30600003 .048 .36400003 C .048 .39900003 .07400001 .44000004 .16 .44000004 C .27 .44000004 .27500005 .35000003 .277 .31900005 C .27800004 .31000004 .28700004 .31000004 .28900004 .31000004 C .30200003 .31000004 .30200003 .31500004 .30200003 .33400003 L .30200003 .43500004 C .30200003 .45200003 .30200003 .45900003 .291 .45900003 C .286 .45900003 .284 .45900003 .27100004 .44700004 C .26800005 .44300003 .25800003 .43400003 .254 .43100003 C .21600002 .45900003 .17500001 .45900003 .16 .45900003 C .038000004 .45900003 0 .39200003 0 .33600004 C 0 .30100004 .016000003 .27300004 .043000007 .25100003 C .075 .22500003 .10300001 .21900001 .17500001 .20500002 Z "/>
</symbol>
<symbol id="font_1_5">
<path d="M .144 .44200004 L .0040000008 .43100003 L .0040000008 .4 C .069000009 .4 .07800001 .39400003 .07800001 .34500004 L .07800001 .076000008 C .07800001 .031000002 .067 .031000002 0 .031000002 L 0 0 C .032000007 .001 .086 .003 .11000001 .003 C .14500001 .003 .18 .001 .21400002 0 L .21400002 .031000002 C .148 .031000002 .144 .036000004 .144 .075 L .144 .44200004 M .148 .61600008 C .148 .648 .123 .669 .095000009 .669 C .064 .669 .042000005 .642 .042000005 .61600008 C .042000005 .58900007 .064 .563 .095000009 .563 C .123 .563 .148 .58400008 .148 .61600008 Z "/>
</symbol>
<symbol id="font_1_6">
<path d="M .07800001 .344 L .07800001 .076000008 C .07800001 .031000002 .067 .031000002 0 .031000002 L 0 0 C .035 .001 .08600001 .003 .113000009 .003 C .139 .003 .191 .001 .225 0 L .225 .031000002 C .158 .031000002 .147 .031000002 .147 .076000008 L .147 .26000003 C .147 .36400003 .218 .42000003 .282 .42000003 C .345 .42000003 .356 .36600004 .356 .30900003 L .356 .076000008 C .356 .031000002 .345 .031000002 .278 .031000002 L .278 0 C .31300003 .001 .36400003 .003 .391 .003 C .41700004 .003 .46900005 .001 .503 0 L .503 .031000002 C .451 .031000002 .42600004 .031000002 .425 .061000006 L .425 .252 C .425 .33800004 .425 .36900003 .39400003 .40500004 C .38000003 .42200003 .347 .44200004 .289 .44200004 C .216 .44200004 .169 .39900003 .141 .337 L .141 .44200004 L 0 .43100003 L 0 .4 C .07000001 .4 .07800001 .393 .07800001 .344 Z "/>
</symbol>
<symbol id="font_1_1">
<path d="M .23200003 .00999999 C .23200003 .012999982 .23200003 .014999986 .215 .03199999 C .09 .15799999 .058 .347 .058 .5 C .058 .674 .096 .84800007 .21900001 .97300007 C .23200003 .985 .23200003 .98700007 .23200003 .99 C .23200003 .99700006 .22800002 1 .222 1 C .21200001 1 .12200001 .93200007 .06299999 .805 C .012000002 .69500008 0 .584 0 .5 C 0 .422 .011 .301 .066 .188 C .126 .065 .21200001 0 .222 0 C .22800002 0 .23200003 .0029999912 .23200003 .00999999 Z "/>
</symbol>
<use xlink:href="#font_1_8" transform="matrix(0,9.9626,9.9626,0,177.34041,72.96677)" fill="#000080"/>
<use xlink:href="#font_1_5" transform="matrix(0,9.9626,9.9626,0,177.45,76.89203)" fill="#000080"/>
<use xlink:href="#font_1_6" transform="matrix(0,9.9626,9.9626,0,177.45,79.65167)" fill="#000080"/>
<use xlink:href="#font_1_1" transform="matrix(0,9.9626,9.9626,0,174.95935,85.85837)" fill="#000080"/>
<use xlink:href="#font_2_1" transform="matrix(0,9.9626,9.9626,0,177.34041,89.16342)" fill="#000080"/>
<symbol id="font_1_2">
<path d="M .232 .5 C .232 .578 .22100002 .699 .16600001 .81200006 C .106 .93500009 .020000004 1 .009999998 1 C .0040000008 1 0 .99600008 0 .99 C 0 .98700007 0 .985 .019000002 .967 C .117000009 .86800006 .174 .709 .174 .5 C .174 .329 .137 .153 .012999997 .026999996 C 0 .014999986 0 .012999982 0 .00999999 C 0 .003999993 .0040000008 0 .009999998 0 C .020000004 0 .11000001 .06799999 .169 .195 C .22 .305 .232 .416 .232 .5 Z "/>
</symbol>
<use xlink:href="#font_1_2" transform="matrix(0,9.9626,9.9626,0,174.95935,94.26587)" fill="#000080"/>
<symbol id="font_1_4">
<path d="M .083000008 .22900002 C .083000008 .39200003 .16500002 .43400003 .218 .43400003 C .227 .43400003 .29 .43300004 .32500003 .397 C .284 .39400003 .278 .36400003 .278 .351 C .278 .32500003 .296 .305 .324 .305 C .35 .305 .37 .32200004 .37 .35200004 C .37 .42000003 .294 .45900003 .21700001 .45900003 C .092 .45900003 0 .351 0 .22700002 C 0 .09900001 .099 0 .215 0 C .349 0 .381 .120000008 .381 .13000001 C .381 .14000002 .37100003 .14000002 .368 .14000002 C .359 .14000002 .35700003 .136 .35500003 .13000001 C .326 .037 .261 .025000003 .224 .025000003 C .171 .025000003 .083000008 .068 .083000008 .22900002 Z "/>
</symbol>
<symbol id="font_1_7">
<path d="M .44300003 .22500003 C .44300003 .35300002 .34300003 .45900003 .222 .45900003 C .097 .45900003 0 .35000003 0 .22500003 C 0 .096 .104 0 .22100002 0 C .342 0 .44300003 .098000008 .44300003 .22500003 M .222 .025000003 C .17900002 .025000003 .135 .046 .10800001 .092 C .083000008 .136 .083000008 .19700001 .083000008 .23300003 C .083000008 .272 .083000008 .32600004 .10700001 .37000004 C .134 .41600005 .18100001 .43700005 .22100002 .43700005 C .26500003 .43700005 .30800004 .41500003 .33400003 .37200005 C .36 .32900004 .36 .27100004 .36 .23300003 C .36 .19700001 .36 .143 .33800004 .09900001 C .316 .054 .272 .025000003 .222 .025000003 Z "/>
</symbol>
<use xlink:href="#font_1_4" transform="matrix(9.9626,0,0,-9.9626,124.972728,126.00058)" fill="#800000"/>
<use xlink:href="#font_1_7" transform="matrix(9.9626,0,0,-9.9626,129.33635,126.00058)" fill="#800000"/>
<use xlink:href="#font_1_8" transform="matrix(9.9626,0,0,-9.9626,134.36746,126.00058)" fill="#800000"/>
<use xlink:href="#font_1_1" transform="matrix(9.9626,0,0,-9.9626,138.95026,128.38164)" fill="#800000"/>
<use xlink:href="#font_2_1" transform="matrix(9.9626,0,0,-9.9626,142.26541,126.00058)" fill="#800000"/>
<use xlink:href="#font_1_2" transform="matrix(9.9626,0,0,-9.9626,147.36887,128.38164)" fill="#800000"/>
<path transform="matrix(1,0,0,-1,.433,216.683)" stroke-width="1.59404" stroke-linecap="butt" stroke-miterlimit="10" stroke-linejoin="miter" fill="none" stroke="#800080" d="M 101.78453 101.78453 L 169.75048 158.83672 "/>
<path transform="matrix(.76949,-.64597,-.64597,-.76949,170.18346,57.846284)" d="M 3.78581 0 L -2.27148 3.02866 L 0 0 L -2.27148 -3.02866 " fill="#800080"/>
<symbol id="font_2_2">
<path d="M .305 .31300003 C .311 .33900003 .334 .43100003 .404 .43100003 C .409 .43100003 .433 .43100003 .454 .418 C .426 .41300003 .40600003 .388 .40600003 .36400003 C .40600003 .34800003 .417 .32900004 .444 .32900004 C .46600003 .32900004 .498 .34700004 .498 .38700003 C .498 .43900005 .439 .45300005 .405 .45300005 C .347 .45300005 .312 .40000005 .3 .37700004 C .275 .44300003 .221 .45300005 .19200002 .45300005 C .08800001 .45300005 .031000002 .32400004 .031000002 .29900003 C .031000002 .28900004 .041 .28900004 .043000007 .28900004 C .051000008 .28900004 .054000006 .291 .056 .3 C .09 .40600003 .156 .43100003 .19000001 .43100003 C .209 .43100003 .244 .42200003 .244 .36400003 C .244 .33300004 .22700002 .26600004 .19000001 .126 C .17400001 .064 .13900002 .022000002 .095000009 .022000002 C .08900001 .022000002 .06600001 .022000002 .045 .035 C .07000001 .040000004 .09200001 .061 .09200001 .089 C .09200001 .116000007 .07000001 .124000009 .055000009 .124000009 C .025 .124000009 0 .098000008 0 .06600001 C 0 .020000002 .050000006 0 .094000007 0 C .16000001 0 .19600001 .07000001 .19900002 .076000008 C .21100001 .039 .24700003 0 .307 0 C .41 0 .467 .12900001 .467 .15400002 C .467 .16400002 .458 .16400002 .455 .16400002 C .446 .16400002 .444 .16000001 .442 .15300001 C .409 .046 .341 .022000002 .30900003 .022000002 C .27 .022000002 .254 .054 .254 .08800001 C .254 .11000001 .26 .13200002 .271 .17600002 L .305 .31300003 Z "/>
</symbol>
<use xlink:href="#font_2_2" transform="matrix(9.9626,0,0,-9.9626,207.85391,117.13058)"/>
<symbol id="font_2_3">
<path d="M .45700003 .586 C .461 .6 .461 .602 .461 .609 C .461 .62700006 .447 .63600006 .432 .63600006 C .42200003 .63600006 .40600003 .63 .397 .615 C .395 .61 .387 .579 .38300003 .561 C .37600003 .535 .36900003 .508 .363 .48100005 L .318 .301 C .314 .286 .271 .21600002 .20500002 .21600002 C .15400002 .21600002 .143 .26000003 .143 .29700003 C .143 .34300003 .16000001 .40500004 .194 .49300004 C .21000001 .53400006 .21400002 .545 .21400002 .56500008 C .21400002 .61 .18200001 .6470001 .13200002 .6470001 C .037 .6470001 0 .50200006 0 .49300004 C 0 .48300005 .01 .48300005 .012 .48300005 C .022000002 .48300005 .023 .485 .028000003 .50100007 C .055000009 .595 .095000009 .625 .12900001 .625 C .13700001 .625 .15400002 .625 .15400002 .59300008 C .15400002 .568 .14400001 .54200008 .13700001 .523 C .097 .41700004 .079 .36 .079 .31300003 C .079 .224 .142 .194 .201 .194 C .24000003 .194 .274 .21100001 .30200003 .23900002 C .289 .187 .277 .13800001 .237 .08500001 C .21100001 .051 .17300001 .022 .127 .022 C .113000009 .022 .068 .025000006 .051000008 .06400001 C .067 .06400001 .080000009 .06400001 .094000007 .076000008 C .104 .08500001 .11400001 .098000008 .11400001 .117000009 C .11400001 .148 .087000008 .15200001 .07700001 .15200001 C .054000006 .15200001 .021 .136 .021 .087000008 C .021 .037 .065000008 0 .127 0 C .23 0 .333 .091000009 .361 .20400001 L .45700003 .586 Z "/>
</symbol>
<use xlink:href="#font_2_3" transform="matrix(9.9626,0,0,-9.9626,99.90791,9.652334)"/>
</svg>
