<?xml version="1.0" encoding="UTF-8" standalone="no"?>
<!DOCTYPE svg PUBLIC "-//W3C//DTD SVG 1.1//EN" "http://www.w3.org/Graphics/SVG/1.1/DTD/svg11.dtd">
<svg xmlns="http://www.w3.org/2000/svg" xmlns:xlink="http://www.w3.org/1999/xlink" version="1.1" width="193.222pt" height="179.738pt" viewBox="0 0 193.222 179.738">
<path transform="matrix(1,0,0,-1,20.243,173.362)" stroke-width="1" stroke-linecap="butt" stroke-miterlimit="10" stroke-linejoin="miter" fill="none" stroke="#bfbfbf" d="M 32.27835 0 L 32.27835 161.3918 M 64.55672 0 L 64.55672 161.3918 M 96.83507 0 L 96.83507 161.3918 M 129.11344 0 L 129.11344 161.3918 M 161.3918 0 L 161.3918 161.3918 "/>
<path transform="matrix(1,0,0,-1,20.243,173.362)" stroke-width="1" stroke-linecap="butt" stroke-miterlimit="10" stroke-linejoin="miter" fill="none" stroke="#bfbfbf" d="M 0 0 L 161.3918 0 M 0 64.55672 L 161.3918 64.55672 M 0 96.83507 L 161.3918 96.83507 M 0 129.11344 L 161.3918 129.11344 M 0 161.3918 L 161.3918 161.3918 "/>
<path transform="matrix(1,0,0,-1,20.243,173.362)" stroke-width="1" stroke-linecap="butt" stroke-miterlimit="10" stroke-linejoin="miter" fill="none" stroke="#808080" d="M 32.27835 30.15242 L 32.27835 34.40427 M 64.55672 30.15242 L 64.55672 34.40427 M 96.83507 30.15242 L 96.83507 34.40427 M 129.11344 30.15242 L 129.11344 34.40427 M 161.3918 30.15242 L 161.3918 34.40427 "/>
<path transform="matrix(1,0,0,-1,20.243,173.362)" stroke-width="1" stroke-linecap="butt" stroke-miterlimit="10" stroke-linejoin="miter" fill="none" stroke="#808080" d="M -2.12592 0 L 2.12592 0 M -2.12592 64.55672 L 2.12592 64.55672 M -2.12592 96.83507 L 2.12592 96.83507 M -2.12592 129.11344 L 2.12592 129.11344 M -2.12592 161.3918 L 2.12592 161.3918 "/>
<path transform="matrix(1,0,0,-1,20.243,173.362)" stroke-width="1" stroke-linecap="butt" stroke-miterlimit="10" stroke-linejoin="miter" fill="none" stroke="#000000" d="M 0 32.27835 L 159.39928 32.27835 "/>
<path transform="matrix(1,0,0,-1,179.64228,141.08365)" d="M 1.99252 0 L -1.19551 1.59401 L 0 0 L -1.19551 -1.59401 "/>
<path transform="matrix(1,0,0,-1,20.243,173.362)" stroke-width="1" stroke-linecap="butt" stroke-miterlimit="10" stroke-linejoin="miter" fill="none" stroke="#000000" d="M 0 0 L 0 159.39928 "/>
<path transform="matrix(0,-1,-1,-0,20.243,13.962723)" d="M 1.99252 0 L -1.19551 1.59401 L 0 0 L -1.19551 -1.59401 "/>
<symbol id="font_0_1">
<path d="M .21100003 .63900008 C .21100003 .66400006 .21000001 .666 .18500003 .666 C .123 .60200008 .031000004 .60200008 0 .60200008 L 0 .57100006 C .019000002 .57100006 .080000009 .57100006 .134 .597 L .134 .080000009 C .134 .043 .13100001 .031000002 .03800001 .031000002 L .0060000049 .031000002 L .0060000049 0 C .042000005 .003 .13100001 .003 .17200002 .003 C .21300003 .003 .30300004 .003 .33900003 0 L .33900003 .031000002 L .307 .031000002 C .21400002 .031000002 .21100003 .043 .21100003 .080000009 L .21100003 .63900008 Z "/>
</symbol>
<use xlink:href="#font_0_1" transform="matrix(8.9664,0,0,-8.9664,51.050878,152.259)"/>
<symbol id="font_0_2">
<path d="M .411 .177 L .38300003 .177 C .381 .164 .37300004 .105000007 .36 .089 C .35400004 .080000009 .28500004 .080000009 .26500003 .080000009 L .08700001 .080000009 L .18600002 .17400001 C .35000003 .316 .411 .36900003 .411 .47100003 C .411 .586 .316 .666 .19300002 .666 C .07800001 .666 0 .57500007 0 .48400004 C 0 .43400003 .043 .42900003 .052000006 .42900003 C .074 .42900003 .104 .44500003 .104 .48100005 C .104 .51100006 .083000008 .53300008 .052000006 .53300008 C .047000003 .53300008 .044000005 .53300008 .040000004 .532 C .063999999 .60300007 .128 .63500007 .18200001 .63500007 C .284 .63500007 .319 .54 .319 .47100003 C .319 .36900003 .24200002 .286 .194 .23400001 L .011 .036000004 C 0 .025 0 .023000002 0 0 L .38300003 0 L .411 .177 Z "/>
</symbol>
<use xlink:href="#font_0_2" transform="matrix(8.9664,0,0,-8.9664,82.95228,152.259)"/>
<symbol id="font_0_3">
<path d="M .262 .37400005 C .35500003 .40900005 .39900003 .48200003 .39900003 .55100008 C .39900003 .628 .314 .688 .21000003 .688 C .106000009 .688 .028 .62900009 .028 .55300006 C .028 .52000007 .05 .50100007 .07900001 .50100007 C .10800001 .50100007 .12900001 .522 .12900001 .55100008 C .12900001 .586 .105000007 .6010001 .07100001 .6010001 C .097 .64300009 .158 .66300007 .207 .66300007 C .29 .66300007 .306 .59700009 .306 .55 C .306 .52000007 .3 .47200004 .275 .43400005 C .244 .38900004 .209 .38700003 .18 .38500003 C .15500002 .38300006 .15300001 .38300006 .14500001 .38300006 C .136 .38200004 .128 .38100005 .128 .37000004 C .128 .35700003 .136 .35700003 .15300001 .35700003 L .20000002 .35700003 C .287 .35700003 .32500003 .28700004 .32500003 .192 C .32500003 .064 .257 .028 .20600002 .028 C .187 .028 .09 .033000005 .045000007 .107 C .081 .102000009 .10900001 .127 .10900001 .16100002 C .10900001 .194 .08400001 .215 .055000005 .215 C .030000005 .215 0 .2 0 .158 C 0 .069000009 .09300001 0 .209 0 C .334 0 .42700003 .09 .42700003 .192 C .42700003 .279 .358 .35300005 .262 .37400005 Z "/>
</symbol>
<use xlink:href="#font_0_3" transform="matrix(8.9664,0,0,-8.9664,115.15855,152.45627)"/>
<symbol id="font_0_4">
<path d="M 0 .19600001 L 0 .165 L .273 .165 L .273 .079 C .273 .042000005 .27 .031000002 .19500001 .031000002 L .17300001 .031000002 L .17300001 0 C .23600002 .003 .306 .003 .313 .003 C .318 .003 .39000003 .003 .453 0 L .453 .031000002 L .431 .031000002 C .356 .031000002 .35300002 .042000005 .35300002 .079 L .35300002 .165 L .455 .165 L .455 .19600001 L .35300002 .19600001 L .35300002 .65000006 C .35300002 .67 .35300002 .67700007 .334 .67700007 C .322 .67700007 .321 .67600008 .312 .66200008 L 0 .19600001 M .032000007 .19600001 L .279 .56600007 L .279 .19600001 L .032000007 .19600001 Z "/>
</symbol>
<use xlink:href="#font_0_4" transform="matrix(8.9664,0,0,-8.9664,147.31102,152.259)"/>
<symbol id="font_0_5">
<path d="M .053 .36700005 C .053 .34900005 .053 .33800004 .067 .33800004 C .075 .33800004 .07800001 .34200005 .08400001 .35100005 C .11400001 .39300005 .16200002 .41700004 .21400002 .41700004 C .321 .41700004 .321 .263 .321 .22700002 C .321 .19600001 .321 .134 .293 .089 C .266 .047000003 .224 .028 .18500002 .028 C .126 .028 .059000005 .065000008 .035 .13900002 C .036000004 .13900002 .042 .13700001 .049 .13700001 C .069000009 .13700001 .098000008 .15 .098000008 .186 C .098000008 .21700001 .076000008 .23500002 .049 .23500002 C .028 .23500002 0 .223 0 .18300002 C 0 .092 .076000008 0 .187 0 C .30800004 0 .411 .098000008 .411 .222 C .411 .34300003 .32500003 .44200004 .21600002 .44200004 C .16800002 .44200004 .119 .42600004 .08400001 .39000006 L .08400001 .587 C .11400001 .57800009 .14500001 .573 .17600002 .573 C .29900003 .573 .37100003 .66200008 .37100003 .6750001 C .37100003 .6840001 .365 .688 .36 .688 C .358 .688 .356 .688 .34700004 .683 C .3 .66400006 .254 .656 .21200001 .656 C .16900002 .656 .12400001 .66400006 .07800001 .683 C .068 .688 .066 .688 .065 .688 C .053 .688 .053 .67800006 .053 .6610001 L .053 .36700005 Z "/>
</symbol>
<use xlink:href="#font_0_5" transform="matrix(8.9664,0,0,-8.9664,179.78629,152.45627)"/>
<symbol id="font_1_1">
<path d="M .589 0 C .607 0 .626 0 .626 .022 C .626 .042999999 .606 .042999999 .589 .042999999 L .037 .042999999 C .020000004 .042999999 0 .042999999 0 .022 C 0 0 .019000002 0 .037 0 L .589 0 Z "/>
</symbol>
<use xlink:href="#font_1_1" transform="matrix(8.9664,0,0,-8.9664,3.8421097,173.7827)"/>
<use xlink:href="#font_0_1" transform="matrix(8.9664,0,0,-8.9664,11.072875,175.836)"/>
<use xlink:href="#font_0_1" transform="matrix(8.9664,0,0,-8.9664,11.072876,111.69501)"/>
<use xlink:href="#font_0_2" transform="matrix(8.9664,0,0,-8.9664,10.696287,79.41801)"/>
<use xlink:href="#font_0_3" transform="matrix(8.9664,0,0,-8.9664,10.624556,47.33726)"/>
<use xlink:href="#font_0_4" transform="matrix(8.9664,0,0,-8.9664,10.499026,14.8619999)"/>
<clipPath id="cp2">
<path transform="matrix(1,0,0,-1,20.243,173.362)" d="M 0 0 L 161.3918 0 L 161.3918 161.3918 L 0 161.3918 Z "/>
</clipPath>
<g clip-path="url(#cp2)">
<path transform="matrix(1,0,0,-1,20.243,173.362)" stroke-width="1.19553" stroke-linecap="butt" stroke-miterlimit="10" stroke-linejoin="miter" fill="none" stroke="#000080" d="M 129.11344 129.11344 L 97.84422 35.3058 "/>
<path transform="matrix(-.31654,.94962,.94962,.31654,118.087238,138.0562)" d="M 3.18808 0 L -1.91284 2.55046 L 0 0 L -1.91284 -2.55046 " fill="#000080"/>
<path transform="matrix(1,0,0,-1,20.243,173.362)" stroke-width="1.19553" stroke-linecap="butt" stroke-miterlimit="10" stroke-linejoin="miter" fill="none" stroke="#800000" d="M 129.11344 129.11344 L 35.30585 97.84422 "/>
<path transform="matrix(-.94963,.31654,.31654,.94963,55.54885,75.51776)" d="M 3.18808 0 L -1.91284 2.55046 L 0 0 L -1.91284 -2.55046 " fill="#800000"/>
<path transform="matrix(1,0,0,-1,20.243,173.362)" stroke-width="1.19553" stroke-linecap="butt" stroke-miterlimit="10" stroke-linejoin="miter" fill="none" stroke="#800080" d="M 96.83507 32.27835 L 34.53267 94.58076 "/>
<path transform="matrix(-.7071,-.7071,-.7071,.7071,54.77567,78.78124)" d="M 3.18808 0 L -1.91284 2.55046 L 0 0 L -1.91284 -2.55046 " fill="#800080"/>
<symbol id="font_3_1">
<path d="M 1.1610001 0 C 1.1840001 0 1.1990001 0 1.1990001 .031000004 C 1.1990001 .045 1.1990001 .054000006 1.182 .06199999 C 1.0430001 .124 .9710001 .20400001 .9130001 .29900003 C .906 .31199999 .90000006 .31199999 .87600007 .31199999 C .85700008 .31199999 .8370001 .31199999 .8370001 .28899998 C .8370001 .277 .87000009 .219 .9080001 .172 C .9430001 .129 .96800008 .107999999 1.0020001 .07900001 L .052999997 .07900001 C .038999998 .07900001 0 .07900001 0 .040000008 C 0 0 .037999996 0 .052999997 0 L 1.1610001 0 Z "/>
</symbol>
<use xlink:href="#font_3_1" transform="matrix(5.9776,0,0,-5.9776,137.04889,90.26473)" fill="#000080"/>
<symbol id="font_4_1">
<path d="M .45100004 .30400003 C .45100004 .39200003 .37900005 .45900003 .22500003 .45900003 C .16800002 .45900003 .040000008 .45700006 .040000008 .36500005 C .040000008 .32000003 .07400001 .29900003 .10500001 .29900003 C .139 .29900003 .17000002 .323 .17000002 .36400003 C .17000002 .39300005 .153 .41000004 .15 .41300003 C .16 .41500003 .18400002 .41900004 .22100002 .41900004 C .293 .41900004 .33400003 .38300003 .33400003 .30400003 L .33400003 .272 C .16800002 .272 0 .229 0 .118 C 0 .019000002 .125 0 .197 0 C .27300004 0 .32500003 .033 .35200004 .08 C .35200004 .054 .35200004 .006 .45900003 .006 L .508 .006 C .527 .006 .541 .006 .541 .031 C .541 .055000005 .52500006 .055000005 .51500007 .055000005 C .45100004 .056 .45100004 .066 .45100004 .09 L .45100004 .30400003 M .33400003 .14500001 C .33400003 .040000004 .21800003 .040000004 .21400002 .040000004 C .16300002 .040000004 .121000017 .073 .121000017 .118 C .121000017 .15100001 .139 .229 .33400003 .238 L .33400003 .14500001 Z "/>
</symbol>
<use xlink:href="#font_4_1" transform="matrix(8.9664,0,0,-8.9664,138.34889,97.3578)" fill="#000080"/>
<use xlink:href="#font_3_1" transform="matrix(5.9776,0,0,-5.9776,97.3549,47.837728)" fill="#800000"/>
<symbol id="font_4_2">
<path d="M .17900002 .7 L 0 .69200006 L 0 .643 C .060000004 .643 .068 .643 .068 .60400006 L .068 .006 L .11900001 .006 L .16600001 .063 C .19800002 .031 .24700001 0 .31800003 0 C .47400005 0 .57600006 .094000007 .57600006 .22800002 C .57600006 .36300005 .47900004 .45600004 .331 .45600004 C .25100003 .45600004 .19800002 .42200003 .17900002 .40800003 L .17900002 .7 M .185 .35200004 C .21000001 .38400004 .25800003 .41600005 .319 .41600005 C .44300003 .41600005 .44300003 .29600004 .44300003 .23 C .44300003 .18800001 .44300003 .136 .42200003 .1 C .389 .044000005 .328 .040000004 .308 .040000004 C .24599999 .040000004 .206 .078 .185 .11 L .185 .35200004 Z "/>
</symbol>
<use xlink:href="#font_4_2" transform="matrix(8.9664,0,0,-8.9664,98.35862,57.172803)" fill="#800000"/>
<use xlink:href="#font_3_1" transform="matrix(5.9776,0,0,-5.9776,73.7989,114.31073)" fill="#800080"/>
<symbol id="font_4_3">
<path d="M .453 .122 C .453 .138 .43800003 .138 .42700003 .138 C .407 .138 .407 .13700001 .39900003 .119 C .379 .071 .33400003 .043 .275 .043 C .133 .043 .133 .187 .133 .23200001 C .133 .29200004 .134 .41600005 .26500003 .41600005 C .272 .41600005 .326 .41500003 .326 .41000004 C .326 .40900005 .324 .40600003 .323 .40500004 C .314 .39400003 .31 .37800003 .31 .36400003 C .31 .323 .34100003 .29900003 .37500004 .29900003 C .40600003 .29900003 .44000004 .32000003 .44000004 .36500005 C .44000004 .45900003 .3 .45900003 .261 .45900003 C .069000009 .45900003 0 .33700005 0 .22800002 C 0 .102 .09 0 .256 0 C .293 0 .342 .006 .384 .032 C .441 .067 .453 .119 .453 .122 Z "/>
</symbol>
<use xlink:href="#font_4_3" transform="matrix(8.9664,0,0,-8.9664,75.374698,121.4048)" fill="#800080"/>
</g>
<symbol id="font_5_1">
<path d="M .462 .41500003 C .425 .40800003 .41400004 .37600003 .41400004 .36100004 C .41400004 .34200005 .42800004 .32500003 .453 .32500003 C .48100005 .32500003 .508 .34900005 .508 .38400004 C .508 .43000005 .45800004 .45300005 .411 .45300005 C .351 .45300005 .316 .40000005 .30400003 .37900005 C .28500004 .42800004 .24100003 .45300005 .193 .45300005 C .086 .45300005 .028 .32500003 .028 .29900003 C .028 .29000003 .035000005 .28700004 .042000005 .28700004 C .051 .28700004 .054000006 .29200004 .056 .298 C .087000008 .397 .15300001 .42800004 .19100002 .42800004 C .22 .42800004 .24600002 .40900005 .24600002 .36200003 C .24600002 .32600004 .20300001 .16600001 .19000001 .11800001 C .18200001 .087000008 .15200001 .025000003 .097 .025000003 C .07700001 .025000003 .056 .032 .046000005 .038000004 C .07300001 .043 .093 .06600001 .093 .092 C .093 .117000009 .074 .128 .055 .128 C .026 .128 0 .10300001 0 .069000009 C 0 .020000002 .054000006 0 .096 0 C .15400002 0 .18800001 .048 .20300001 .075 C .22800002 .009000001 .287 0 .314 0 C .42200003 0 .479 .13000001 .479 .15400002 C .479 .15900001 .47600005 .16600001 .46600003 .16600001 C .455 .16600001 .45400004 .16200002 .44900004 .14700002 C .42700003 .075 .36900003 .025000003 .317 .025000003 C .28800003 .025000003 .261 .043 .261 .091000009 C .261 .113000009 .275 .16800002 .284 .20600002 C .28800003 .22400002 .31500004 .33200003 .317 .33900003 C .32900004 .37500004 .35900004 .42800004 .41000004 .42800004 C .42800004 .42800004 .44700004 .42500005 .462 .41500003 Z "/>
</symbol>
<use xlink:href="#font_5_1" transform="matrix(8.9664,0,0,-8.9664,185.196,143.10863)"/>
<symbol id="font_5_2">
<path d="M .47300003 .59000006 C .474 .595 .47599999 .6010001 .47599999 .607 C .47599999 .62 .467 .63600006 .44500003 .63600006 C .432 .63600006 .414 .628 .40600003 .609 C .405 .605 .395 .564 .389 .54200008 L .33900003 .342 C .331 .31300003 .331 .31100003 .329 .30200003 C .328 .298 .286 .21900001 .21400002 .21900001 C .15200001 .21900001 .15200001 .282 .15200001 .301 C .15200001 .34600003 .165 .39500005 .20800002 .507 C .216 .53000006 .22200002 .544 .22200002 .563 C .22200002 .612 .18500002 .6470001 .136 .6470001 C .040000008 .6470001 0 .505 0 .49300004 C 0 .48400004 .007000001 .48100005 .014 .48100005 C .025 .48100005 .026000003 .48700003 .030000003 .5 C .051000008 .574 .091000009 .62200006 .133 .62200006 C .157 .62200006 .157 .60300007 .157 .589 C .157 .572 .15300001 .554 .14400001 .53000006 C .097 .40600003 .08400001 .36400003 .08400001 .316 C .08400001 .20500002 .17400001 .194 .21100001 .194 C .26 .194 .295 .22000002 .313 .238 C .3 .187 .289 .14200002 .25 .09200001 C .22000002 .052 .18 .025000006 .136 .025000006 C .10800001 .025000006 .075 .03500001 .061000006 .06300001 C .11400001 .06300001 .12100001 .10700001 .12100001 .117000009 C .12100001 .13900002 .105000007 .15300001 .083000008 .15300001 C .059000009 .15300001 .027 .134 .027 .08800001 C .027 .036 .07300001 0 .136 0 C .23800002 0 .347 .087000008 .37600003 .20400001 L .47300003 .59000006 Z "/>
</symbol>
<use xlink:href="#font_5_2" transform="matrix(8.9664,0,0,-8.9664,18.073025,8.770119)"/>
</svg>
