<?xml version="1.0" encoding="UTF-8" standalone="no"?>
<!DOCTYPE svg PUBLIC "-//W3C//DTD SVG 1.1//EN" "http://www.w3.org/Graphics/SVG/1.1/DTD/svg11.dtd">
<svg xmlns="http://www.w3.org/2000/svg" xmlns:xlink="http://www.w3.org/1999/xlink" version="1.1" width="100.01pt" height="78.351pt" viewBox="0 0 100.01 78.351">
<path transform="matrix(1,0,0,-1,42.918,42.918)" d="M -14.17339 0 L 14.17339 0 L 28.3468 -28.3468 L -28.3468 -28.3468 Z " fill="#d9d9d9"/>
<path transform="matrix(1,0,0,-1,42.918,42.918)" stroke-width="1" stroke-linecap="butt" stroke-miterlimit="10" stroke-linejoin="miter" fill="none" stroke="#000000" d="M -14.17339 0 L 14.17339 0 L 28.3468 -28.3468 L -28.3468 -28.3468 Z "/>
<symbol id="font_0_2">
<path d="M .39900003 .223 C .39900003 .34200005 .317 .44200004 .209 .44200004 C .16100002 .44200004 .118000019 .42600004 .082 .39100004 L .082 .586 C .10200001 .58000007 .135 .573 .16700001 .573 C .29 .573 .36 .66400006 .36 .67700007 C .36 .683 .357 .688 .35 .688 C .349 .688 .347 .688 .342 .68500009 C .322 .67600008 .273 .656 .20600002 .656 C .16600001 .656 .120000008 .66300007 .073 .6840001 C .065 .68700006 .06300001 .68700006 .061000009 .68700006 C .051000004 .68700006 .051000004 .679 .051000004 .66300007 L .051000004 .36700005 C .051000004 .34900005 .051000004 .34100003 .065 .34100003 C .07200001 .34100003 .074 .34400005 .07800001 .35000003 C .08900002 .36600004 .12600002 .42000006 .207 .42000006 C .259 .42000006 .284 .37400005 .292 .35600005 C .308 .31900005 .31 .28000004 .31 .23 C .31 .19500001 .31 .135 .286 .093 C .262 .054000006 .22500001 .028 .17900002 .028 C .106000009 .028 .049000008 .08100001 .032 .14000002 C .035 .13900002 .038000008 .13800001 .049000008 .13800001 C .082 .13800001 .09900001 .163 .09900001 .187 C .09900001 .21100001 .082 .23600002 .049000008 .23600002 C .035 .23600002 0 .22900002 0 .18300002 C 0 .097 .069000009 0 .18100001 0 C .297 0 .39900003 .096 .39900003 .223 Z "/>
</symbol>
<symbol id="font_0_1">
<path d="M .421 .34200005 C .421 .42200003 .416 .50200006 .381 .57600006 C .335 .67200008 .25300003 .688 .211 .688 C .15100001 .688 .07800001 .66200008 .037000006 .56900009 C .0050000029 .5 0 .42200003 0 .34200005 C 0 .26700003 .0040000008 .177 .045000007 .101 C .088 .020000002 .161 0 .21000001 0 C .264 0 .34 .021000002 .384 .116000007 C .416 .185 .421 .263 .421 .34200005 M .21000001 .022000002 C .171 .022000002 .112 .047000003 .094 .143 C .083000008 .20300001 .083000008 .29500003 .083000008 .35400004 C .083000008 .41800005 .083000008 .48400004 .091000009 .53800007 C .11 .65700009 .185 .66600009 .21000001 .66600009 C .243 .66600009 .30900003 .64800009 .328 .549 C .338 .49300004 .338 .41700004 .338 .35400004 C .338 .279 .338 .21100001 .32700003 .147 C .312 .052 .255 .022000002 .21000001 .022000002 Z "/>
</symbol>
<symbol id="font_0_4">
<path d="M .144 .694 L 0 .683 L 0 .652 C .07000001 .652 .07800001 .64500007 .07800001 .596 L .07800001 .076000008 C .07800001 .031000002 .067 .031000002 0 .031000002 L 0 0 C .033 .001 .086 .003 .11100001 .003 C .136 .003 .185 .001 .22200004 0 L .22200004 .031000002 C .155 .031000002 .144 .031000002 .144 .076000008 L .144 .694 Z "/>
</symbol>
<symbol id="font_0_3">
<path d="M .14400001 .388 L .14400001 .705 L 0 .694 L 0 .663 C .07000001 .663 .07800001 .656 .07800001 .607 L .07800001 .011000001 L .103000018 .011000001 C .104 .012000001 .112 .026 .13900002 .07300001 C .15400002 .05 .19600001 0 .27 0 C .38900004 0 .49300004 .098000008 .49300004 .22700002 C .49300004 .35400004 .395 .45300005 .28100003 .45300005 C .20300001 .45300005 .16000001 .40600003 .14400001 .388 M .14700002 .12500002 L .14700002 .33100004 C .14700002 .35000003 .14700002 .351 .158 .367 C .19700001 .42300005 .252 .43100003 .27600003 .43100003 C .321 .43100003 .35700003 .40500004 .381 .367 C .40700004 .32600004 .41000004 .26900003 .41000004 .22800002 C .41000004 .19100002 .40800003 .13100001 .379 .086 C .358 .055000005 .32000003 .022000002 .266 .022000002 C .22100002 .022000002 .18500002 .046 .16100002 .083000008 C .14700002 .104 .14700002 .107 .14700002 .12500002 Z "/>
</symbol>
<use xlink:href="#font_0_2" transform="matrix(9.9626,0,0,-9.9626,33.454133,60.769174)"/>
<use xlink:href="#font_0_1" transform="matrix(9.9626,0,0,-9.9626,38.325845,60.769174)"/>
<use xlink:href="#font_0_4" transform="matrix(9.9626,0,0,-9.9626,44.91112,60.549997)"/>
<use xlink:href="#font_0_3" transform="matrix(9.9626,0,0,-9.9626,47.630914,60.659585)"/>
<path transform="matrix(1,0,0,-1,42.918,42.918)" stroke-width="1" stroke-linecap="butt" stroke-miterlimit="10" stroke-linejoin="miter" fill="none" stroke="#000000" d="M -42.5202 42.5202 L 56.69362 42.5202 "/>
<clipPath id="cp1">
<path transform="matrix(1,0,0,-1,42.918,42.918)" d="M -42.5202 42.5202 L -42.5202 -35.43349 L 56.69362 -35.43349 L 56.69362 42.5202 Z M 56.69362 -35.43349 "/>
</clipPath>
<g clip-path="url(#cp1)">
<path transform="matrix(1,0,0,-1,42.918,42.918)" stroke-width="1" stroke-linecap="butt" stroke-miterlimit="10" stroke-linejoin="miter" fill="none" stroke="#000000" d="M 0 0 L -42.5202 73.64735 "/>
<path transform="matrix(1,0,0,-1,42.918,42.918)" stroke-width="1" stroke-linecap="butt" stroke-miterlimit="10" stroke-linejoin="miter" fill="none" stroke="#000000" d="M 0 0 L 60.1327 60.1327 "/>
<path transform="matrix(1,0,0,-1,42.918,42.918)" stroke-width="1" stroke-linecap="butt" stroke-dasharray="2.98883,2.98883" stroke-miterlimit="10" stroke-linejoin="miter" fill="none" stroke="#000000" d="M -42.5202 0 L 56.69362 0 "/>
<path transform="matrix(1,0,0,-1,42.918,42.918)" stroke-width="1" stroke-linecap="butt" stroke-miterlimit="10" stroke-linejoin="miter" fill="none" stroke="#000000" d="M 17.00824 0 C 17.00824 9.39351 9.39351 17.00824 0 17.00824 C -2.98477 17.00824 -5.91925 16.22186 -6.77307 15.72891 "/>
<path transform="matrix(-.86877,.50154,.50154,.86877,36.144929,27.189068)" d="M 1.99252 0 L -1.19551 1.59401 L 0 0 L -1.19551 -1.59401 "/>
<symbol id="font_2_2">
<path d="M .22600001 .63600006 C .22600001 .66300007 .224 .66400006 .19600001 .66400006 C .132 .601 .041 .6 0 .6 L 0 .564 C .023999997 .564 .09000001 .564 .14500001 .592 L .14500001 .082 C .14500001 .049000004 .14500001 .036000004 .04500001 .036000004 L .0069999995 .036000004 L .0069999995 0 C .024999999 .001 .148 .004 .185 .004 C .21600002 .004 .34200005 .001 .36400003 0 L .36400003 .036000004 L .32600004 .036000004 C .22600001 .036000004 .22600001 .049000004 .22600001 .082 L .22600001 .63600006 Z "/>
</symbol>
<symbol id="font_2_3">
<path d="M .442 .18200001 L .40800003 .18200001 C .40500004 .16000001 .39500005 .101 .38200004 .091000009 C .374 .085 .29700003 .085 .28300003 .085 L .099 .085 C .20400003 .178 .23900002 .20600002 .29900003 .25300003 C .37300004 .312 .442 .374 .442 .469 C .442 .59000006 .33600004 .66400006 .20800004 .66400006 C .084 .66400006 0 .577 0 .485 C 0 .43400003 .043000007 .42900003 .053000004 .42900003 C .077 .42900003 .10600001 .446 .10600001 .48200003 C .10600001 .5 .099 .535 .047000007 .535 C .078 .606 .146 .628 .19300002 .628 C .293 .628 .34500004 .55 .34500004 .469 C .34500004 .38200004 .28300003 .31300003 .25100003 .277 L .010000005 .039 C 0 .030000002 0 .028 0 0 L .41200004 0 L .442 .18200001 Z "/>
</symbol>
<symbol id="font_2_1">
<path d="M .46400006 .33900003 C .46400006 .44900004 .45100004 .528 .40500004 .598 C .374 .644 .31200005 .684 .23200001 .684 C 0 .684 0 .41100005 0 .33900003 C 0 .26700003 0 0 .23200001 0 C .46400006 0 .46400006 .26700003 .46400006 .33900003 M .23200001 .028 C .186 .028 .125 .055 .105000007 .13700001 C .091000009 .19600001 .091000009 .27800004 .091000009 .35200004 C .091000009 .42500005 .091000009 .50100007 .106000009 .556 C .127 .635 .19100002 .656 .23200001 .656 C .286 .656 .338 .623 .356 .565 C .37200005 .51100006 .37300004 .43900005 .37300004 .35200004 C .37300004 .27800004 .37300004 .20400001 .36 .141 C .34000004 .050000006 .272 .028 .23200001 .028 Z "/>
</symbol>
<use xlink:href="#font_2_2" transform="matrix(6.9738,0,0,-6.9738,59.61214,37.172998)"/>
<use xlink:href="#font_2_3" transform="matrix(6.9738,0,0,-6.9738,63.266416,37.172998)"/>
<use xlink:href="#font_2_1" transform="matrix(6.9738,0,0,-6.9738,67.164768,37.312475)"/>
<symbol id="font_3_1">
<path d="M .486 .243 C .486 .377 .37700004 .48600004 .24300003 .48600004 C .10900001 .48600004 0 .377 0 .243 C 0 .109000008 .10900001 0 .24300003 0 C .37700004 0 .486 .109000008 .486 .243 M .24300003 .056 C .14000002 .056 .05600001 .14 .05600001 .243 C .05600001 .34600003 .14000002 .43 .24300003 .43 C .34600003 .43 .43 .34600003 .43 .243 C .43 .14 .34600003 .056 .24300003 .056 Z "/>
</symbol>
<use xlink:href="#font_3_1" transform="matrix(4.9813,0,0,-4.9813,71.38866,33.633127)"/>
<path transform="matrix(1,0,0,-1,42.918,42.918)" stroke-width="1" stroke-linecap="butt" stroke-miterlimit="10" stroke-linejoin="miter" fill="none" stroke="#000000" d="M 42.5202 0 C 42.5202 11.27495 38.03886 22.09381 31.4753 28.65742 "/>
<path transform="matrix(-.70712,-.7071,-.7071,.70712,74.39331,14.26058)" d="M 1.99252 0 L -1.19551 1.59401 L 0 0 L -1.19551 -1.59401 "/>
<symbol id="font_2_4">
<path d="M .49000005 .164 L .49000005 .2 L .379 .2 L .379 .646 C .379 .66700008 .379 .674 .35700003 .674 C .345 .674 .34100003 .674 .331 .66 L 0 .2 L 0 .164 L .294 .164 L .294 .082 C .294 .048 .294 .036000004 .213 .036000004 L .186 .036000004 L .186 0 C .236 .002 .3 .004 .33600004 .004 C .37300004 .004 .437 .002 .48700003 0 L .48700003 .036000004 L .46 .036000004 C .379 .036000004 .379 .048 .379 .082 L .379 .164 L .49000005 .164 M .301 .56600007 L .301 .2 L .037000006 .2 L .301 .56600007 Z "/>
</symbol>
<symbol id="font_2_5">
<path d="M .092 .578 C .143 .565 .17300001 .565 .18900001 .565 C .321 .565 .39900003 .65500006 .39900003 .67 C .39900003 .681 .39200003 .684 .38700003 .684 C .38500003 .684 .38300003 .684 .37900005 .681 C .35500003 .672 .30200003 .652 .22800002 .652 C .20000002 .652 .14700002 .654 .08200001 .679 C .072000008 .684 .07 .684 .069 .684 C .056 .684 .056 .67300006 .056 .657 L .056 .36200003 C .056 .34500004 .056 .33300004 .072000008 .33300004 C .08100001 .33300004 .08200001 .33500005 .092 .34700004 C .13500002 .40200005 .19600001 .41000004 .231 .41000004 C .291 .41000004 .31800003 .36200003 .323 .35400004 C .34100003 .32100005 .34700004 .28300003 .34700004 .22500001 C .34700004 .19500001 .34700004 .136 .31700004 .09200001 C .29200004 .056 .24900002 .032 .20000002 .032 C .13500002 .032 .06800001 .068 .043000007 .134 C .08100001 .13100001 .1 .156 .1 .183 C .1 .22600001 .063 .23400001 .050000006 .23400001 C .048000009 .23400001 0 .23400001 0 .18 C 0 .09 .08200001 0 .20200002 0 C .33 0 .442 .095000009 .442 .221 C .442 .33400003 .35600005 .43800003 .23200003 .43800003 C .18800003 .43800003 .136 .42700003 .092 .38900004 L .092 .578 Z "/>
</symbol>
<use xlink:href="#font_2_4" transform="matrix(6.9738,0,0,-6.9738,86.421977,32.691999)"/>
<use xlink:href="#font_2_5" transform="matrix(6.9738,0,0,-6.9738,90.56441,32.831476)"/>
<use xlink:href="#font_3_1" transform="matrix(4.9813,0,0,-4.9813,94.71466,29.153128)"/>
</g>
</svg>
