<?xml version="1.0" encoding="UTF-8" standalone="no"?>
<!DOCTYPE svg PUBLIC "-//W3C//DTD SVG 1.1//EN" "http://www.w3.org/Graphics/SVG/1.1/DTD/svg11.dtd">
<svg xmlns="http://www.w3.org/2000/svg" xmlns:xlink="http://www.w3.org/1999/xlink" version="1.1" width="214.816pt" height="106.638pt" viewBox="0 0 214.816 106.638">
<path transform="matrix(1,0,0,-1,8.959,100.262)" stroke-width="1" stroke-linecap="butt" stroke-miterlimit="10" stroke-linejoin="miter" fill="none" stroke="#bfbfbf" d="M 0 0 L 0 88.30069 M 17.66013 0 L 17.66013 88.30069 M 35.32027 0 L 35.32027 88.30069 M 52.98041 0 L 52.98041 88.30069 M 70.64055 0 L 70.64055 88.30069 M 88.30069 0 L 88.30069 88.30069 M 105.96082 0 L 105.96082 88.30069 M 141.2811 0 L 141.2811 88.30069 M 158.94124 0 L 158.94124 88.30069 M 176.60138 0 L 176.60138 88.30069 M 194.26152 0 L 194.26152 88.30069 "/>
<path transform="matrix(1,0,0,-1,8.959,100.262)" stroke-width="1" stroke-linecap="butt" stroke-miterlimit="10" stroke-linejoin="miter" fill="none" stroke="#bfbfbf" d="M 0 0 L 194.26152 0 M 0 17.66013 L 194.26152 17.66013 M 0 35.32027 L 194.26152 35.32027 M 0 70.64055 L 194.26152 70.64055 M 0 88.30069 L 194.26152 88.30069 "/>
<path transform="matrix(1,0,0,-1,8.959,100.262)" stroke-width="1" stroke-linecap="butt" stroke-miterlimit="10" stroke-linejoin="miter" fill="none" stroke="#808080" d="M 0 50.85443 L 0 55.10637 M 17.66013 50.85443 L 17.66013 55.10637 M 35.32027 50.85443 L 35.32027 55.10637 M 52.98041 50.85443 L 52.98041 55.10637 M 70.64055 50.85443 L 70.64055 55.10637 M 88.30069 50.85443 L 88.30069 55.10637 M 105.96082 50.85443 L 105.96082 55.10637 M 141.2811 50.85443 L 141.2811 55.10637 M 158.94124 50.85443 L 158.94124 55.10637 M 176.60138 50.85443 L 176.60138 55.10637 M 194.26152 50.85443 L 194.26152 55.10637 "/>
<path transform="matrix(1,0,0,-1,8.959,100.262)" stroke-width="1" stroke-linecap="butt" stroke-miterlimit="10" stroke-linejoin="miter" fill="none" stroke="#808080" d="M 121.49498 0 L 125.74693 0 M 121.49498 17.66013 L 125.74693 17.66013 M 121.49498 35.32027 L 125.74693 35.32027 M 121.49498 70.64055 L 125.74693 70.64055 M 121.49498 88.30069 L 125.74693 88.30069 "/>
<path transform="matrix(1,0,0,-1,8.959,100.262)" stroke-width="1" stroke-linecap="butt" stroke-miterlimit="10" stroke-linejoin="miter" fill="none" stroke="#000000" d="M 0 52.98041 L 192.269 52.98041 "/>
<path transform="matrix(1,0,0,-1,201.228,47.28159)" d="M 1.99252 0 L -1.19551 1.59401 L 0 0 L -1.19551 -1.59401 "/>
<path transform="matrix(1,0,0,-1,8.959,100.262)" stroke-width="1" stroke-linecap="butt" stroke-miterlimit="10" stroke-linejoin="miter" fill="none" stroke="#000000" d="M 123.62096 0 L 123.62096 86.30817 "/>
<path transform="matrix(0,-1,-1,-0,132.57996,13.953835)" d="M 1.99252 0 L -1.19551 1.59401 L 0 0 L -1.19551 -1.59401 "/>
<symbol id="font_0_1">
<path d="M .589 0 C .607 0 .626 0 .626 .022 C .626 .042999999 .606 .042999999 .589 .042999999 L .037 .042999999 C .020000004 .042999999 0 .042999999 0 .022 C 0 0 .019000002 0 .037 0 L .589 0 Z "/>
</symbol>
<use xlink:href="#font_0_1" transform="matrix(8.9664,0,0,-8.9664,3.8421102,56.404695)"/>
<symbol id="font_1_7">
<path d="M .433 .632 C .442 .64300009 .442 .64500007 .442 .66600009 L .19299999 .66600009 C .067 .66600009 .064 .679 .061000006 .6980001 L .033 .6980001 L 0 .48900003 L .027999998 .48900003 C .031999999 .512 .04 .568 .053000004 .58000007 C .060000004 .586 .139 .586 .153 .586 L .363 .586 L .267 .45500005 C .137 .27600003 .125 .113000009 .125 .056 C .125 .045 .125 0 .171 0 C .218 0 .218 .044000005 .218 .057000005 L .218 .106000009 C .218 .25300003 .24000001 .36900003 .293 .44100005 L .433 .632 Z "/>
</symbol>
<use xlink:href="#font_1_7" transform="matrix(8.9664,0,0,-8.9664,10.750085,58.655263)"/>
<use xlink:href="#font_0_1" transform="matrix(8.9664,0,0,-8.9664,21.50211,56.404695)"/>
<symbol id="font_1_6">
<path d="M .091000009 .35300005 C .091000009 .45500005 .10200001 .512 .12900001 .56400009 C .149 .605 .19800002 .66300007 .272 .66300007 C .292 .66300007 .338 .65900006 .361 .623 C .324 .623 .308 .60400006 .308 .577 C .308 .55100008 .326 .531 .354 .531 C .382 .531 .40100003 .549 .40100003 .57900008 C .40100003 .63500007 .361 .688 .27 .688 C .14100002 .688 0 .56100007 0 .33800004 C 0 .067 .12200001 0 .216 0 C .327 0 .42700003 .093 .42700003 .22500001 C .42700003 .35200004 .335 .44800005 .22200002 .44800005 C .16200002 .44800005 .119 .41300006 .091000009 .35300005 M .21500002 .028 C .158 .028 .12500002 .075 .113000009 .104 C .09400001 .149 .09300001 .23200001 .09300001 .24800001 C .09300001 .31500004 .12400001 .42300005 .22000002 .42300005 C .23600002 .42300005 .285 .42300005 .317 .36100004 C .336 .32300005 .336 .27400003 .336 .22600001 C .336 .178 .336 .12900001 .317 .092 C .286 .035000005 .24200003 .028 .21500002 .028 Z "/>
</symbol>
<use xlink:href="#font_1_6" transform="matrix(8.9664,0,0,-8.9664,28.284556,58.655263)"/>
<use xlink:href="#font_0_1" transform="matrix(8.9664,0,0,-8.9664,39.16211,56.404695)"/>
<symbol id="font_1_5">
<path d="M .053 .36700005 C .053 .34900005 .053 .33800004 .067 .33800004 C .075 .33800004 .07800001 .34200005 .08400001 .35100005 C .11400001 .39300005 .16200002 .41700004 .21400002 .41700004 C .321 .41700004 .321 .263 .321 .22700002 C .321 .19600001 .321 .134 .293 .089 C .266 .047000003 .224 .028 .18500002 .028 C .126 .028 .059000005 .065000008 .035 .13900002 C .036000004 .13900002 .042 .13700001 .049 .13700001 C .069000009 .13700001 .098000008 .15 .098000008 .186 C .098000008 .21700001 .076000008 .23500002 .049 .23500002 C .028 .23500002 0 .223 0 .18300002 C 0 .092 .076000008 0 .187 0 C .30800004 0 .411 .098000008 .411 .222 C .411 .34300003 .32500003 .44200004 .21600002 .44200004 C .16800002 .44200004 .119 .42600004 .08400001 .39000006 L .08400001 .587 C .11400001 .57800009 .14500001 .573 .17600002 .573 C .29900003 .573 .37100003 .66200008 .37100003 .6750001 C .37100003 .6840001 .365 .688 .36 .688 C .358 .688 .356 .688 .34700004 .683 C .3 .66400006 .254 .656 .21200001 .656 C .16900002 .656 .12400001 .66400006 .07800001 .683 C .068 .688 .066 .688 .065 .688 C .053 .688 .053 .67800006 .053 .6610001 L .053 .36700005 Z "/>
</symbol>
<use xlink:href="#font_1_5" transform="matrix(8.9664,0,0,-8.9664,46.016286,58.655263)"/>
<use xlink:href="#font_0_1" transform="matrix(8.9664,0,0,-8.9664,56.82211,56.404695)"/>
<symbol id="font_1_4">
<path d="M 0 .19600001 L 0 .165 L .273 .165 L .273 .079 C .273 .042000005 .27 .031000002 .19500001 .031000002 L .17300001 .031000002 L .17300001 0 C .23600002 .003 .306 .003 .313 .003 C .318 .003 .39000003 .003 .453 0 L .453 .031000002 L .431 .031000002 C .356 .031000002 .35300002 .042000005 .35300002 .079 L .35300002 .165 L .455 .165 L .455 .19600001 L .35300002 .19600001 L .35300002 .65000006 C .35300002 .67 .35300002 .67700007 .334 .67700007 C .322 .67700007 .321 .67600008 .312 .66200008 L 0 .19600001 M .032000007 .19600001 L .279 .56600007 L .279 .19600001 L .032000007 .19600001 Z "/>
</symbol>
<use xlink:href="#font_1_4" transform="matrix(8.9664,0,0,-8.9664,63.479024,58.458)"/>
<use xlink:href="#font_0_1" transform="matrix(8.9664,0,0,-8.9664,74.48211,56.404695)"/>
<symbol id="font_1_3">
<path d="M .262 .37400005 C .35500003 .40900005 .39900003 .48200003 .39900003 .55100008 C .39900003 .628 .314 .688 .21000003 .688 C .106000009 .688 .028 .62900009 .028 .55300006 C .028 .52000007 .05 .50100007 .07900001 .50100007 C .10800001 .50100007 .12900001 .522 .12900001 .55100008 C .12900001 .586 .105000007 .6010001 .07100001 .6010001 C .097 .64300009 .158 .66300007 .207 .66300007 C .29 .66300007 .306 .59700009 .306 .55 C .306 .52000007 .3 .47200004 .275 .43400005 C .244 .38900004 .209 .38700003 .18 .38500003 C .15500002 .38300006 .15300001 .38300006 .14500001 .38300006 C .136 .38200004 .128 .38100005 .128 .37000004 C .128 .35700003 .136 .35700003 .15300001 .35700003 L .20000002 .35700003 C .287 .35700003 .32500003 .28700004 .32500003 .192 C .32500003 .064 .257 .028 .20600002 .028 C .187 .028 .09 .033000005 .045000007 .107 C .081 .102000009 .10900001 .127 .10900001 .16100002 C .10900001 .194 .08400001 .215 .055000005 .215 C .030000005 .215 0 .2 0 .158 C 0 .069000009 .09300001 0 .209 0 C .334 0 .42700003 .09 .42700003 .192 C .42700003 .279 .358 .35300005 .262 .37400005 Z "/>
</symbol>
<use xlink:href="#font_1_3" transform="matrix(8.9664,0,0,-8.9664,81.26455,58.655263)"/>
<use xlink:href="#font_0_1" transform="matrix(8.9664,0,0,-8.9664,92.14211,56.404695)"/>
<symbol id="font_1_2">
<path d="M .411 .177 L .38300003 .177 C .381 .164 .37300004 .105000007 .36 .089 C .35400004 .080000009 .28500004 .080000009 .26500003 .080000009 L .08700001 .080000009 L .18600002 .17400001 C .35000003 .316 .411 .36900003 .411 .47100003 C .411 .586 .316 .666 .19300002 .666 C .07800001 .666 0 .57500007 0 .48400004 C 0 .43400003 .043 .42900003 .052000006 .42900003 C .074 .42900003 .104 .44500003 .104 .48100005 C .104 .51100006 .083000008 .53300008 .052000006 .53300008 C .047000003 .53300008 .044000005 .53300008 .040000004 .532 C .063999999 .60300007 .128 .63500007 .18200001 .63500007 C .284 .63500007 .319 .54 .319 .47100003 C .319 .36900003 .24200002 .286 .194 .23400001 L .011 .036000004 C 0 .025 0 .023000002 0 0 L .38300003 0 L .411 .177 Z "/>
</symbol>
<use xlink:href="#font_1_2" transform="matrix(8.9664,0,0,-8.9664,98.995288,58.458)"/>
<use xlink:href="#font_0_1" transform="matrix(8.9664,0,0,-8.9664,109.80211,56.404695)"/>
<symbol id="font_1_1">
<path d="M .21100003 .63900008 C .21100003 .66400006 .21000001 .666 .18500003 .666 C .123 .60200008 .031000004 .60200008 0 .60200008 L 0 .57100006 C .019000002 .57100006 .080000009 .57100006 .134 .597 L .134 .080000009 C .134 .043 .13100001 .031000002 .03800001 .031000002 L .0060000049 .031000002 L .0060000049 0 C .042000005 .003 .13100001 .003 .17200002 .003 C .21300003 .003 .30300004 .003 .33900003 0 L .33900003 .031000002 L .307 .031000002 C .21400002 .031000002 .21100003 .043 .21100003 .080000009 L .21100003 .63900008 Z "/>
</symbol>
<use xlink:href="#font_1_1" transform="matrix(8.9664,0,0,-8.9664,117.031879,58.458)"/>
<use xlink:href="#font_1_1" transform="matrix(8.9664,0,0,-8.9664,148.76789,58.458)"/>
<use xlink:href="#font_1_2" transform="matrix(8.9664,0,0,-8.9664,166.05129,58.458)"/>
<use xlink:href="#font_1_3" transform="matrix(8.9664,0,0,-8.9664,183.63956,58.655263)"/>
<use xlink:href="#font_1_4" transform="matrix(8.9664,0,0,-8.9664,201.17403,58.458)"/>
<use xlink:href="#font_0_1" transform="matrix(8.9664,0,0,-8.9664,116.17811,100.68269)"/>
<use xlink:href="#font_1_3" transform="matrix(8.9664,0,0,-8.9664,122.95955,102.93326)"/>
<use xlink:href="#font_0_1" transform="matrix(8.9664,0,0,-8.9664,116.17811,83.0227)"/>
<use xlink:href="#font_1_2" transform="matrix(8.9664,0,0,-8.9664,123.03128,85.076007)"/>
<use xlink:href="#font_0_1" transform="matrix(8.9664,0,0,-8.9664,116.17811,65.36269)"/>
<use xlink:href="#font_1_1" transform="matrix(8.9664,0,0,-8.9664,123.407878,67.416)"/>
<use xlink:href="#font_1_1" transform="matrix(8.9664,0,0,-8.9664,123.407878,32.512)"/>
<use xlink:href="#font_1_2" transform="matrix(8.9664,0,0,-8.9664,123.03128,14.851997)"/>
<path transform="matrix(1,0,0,-1,8.959,100.262)" stroke-width="1.19553" stroke-linecap="butt" stroke-miterlimit="10" stroke-linejoin="miter" fill="none" stroke="#000080" d="M 123.62096 52.98041 L 173.57389 69.63144 "/>
<path transform="matrix(.94963,-.31653,-.31653,-.94963,182.53289,30.630585)" d="M 3.18808 0 L -1.91284 2.55046 L 0 0 L -1.91284 -2.55046 " fill="#000080"/>
<path transform="matrix(1,0,0,-1,8.959,100.262)" stroke-width="1.19553" stroke-linecap="butt" stroke-miterlimit="10" stroke-linejoin="miter" fill="none" stroke="#800000" d="M 123.62096 52.98041 L 20.68762 18.66924 "/>
<path transform="matrix(-.94963,.31653,.31653,.94963,29.64662,81.59275)" d="M 3.18808 0 L -1.91284 2.55046 L 0 0 L -1.91284 -2.55046 " fill="#800000"/>
<symbol id="font_2_1">
<path d="M 1.1610001 0 C 1.1840001 0 1.1990001 0 1.1990001 .031000004 C 1.1990001 .045 1.1990001 .054000006 1.182 .06199999 C 1.0430001 .124 .9710001 .20400001 .9130001 .29900003 C .906 .31199999 .90000006 .31199999 .87600007 .31199999 C .85700008 .31199999 .8370001 .31199999 .8370001 .28899998 C .8370001 .277 .87000009 .219 .9080001 .172 C .9430001 .129 .96800008 .107999999 1.0020001 .07900001 L .052999997 .07900001 C .038999998 .07900001 0 .07900001 0 .040000008 C 0 0 .037999996 0 .052999997 0 L 1.1610001 0 Z "/>
</symbol>
<use xlink:href="#font_2_1" transform="matrix(5.9776,0,0,-5.9776,155.4849,28.142725)" fill="#000080"/>
<symbol id="font_3_1">
<path d="M .495 .379 C .50200006 .393 .50500008 .4 .568 .4 L .568 .44900004 C .54 .446 .51500007 .446 .48700006 .446 C .45800004 .446 .42600004 .446 .397 .44900004 L .397 .4 C .425 .4 .43400003 .395 .44300003 .391 C .44200004 .38700003 .44200004 .38500003 .43700005 .377 L .31700004 .128 L .18600002 .4 L .238 .4 L .238 .44900004 C .172 .44700004 .15200001 .446 .11500001 .446 C .07900001 .446 .059000005 .446 0 .44900004 L 0 .4 L .06300001 .4 L .24200002 .028000003 C .25100003 .009000001 .259 0 .284 0 C .30900003 0 .31700004 .009000001 .326 .028000003 L .495 .379 Z "/>
</symbol>
<use xlink:href="#font_3_1" transform="matrix(8.9664,0,0,-8.9664,156.44606,35.22683)" fill="#000080"/>
<use xlink:href="#font_0_1" transform="matrix(8.9664,0,0,-8.9664,67.166118,75.43369)" fill="#800000"/>
<symbol id="font_4_1">
<path d="M .344 .38500003 C .301 .381 .29700003 .34700004 .29700003 .34000004 C .29700003 .323 .31 .31000004 .32900004 .31000004 C .35700003 .31000004 .37600003 .33300004 .37600003 .36600004 C .37600003 .41600005 .32700003 .45300005 .25300003 .45300005 C .119 .45300005 .081 .35300002 .081 .307 C .081 .26900003 .10000001 .24900002 .113000009 .23700002 C .133 .21800003 .16000001 .21200001 .19600001 .20500002 C .241 .19600001 .25100003 .19400002 .26900003 .18100001 C .28500004 .16900002 .294 .15300001 .294 .13200002 C .294 .106000009 .27 .025000003 .149 .025000003 C .126 .025000003 .056 .028 .034 .074 C .08400001 .074 .094 .11400001 .094 .128 C .094 .158 .067 .16400002 .056 .16400002 C .038000004 .16400002 0 .15000002 0 .098000008 C 0 .036000004 .063 0 .148 0 C .316 0 .35300002 .123 .35300002 .16600001 C .35300002 .20400001 .33200003 .22800002 .32000003 .24000003 C .294 .26700003 .26200003 .27300004 .227 .28000004 C .215 .28300003 .193 .28700004 .19000001 .28800003 C .157 .29500003 .139 .31500004 .139 .34000004 C .139 .351 .14600002 .38300003 .17400001 .40500004 C .20200002 .42700003 .24000001 .42800004 .25300003 .42800004 C .28800003 .42800004 .32900004 .41700004 .344 .38500003 Z "/>
</symbol>
<use xlink:href="#font_4_1" transform="matrix(8.9664,0,0,-8.9664,74.03822,77.58563)" fill="#800000"/>
<symbol id="font_0_2">
<path d="M .108 .054000006 C .108 .08299999 .085 .107999999 .053999999 .107999999 C .023000002 .107999999 0 .08299999 0 .054000006 C 0 .025000006 .023000002 0 .053999999 0 C .085 0 .108 .025000006 .108 .054000006 Z "/>
</symbol>
<use xlink:href="#font_0_2" transform="matrix(8.9664,0,0,-8.9664,80.69205,75.72062)" fill="#800000"/>
<use xlink:href="#font_2_1" transform="matrix(5.9776,0,0,-5.9776,85.07291,70.446727)" fill="#800000"/>
<use xlink:href="#font_3_1" transform="matrix(8.9664,0,0,-8.9664,86.03407,77.53183)" fill="#800000"/>
<symbol id="font_4_2">
<path d="M .462 .41500003 C .425 .40800003 .41400004 .37600003 .41400004 .36100004 C .41400004 .34200005 .42800004 .32500003 .453 .32500003 C .48100005 .32500003 .508 .34900005 .508 .38400004 C .508 .43000005 .45800004 .45300005 .411 .45300005 C .351 .45300005 .316 .40000005 .30400003 .37900005 C .28500004 .42800004 .24100003 .45300005 .193 .45300005 C .086 .45300005 .028 .32500003 .028 .29900003 C .028 .29000003 .035000005 .28700004 .042000005 .28700004 C .051 .28700004 .054000006 .29200004 .056 .298 C .087000008 .397 .15300001 .42800004 .19100002 .42800004 C .22 .42800004 .24600002 .40900005 .24600002 .36200003 C .24600002 .32600004 .20300001 .16600001 .19000001 .11800001 C .18200001 .087000008 .15200001 .025000003 .097 .025000003 C .07700001 .025000003 .056 .032 .046000005 .038000004 C .07300001 .043 .093 .06600001 .093 .092 C .093 .117000009 .074 .128 .055 .128 C .026 .128 0 .10300001 0 .069000009 C 0 .020000002 .054000006 0 .096 0 C .15400002 0 .18800001 .048 .20300001 .075 C .22800002 .009000001 .287 0 .314 0 C .42200003 0 .479 .13000001 .479 .15400002 C .479 .15900001 .47600005 .16600001 .46600003 .16600001 C .455 .16600001 .45400004 .16200002 .44900004 .14700002 C .42700003 .075 .36900003 .025000003 .317 .025000003 C .28800003 .025000003 .261 .043 .261 .091000009 C .261 .113000009 .275 .16800002 .284 .20600002 C .28800003 .22400002 .31500004 .33200003 .317 .33900003 C .32900004 .37500004 .35900004 .42800004 .41000004 .42800004 C .42800004 .42800004 .44700004 .42500005 .462 .41500003 Z "/>
</symbol>
<use xlink:href="#font_4_2" transform="matrix(8.9664,0,0,-8.9664,206.79,49.30263)"/>
<symbol id="font_4_3">
<path d="M .47300003 .59000006 C .474 .595 .47599999 .6010001 .47599999 .607 C .47599999 .62 .467 .63600006 .44500003 .63600006 C .432 .63600006 .414 .628 .40600003 .609 C .405 .605 .395 .564 .389 .54200008 L .33900003 .342 C .331 .31300003 .331 .31100003 .329 .30200003 C .328 .298 .286 .21900001 .21400002 .21900001 C .15200001 .21900001 .15200001 .282 .15200001 .301 C .15200001 .34600003 .165 .39500005 .20800002 .507 C .216 .53000006 .22200002 .544 .22200002 .563 C .22200002 .612 .18500002 .6470001 .136 .6470001 C .040000008 .6470001 0 .505 0 .49300004 C 0 .48400004 .007000001 .48100005 .014 .48100005 C .025 .48100005 .026000003 .48700003 .030000003 .5 C .051000008 .574 .091000009 .62200006 .133 .62200006 C .157 .62200006 .157 .60300007 .157 .589 C .157 .572 .15300001 .554 .14400001 .53000006 C .097 .40600003 .08400001 .36400003 .08400001 .316 C .08400001 .20500002 .17400001 .194 .21100001 .194 C .26 .194 .295 .22000002 .313 .238 C .3 .187 .289 .14200002 .25 .09200001 C .22000002 .052 .18 .025000006 .136 .025000006 C .10800001 .025000006 .075 .03500001 .061000006 .06300001 C .11400001 .06300001 .12100001 .10700001 .12100001 .117000009 C .12100001 .13900002 .105000007 .15300001 .083000008 .15300001 C .059000009 .15300001 .027 .134 .027 .08800001 C .027 .036 .07300001 0 .136 0 C .23800002 0 .347 .087000008 .37600003 .20400001 L .47300003 .59000006 Z "/>
</symbol>
<use xlink:href="#font_4_3" transform="matrix(8.9664,0,0,-8.9664,130.42504,8.770111)"/>
</svg>
