<?xml version="1.0" encoding="UTF-8" standalone="no"?>
<!DOCTYPE svg PUBLIC "-//W3C//DTD SVG 1.1//EN" "http://www.w3.org/Graphics/SVG/1.1/DTD/svg11.dtd">
<svg xmlns="http://www.w3.org/2000/svg" xmlns:xlink="http://www.w3.org/1999/xlink" version="1.1" width="191.041pt" height="92.279pt" viewBox="0 0 191.041 92.279">
<path transform="matrix(1,0,0,-1,7.317,92.08)" stroke-width="1" stroke-linecap="butt" stroke-miterlimit="10" stroke-linejoin="miter" fill="none" stroke="#808080" d="M 2.8966 37.37326 L 2.8966 41.6253 M 44.23921 37.37326 L 44.23921 41.6253 M 126.92441 37.37326 L 126.92441 41.6253 M 168.31967 37.37326 L 168.31967 41.6253 "/>
<path transform="matrix(1,0,0,-1,7.317,92.08)" stroke-width="1" stroke-linecap="butt" stroke-miterlimit="10" stroke-linejoin="miter" fill="none" stroke="#808080" d="M 83.45578 13.16643 L 87.70782 13.16643 M 83.45578 65.83215 L 87.70782 65.83215 "/>
<path transform="matrix(1,0,0,-1,7.317,92.08)" stroke-width="1" stroke-linecap="butt" stroke-miterlimit="10" stroke-linejoin="miter" fill="none" stroke="#000000" d="M 0 39.4993 L 169.1711 39.4993 "/>
<path transform="matrix(1,0,0,-1,176.4881,52.580705)" d="M 1.99252 0 L -1.19551 1.59401 L 0 0 L -1.19551 -1.59401 "/>
<path transform="matrix(1,0,0,-1,7.317,92.08)" stroke-width="1" stroke-linecap="butt" stroke-miterlimit="10" stroke-linejoin="miter" fill="none" stroke="#000000" d="M 85.5818 0 L 85.5818 77.00607 "/>
<path transform="matrix(0,-1,-1,-0,92.8988,15.073929)" d="M 1.99252 0 L -1.19551 1.59401 L 0 0 L -1.19551 -1.59401 "/>
<symbol id="font_0_1">
<path d="M .57600006 0 C .59300008 0 .611 0 .611 .019999996 C .611 .040000008 .59300008 .040000008 .57600006 .040000008 L .035000005 .040000008 C .018 .040000008 0 .040000008 0 .019999996 C 0 0 .018 0 .035000005 0 L .57600006 0 Z "/>
</symbol>
<use xlink:href="#font_0_1" transform="matrix(9.9626,0,0,-9.9626,4.147896,61.746606)"/>
<symbol id="font_1_1">
<path d="M .23800002 .38400004 L .351 .38400004 C .31800003 .23600002 .30900003 .19300002 .30900003 .126 C .30900003 .111 .30900003 .08400001 .317 .05 C .327 .0060000007 .338 0 .35300002 0 C .373 0 .39400003 .018000002 .39400003 .038000004 C .39400003 .044 .39400003 .046 .388 .060000004 C .359 .13200002 .359 .19700001 .359 .22500003 C .359 .27800004 .366 .33200003 .377 .38400004 L .491 .38400004 C .504 .38400004 .54 .38400004 .54 .418 C .54 .44200004 .519 .44200004 .5 .44200004 L .165 .44200004 C .143 .44200004 .105 .44200004 .061000006 .395 C .026000003 .35600005 0 .31000004 0 .305 C 0 .30400003 0 .29500003 .012 .29500003 C .020000002 .29500003 .022000002 .29900003 .028000003 .307 C .077 .38400004 .135 .38400004 .15500002 .38400004 L .21200001 .38400004 C .18000002 .263 .12600002 .14200002 .08400001 .051000004 C .076000008 .036000004 .076000008 .034 .076000008 .027000003 C .076000008 .008000001 .092 0 .105 0 C .135 0 .143 .028 .15500002 .065000008 C .16900002 .111 .16900002 .113000009 .18200001 .16300002 L .23800002 .38400004 Z "/>
</symbol>
<use xlink:href="#font_1_1" transform="matrix(9.9626,0,0,-9.9626,11.337991,64.14759)"/>
<use xlink:href="#font_0_1" transform="matrix(9.9626,0,0,-9.9626,40.507898,63.407609)"/>
<symbol id="font_1_2">
<path d="M .384 .962 C .38900004 .975 .38900004 .97900006 .38900004 .98 C .38900004 .99100008 .38000003 1 .36900003 1 C .36200003 1 .35500003 .99700006 .352 .99100008 L .004999999 .037999989 C 0 .024999991 0 .020999983 0 .019999996 C 0 .008999988 .009 0 .02 0 C .033000005 0 .036000004 .0069999846 .042 .023999989 L .384 .962 Z "/>
</symbol>
<use xlink:href="#font_1_1" transform="matrix(9.9626,0,0,-9.9626,47.69899,65.80859)"/>
<use xlink:href="#font_1_2" transform="matrix(9.9626,0,0,-9.9626,54.015279,68.18965)"/>
<symbol id="font_2_2">
<path d="M .07700001 .07700001 L .18300002 .18 C .33900003 .31800003 .39900003 .372 .39900003 .47200004 C .39900003 .586 .30900003 .666 .18700002 .666 C .074 .666 0 .574 0 .485 C 0 .42900003 .05 .42900003 .053000008 .42900003 C .07000001 .42900003 .105000007 .441 .105000007 .48200003 C .105000007 .508 .08700001 .53400006 .052000006 .53400006 C .044000005 .53400006 .042000008 .53400006 .039 .53300008 C .062000004 .59800007 .11600001 .63500007 .17400001 .63500007 C .26500003 .63500007 .308 .554 .308 .47200004 C .308 .39200003 .25800003 .31300003 .20300003 .25100003 L .011000004 .037 C 0 .026 0 .024 0 0 L .37100003 0 L .39900003 .17400001 L .374 .17400001 C .36900003 .14400001 .36200003 .1 .352 .085 C .345 .07700001 .279 .07700001 .257 .07700001 L .07700001 .07700001 Z "/>
</symbol>
<use xlink:href="#font_2_2" transform="matrix(9.9626,0,0,-9.9626,58.94613,65.699008)"/>
<use xlink:href="#font_1_1" transform="matrix(9.9626,0,0,-9.9626,126.50899,65.80859)"/>
<use xlink:href="#font_1_2" transform="matrix(9.9626,0,0,-9.9626,132.82529,68.18965)"/>
<use xlink:href="#font_2_2" transform="matrix(9.9626,0,0,-9.9626,137.75612,65.699008)"/>
<use xlink:href="#font_1_1" transform="matrix(9.9626,0,0,-9.9626,172.885,62.625597)"/>
<use xlink:href="#font_0_1" transform="matrix(9.9626,0,0,-9.9626,75.3479,79.4176)"/>
<symbol id="font_2_1">
<path d="M .205 .64000007 C .205 .66400006 .205 .666 .18200003 .666 C .120000008 .60200008 .032000007 .60200008 0 .60200008 L 0 .57100006 C .020000004 .57100006 .07900001 .57100006 .13100001 .597 L .13100001 .079 C .13100001 .043 .128 .031000002 .038000004 .031000002 L .0060000049 .031000002 L .0060000049 0 C .04100001 .003 .128 .003 .168 .003 C .20800002 .003 .29500003 .003 .33000005 0 L .33000005 .031000002 L .29800005 .031000002 C .20800002 .031000002 .205 .042000005 .205 .079 L .205 .64000007 Z "/>
</symbol>
<use xlink:href="#font_2_1" transform="matrix(9.9626,0,0,-9.9626,83.15668,81.709)"/>
<use xlink:href="#font_2_1" transform="matrix(9.9626,0,0,-9.9626,83.15668,29.459008)"/>
<clipPath id="cp3">
<path transform="matrix(1,0,0,-1,7.317,92.08)" d="M 0 0 L 171.16362 0 L 171.16362 78.9986 L 0 78.9986 Z "/>
</clipPath>
<g clip-path="url(#cp3)">
<path transform="matrix(1,0,0,-1,7.317,92.08)" stroke-width="1.19553" stroke-linecap="butt" stroke-miterlimit="10" stroke-linejoin="miter" fill="none" stroke="#000080" d="M 0 42.34772 C 0 42.34772 1.24915 41.10307 1.7289 40.62422 C 2.20866 40.14537 2.97804 39.37572 3.45781 38.89651 C 3.93756 38.41733 4.70695 37.64796 5.1867 37.17041 C 5.66647 36.69286 6.43587 35.92828 6.91563 35.45456 C 7.39539 34.98083 8.16478 34.22394 8.64453 33.75609 C 9.1243 33.28825 9.89368 32.5426 10.37344 32.08263 C 10.8532 31.62265 11.62259 30.89095 12.10234 30.44078 C 12.5821 29.99062 13.35152 29.27644 13.83127 28.83817 C 14.31104 28.39987 15.08041 27.70647 15.56018 27.28189 C 16.03993 26.85732 16.80933 26.18721 17.28908 25.77802 C 17.76884 25.36882 18.53824 24.72453 19.018 24.33261 C 19.49776 23.94069 20.26715 23.32619 20.7469 22.9533 C 21.22667 22.5804 21.99605 21.99742 22.47581 21.64507 C 22.95557 21.29272 23.72496 20.74403 24.20471 20.41376 C 24.68448 20.08348 25.45389 19.57147 25.93364 19.26457 C 26.4134 18.95769 27.18279 18.48378 27.66255 18.2018 C 28.1423 17.91982 28.9117 17.48792 29.39145 17.23221 C 29.87122 16.9765 30.64061 16.58746 31.12038 16.35875 C 31.60013 16.13004 32.36952 15.78453 32.84927 15.58377 C 33.32904 15.38301 34.09842 15.08328 34.57819 14.91176 C 35.05794 14.74023 35.82733 14.48921 36.30708 14.34746 C 36.78685 14.20569 37.55626 14.00162 38.03601 13.89005 C 38.51578 13.77846 39.28516 13.62395 39.76492 13.54324 C 40.24467 13.46252 41.01407 13.35788 41.49382 13.30835 C 41.97359 13.25882 42.74298 13.20425 43.22275 13.18617 C 43.7025 13.16809 44.4719 13.16457 44.95164 13.17801 C 45.43141 13.19145 46.20079 13.23843 46.68056 13.28307 C 47.16031 13.3277 47.9297 13.42392 48.40945 13.49979 C 48.88922 13.57567 49.65863 13.723 50.13838 13.83 C 50.61815 13.93701 51.38753 14.13371 51.8673 14.27107 C 52.34705 14.40845 53.11644 14.65306 53.59619 14.82013 C 54.07596 14.9872 54.84534 15.27913 55.3251 15.47528 C 55.80486 15.67143 56.57426 16.0094 57.05402 16.23395 C 57.53378 16.4585 58.30316 16.84172 58.78293 17.0937 C 59.26268 17.34569 60.03207 17.77203 60.51183 18.05011 C 60.9916 18.32819 61.76099 18.79489 62.24075 19.09789 C 62.72052 19.40088 63.4899 19.90717 63.96967 20.2339 C 64.44942 20.56064 65.21881 21.10371 65.69856 21.45284 C 66.17833 21.80197 66.94771 22.38031 67.42747 22.75027 C 67.90723 23.12022 68.67664 23.73029 69.15639 24.11931 C 69.63615 24.50835 70.40553 25.14755 70.8853 25.55418 C 71.36505 25.96082 72.13445 26.62767 72.6142 27.05017 C 73.09396 27.47266 73.86336 28.16293 74.34312 28.59932 C 74.82288 29.0357 75.59227 29.74689 76.07204 30.19536 C 76.55179 30.64383 77.32118 31.37302 77.80093 31.8317 C 78.2807 32.29036 79.0501 33.03433 79.52986 33.50119 C 80.00961 33.96803 80.779 34.72354 81.25876 35.19649 C 81.73853 35.66945 82.5079 36.43297 82.98767 36.90997 C 83.46742 37.38698 84.23683 38.1555 84.71658 38.6345 C 85.19635 39.11353 85.96573 39.88342 86.4455 40.36247 C 86.92525 40.84154 87.69464 41.61023 88.17441 42.08728 C 88.65416 42.56433 89.42357 43.32784 89.90332 43.80075 C 90.38309 44.27367 91.15247 45.0289 91.63223 45.4958 C 92.11198 45.9627 92.88138 46.70715 93.36113 47.16583 C 93.8409 47.62451 94.61028 48.3532 95.09004 48.80164 C 95.5698 49.25009 96.3392 49.96147 96.81895 50.39792 C 97.29872 50.83438 98.0681 51.52489 98.54787 51.94736 C 99.02762 52.36983 99.79701 53.0362 100.27678 53.44281 C 100.75653 53.84941 101.52594 54.48882 102.00569 54.87794 C 102.48546 55.26709 103.25484 55.87755 103.7346 56.24751 C 104.21436 56.61746 104.98375 57.19528 105.4635 57.5444 C 105.94327 57.89354 106.71266 58.43707 107.19243 58.76389 C 107.67218 59.09068 108.44157 59.59682 108.92133 59.89987 C 109.4011 60.20294 110.17047 60.67012 110.65024 60.9482 C 111.12999 61.22626 111.8994 61.65216 112.37917 61.90407 C 112.85892 62.15599 113.62831 62.53923 114.10806 62.76385 C 114.58783 62.98848 115.35721 63.32683 115.83698 63.52303 C 116.31673 63.71922 117.08612 64.01085 117.56587 64.17793 C 118.04564 64.345 118.81503 64.58986 119.2948 64.72722 C 119.77455 64.86458 120.54395 65.06105 121.0237 65.16803 C 121.50346 65.27501 122.27284 65.4223 122.75261 65.49825 C 123.23236 65.5742 124.00175 65.67079 124.48152 65.7155 C 124.96127 65.76021 125.73068 65.80713 126.21043 65.82056 C 126.6902 65.834 127.45958 65.83037 127.93935 65.8124 C 128.4191 65.79443 129.18849 65.74051 129.66825 65.69101 C 130.14801 65.64151 130.9174 65.53636 131.39717 65.4556 C 131.87693 65.37482 132.64632 65.22029 133.12607 65.1088 C 133.60584 64.99728 134.37522 64.7936 134.85498 64.6519 C 135.33473 64.51022 136.10413 64.25912 136.58388 64.0876 C 137.06365 63.91608 137.83306 63.6163 138.3128 63.41557 C 138.79257 63.21484 139.56195 62.86958 140.04172 62.64087 C 140.52147 62.41216 141.29087 62.02293 141.77062 61.76715 C 142.25038 61.51137 143.01978 61.07925 143.49954 60.79732 C 143.9793 60.51537 144.74869 60.04187 145.22844 59.73505 C 145.7082 59.42822 146.47759 58.91612 146.95735 58.58588 C 147.4371 58.25563 148.2065 57.70708 148.68625 57.35481 C 149.16602 57.00253 149.93543 56.41978 150.41518 56.04686 C 150.89495 55.67393 151.66432 55.05894 152.14409 54.66702 C 152.62384 54.2751 153.39324 53.63127 153.87299 53.22214 C 154.35276 52.813 155.12215 52.14291 155.60192 51.71826 C 156.08167 51.29361 156.85106 50.59981 157.33081 50.16145 C 157.81058 49.72311 158.57996 49.00894 159.05973 48.55885 C 159.53948 48.10876 160.30887 47.3775 160.78862 46.91753 C 161.26839 46.45753 162.0378 45.71146 162.51755 45.24355 C 162.99732 44.77562 163.7667 44.01877 164.24646 43.54507 C 164.72621 43.07138 165.4956 42.30698 165.97536 41.82948 C 166.45513 41.35199 167.22452 40.58278 167.70429 40.10362 C 168.18404 39.62445 168.95343 38.85477 169.43318 38.37593 C 169.91295 37.8971 171.1621 36.65244 171.1621 36.65244 "/>
</g>
<symbol id="font_1_3">
<path d="M .305 .31300003 C .311 .33900003 .334 .43100003 .404 .43100003 C .409 .43100003 .433 .43100003 .454 .418 C .426 .41300003 .40600003 .388 .40600003 .36400003 C .40600003 .34800003 .417 .32900004 .444 .32900004 C .46600003 .32900004 .498 .34700004 .498 .38700003 C .498 .43900005 .439 .45300005 .405 .45300005 C .347 .45300005 .312 .40000005 .3 .37700004 C .275 .44300003 .221 .45300005 .19200002 .45300005 C .08800001 .45300005 .031000002 .32400004 .031000002 .29900003 C .031000002 .28900004 .041 .28900004 .043000007 .28900004 C .051000008 .28900004 .054000006 .291 .056 .3 C .09 .40600003 .156 .43100003 .19000001 .43100003 C .209 .43100003 .244 .42200003 .244 .36400003 C .244 .33300004 .22700002 .26600004 .19000001 .126 C .17400001 .064 .13900002 .022000002 .095000009 .022000002 C .08900001 .022000002 .06600001 .022000002 .045 .035 C .07000001 .040000004 .09200001 .061 .09200001 .089 C .09200001 .116000007 .07000001 .124000009 .055000009 .124000009 C .025 .124000009 0 .098000008 0 .06600001 C 0 .020000002 .050000006 0 .094000007 0 C .16000001 0 .19600001 .07000001 .19900002 .076000008 C .21100001 .039 .24700003 0 .307 0 C .41 0 .467 .12900001 .467 .15400002 C .467 .16400002 .458 .16400002 .455 .16400002 C .446 .16400002 .444 .16000001 .442 .15300001 C .409 .046 .341 .022000002 .30900003 .022000002 C .27 .022000002 .254 .054 .254 .08800001 C .254 .11000001 .26 .13200002 .271 .17600002 L .305 .31300003 Z "/>
</symbol>
<use xlink:href="#font_1_3" transform="matrix(9.9626,0,0,-9.9626,182.31592,54.828596)"/>
<symbol id="font_1_4">
<path d="M .45700003 .586 C .461 .6 .461 .602 .461 .609 C .461 .62700006 .447 .63600006 .432 .63600006 C .42200003 .63600006 .40600003 .63 .397 .615 C .395 .61 .387 .579 .38300003 .561 C .37600003 .535 .36900003 .508 .363 .48100005 L .318 .301 C .314 .286 .271 .21600002 .20500002 .21600002 C .15400002 .21600002 .143 .26000003 .143 .29700003 C .143 .34300003 .16000001 .40500004 .194 .49300004 C .21000001 .53400006 .21400002 .545 .21400002 .56500008 C .21400002 .61 .18200001 .6470001 .13200002 .6470001 C .037 .6470001 0 .50200006 0 .49300004 C 0 .48300005 .01 .48300005 .012 .48300005 C .022000002 .48300005 .023 .485 .028000003 .50100007 C .055000009 .595 .095000009 .625 .12900001 .625 C .13700001 .625 .15400002 .625 .15400002 .59300008 C .15400002 .568 .14400001 .54200008 .13700001 .523 C .097 .41700004 .079 .36 .079 .31300003 C .079 .224 .142 .194 .201 .194 C .24000003 .194 .274 .21100001 .30200003 .23900002 C .289 .187 .277 .13800001 .237 .08500001 C .21100001 .051 .17300001 .022 .127 .022 C .113000009 .022 .068 .025000006 .051000008 .06400001 C .067 .06400001 .080000009 .06400001 .094000007 .076000008 C .104 .08500001 .11400001 .098000008 .11400001 .117000009 C .11400001 .148 .087000008 .15200001 .07700001 .15200001 C .054000006 .15200001 .021 .136 .021 .087000008 C .021 .037 .065000008 0 .127 0 C .23 0 .333 .091000009 .361 .20400001 L .45700003 .586 Z "/>
</symbol>
<use xlink:href="#font_1_4" transform="matrix(9.9626,0,0,-9.9626,90.584918,9.652334)"/>
</svg>
