<?xml version="1.0" encoding="UTF-8" standalone="no"?>
<!DOCTYPE svg PUBLIC "-//W3C//DTD SVG 1.1//EN" "http://www.w3.org/Graphics/SVG/1.1/DTD/svg11.dtd">
<svg xmlns="http://www.w3.org/2000/svg" xmlns:xlink="http://www.w3.org/1999/xlink" version="1.1" width="194.257pt" height="161.44pt" viewBox="0 0 194.257 161.44">
<clipPath id="cp0">
<path transform="matrix(1,0,0,-1,179.762,127.324008)" d="M -179.76384 -13.2172 L -179.76384 117.58699 L -47.30627 127.32599 L 14.49553 106.4266 L 14.49553 -24.37758 L -117.96202 -34.11658 Z "/>
</clipPath>
<g clip-path="url(#cp0)">
<path transform="matrix(1,0,0,-1,179.762,127.324008)" stroke-width="1" stroke-linecap="butt" stroke-miterlimit="10" stroke-linejoin="miter" fill="none" stroke="#8080bf" d="M -82.63414 46.60469 L -25.62227 4.86719 "/>
<path transform="matrix(.8077,.59128,.59128,-.8077,154.13971,122.4568)" d="M 2.59026 0 L -1.55415 2.0722 L 0 0 L -1.55415 -2.0722 " fill="#8080bf"/>
<path transform="matrix(1,0,0,-1,179.762,127.324008)" stroke-width="1" stroke-linecap="butt" stroke-miterlimit="10" stroke-linejoin="miter" fill="none" stroke="#8080bf" d="M -82.63414 46.60469 L -59.25883 -6.45647 "/>
<path transform="matrix(.40321,.91531,.91531,-.40321,120.50316,133.78047)" d="M 2.59026 0 L -1.55415 2.0722 L 0 0 L -1.55415 -2.0722 " fill="#8080bf"/>
<path transform="matrix(1,0,0,-1,179.762,127.324008)" stroke-width="1" stroke-linecap="butt" stroke-miterlimit="10" stroke-linejoin="miter" fill="none" stroke="#8080bf" d="M -82.63414 46.60469 L -88.18697 34.2634 "/>
<path transform="matrix(-.41185,.91531,.91531,.41185,91.57502,93.06061)" d="M 2.59026 0 L -1.55415 2.0722 L 0 0 L -1.55415 -2.0722 " fill="#8080bf"/>
<path transform="matrix(1,0,0,-1,179.762,127.324008)" stroke-width="1" stroke-linecap="butt" stroke-miterlimit="10" stroke-linejoin="miter" fill="none" stroke="#8080bf" d="M -82.63414 46.60469 L -95.9583 84.96443 "/>
<path transform="matrix(-.32886,-.94678,-.94678,.32886,83.803699,42.35959)" d="M 2.59026 0 L -1.55415 2.0722 L 0 0 L -1.55415 -2.0722 " fill="#8080bf"/>
<path transform="matrix(1,0,0,-1,179.762,127.324008)" stroke-width="1" stroke-linecap="butt" stroke-miterlimit="10" stroke-linejoin="miter" fill="none" stroke="#8080bf" d="M -82.63414 46.60469 L -82.63414 103.47089 "/>
<path transform="matrix(0,-1,-1,-0,97.12785,23.853119)" d="M 2.59026 0 L -1.55415 2.0722 L 0 0 L -1.55415 -2.0722 " fill="#8080bf"/>
<path transform="matrix(1,0,0,-1,179.762,127.324008)" stroke-width="1" stroke-linecap="butt" stroke-miterlimit="10" stroke-linejoin="miter" fill="none" stroke="#8080bf" d="M -82.63414 46.60469 L -69.80183 67.81775 "/>
<path transform="matrix(.51874,-.85748,-.85748,-.51874,109.960147,59.50627)" d="M 2.59026 0 L -1.55415 2.0722 L 0 0 L -1.55415 -2.0722 " fill="#8080bf"/>
<path transform="matrix(1,0,0,-1,179.762,127.324008)" stroke-width="1" stroke-linecap="butt" stroke-miterlimit="10" stroke-linejoin="miter" fill="none" stroke="#8080bf" d="M -82.63414 46.60469 L -76.49898 14.3796 "/>
<path transform="matrix(.18703,.98242,.98242,-.18703,103.26299,112.9444)" d="M 2.59026 0 L -1.55415 2.0722 L 0 0 L -1.55415 -2.0722 " fill="#8080bf"/>
<path transform="matrix(1,0,0,-1,179.762,127.324008)" stroke-width="1" stroke-linecap="butt" stroke-miterlimit="10" stroke-linejoin="miter" fill="none" stroke="#8080bf" d="M -82.63414 46.60469 L -106.1078 -13.26901 "/>
<path transform="matrix(-.36525,.93166,.93166,.36525,73.654209,140.593)" d="M 2.59026 0 L -1.55415 2.0722 L 0 0 L -1.55415 -2.0722 " fill="#8080bf"/>
<path transform="matrix(1,0,0,-1,179.762,127.324008)" stroke-width="1" stroke-linecap="butt" stroke-miterlimit="10" stroke-linejoin="miter" fill="none" stroke="#8080bf" d="M -82.63414 46.60469 L -139.4975 13.45488 "/>
<path transform="matrix(-.86504,.50427,.50427,.86504,40.264497,113.8691)" d="M 2.59026 0 L -1.55415 2.0722 L 0 0 L -1.55415 -2.0722 " fill="#8080bf"/>
<path transform="matrix(1,0,0,-1,179.762,127.324008)" stroke-width="1.19553" stroke-linecap="butt" stroke-miterlimit="10" stroke-linejoin="miter" fill="none" stroke="#000080" d="M 45.97324 100.0248 C 45.97324 100.0248 47.16632 96.33826 47.5748 94.81107 C 47.98328 93.28387 48.5857 90.69449 48.91736 89.0178 C 49.24902 87.34113 49.71983 84.52893 49.96523 82.72667 C 50.21063 80.9244 50.53506 77.93011 50.68611 76.02826 C 50.83716 74.1264 51.00407 70.99367 51.0539 69.01938 C 51.10371 67.04507 51.10196 63.81734 51.04523 61.79889 C 50.9885 59.78046 50.81209 56.50531 50.64497 54.47182 C 50.47786 52.43832 50.12033 49.16185 49.84074 47.1428 C 49.56114 45.12375 49.02223 41.8956 48.62976 39.91983 C 48.2373 37.94406 47.51639 34.80742 47.01202 32.90282 C 46.50764 30.99823 45.60808 27.99828 44.99452 26.19281 C 44.38097 24.38733 43.30835 21.5709 42.58992 19.89015 C 41.87149 18.20941 40.63396 15.61134 39.81648 14.07909 C 38.99901 12.54684 37.60721 10.20801 36.69806 8.84668 C 35.7889 7.48534 34.2562 5.43878 33.2639 4.26741 C 32.2716 3.09604 30.612 1.36855 29.54628 .40416 C 28.48056 -.56023 26.71107 -1.93993 25.58287 -2.6833 C 24.45467 -3.42668 22.59383 -4.44115 21.41496 -4.95364 C 20.23608 -5.46616 18.30334 -6.10265 17.08635 -6.37714 C 15.86935 -6.65161 13.88567 -6.89925 12.64369 -6.93199 C 11.40172 -6.96474 9.38846 -6.82219 8.13503 -6.61316 C 6.88159 -6.40413 4.86125 -5.87282 3.60976 -5.42538 C 2.35828 -4.97794 .35123 -4.0673 -.88484 -3.38823 C -2.12093 -2.70914 -4.09204 -1.43166 -5.29915 -.53098 C -6.50624 .36967 -8.41962 1.99458 -9.58476 3.10323 C -10.74991 4.21188 -12.58571 6.15921 -13.69676 7.45944 C -14.80782 8.75966 -16.54715 11.00156 -17.59248 12.4744 C -18.63782 13.94725 -20.26193 16.45113 -21.23088 18.07477 C -22.19981 19.6984 -23.69295 22.42632 -24.57599 24.17648 C -25.45901 25.92667 -26.80629 28.83795 -27.59525 30.68886 C -28.3842 32.53978 -29.57405 35.59189 -30.2622 37.51671 C -30.95035 39.44154 -31.97304 42.59126 -32.55501 44.56169 C -33.137 46.5321 -33.98502 49.73154 -34.45677 51.71822 C -34.92851 53.70491 -35.59583 56.90675 -35.95514 58.88042 C -36.31445 60.85408 -36.79999 64.0109 -37.04645 65.94301 C -37.29292 67.87512 -37.59708 70.94351 -37.73157 72.80582 C -37.86606 74.66814 -37.9907 77.60063 -38.0158 79.3654 C -38.04088 81.13017 -37.99245 83.88402 -37.91237 85.52513 C -37.8323 87.16624 -37.61821 89.70012 -37.43867 91.19342 C -37.25914 92.68672 -36.89012 94.96445 -36.61836 96.28787 C -36.34662 97.61131 -35.83533 99.5976 -35.48004 100.73192 C -35.12476 101.86624 -34.48672 103.53505 -34.0577 104.46336 C -33.62866 105.3917 -32.87994 106.71446 -32.38788 107.42264 C -31.89583 108.13083 -31.0546 109.08987 -30.51129 109.56757 C -29.96799 110.04526 -29.05415 110.62544 -28.47206 110.86554 C -27.88998 111.10564 -26.9238 111.29968 -26.31598 111.29814 C -25.70818 111.29662 -24.7113 111.09795 -24.09134 110.85439 C -23.47137 110.61082 -22.46632 110.02486 -21.84761 109.54263 C -21.22888 109.06041 -20.23584 108.09338 -19.63196 107.37885 C -19.02809 106.6643 -18.07076 105.32947 -17.49525 104.39272 C -16.91975 103.45598 -16.01837 101.77283 -15.48412 100.62738 C -14.94986 99.48192 -14.1253 97.47498 -13.6446 96.13701 C -13.16391 94.79906 -12.43498 92.49564 -12.01945 90.98428 C -11.60393 89.47295 -10.98927 86.90746 -10.64966 85.24425 C -10.31004 83.58105 -9.82597 80.78813 -9.57172 78.99706 C -9.31747 77.206 -8.97781 74.22855 -8.81714 72.3354 C -8.65646 70.44225 -8.47375 67.32086 -8.41368 65.35251 C -8.3536 63.38416 -8.33827 60.16417 -8.38412 58.1488 C -8.42998 56.13345 -8.58841 52.86029 -8.74422 50.82718 C -8.90002 48.79407 -9.23885 45.51715 -9.50714 43.49551 C -9.77544 41.47388 -10.29655 38.238 -10.67795 36.25659 C -11.05936 34.27518 -11.7626 31.1276 -12.2561 29.21486 C -12.7496 27.30214 -13.63184 24.2874 -14.23482 22.47093 C -14.83781 20.65446 -15.89377 17.81737 -16.60207 16.12296 C -17.31038 14.42854 -18.53192 11.80656 -19.33984 10.25879 C -20.14777 8.71101 -21.52457 6.34654 -22.4251 4.9676 C -23.32564 3.58867 -24.84576 1.5112 -25.83034 .32031 C -26.81491 -.87056 -28.46239 -2.63007 -29.52124 -3.6156 C -30.58011 -4.60114 -32.33943 -6.01662 -33.4619 -6.78271 C -34.58437 -7.54883 -36.43695 -8.60117 -37.6113 -9.13722 C -38.78564 -9.67326 -40.71214 -10.34778 -41.92584 -10.6463 C -43.13956 -10.94482 -45.11885 -11.23213 -46.35896 -11.28885 C -47.59906 -11.34557 -49.61069 -11.24054 -50.8637 -11.05515 C -52.1167 -10.86975 -54.13748 -10.37682 -55.38979 -9.95268 C -56.64209 -9.52855 -58.65132 -8.65501 -59.88948 -7.99826 C -61.12764 -7.34149 -63.10307 -6.09862 -64.31358 -5.21913 C -65.52411 -4.33966 -67.4442 -2.74825 -68.61409 -1.65953 C -69.784 -.57082 -71.62865 1.34554 -72.7455 2.62767 C -73.86237 3.9098 -75.61143 6.12471 -76.66368 7.58125 C -77.71591 9.03778 -79.35231 11.51598 -80.32933 13.12544 C -81.30635 14.73491 -82.81331 17.44254 -83.70534 19.18115 C -84.59738 20.91977 -85.95978 23.81401 -86.75858 25.65622 C -87.55739 27.49843 -88.7642 30.53976 -89.46265 32.45859 C -90.16109 34.37741 -91.19994 37.51846 -91.79251 39.4858 C -92.3851 41.45313 -93.25087 44.65123 -93.73361 46.63776 C -94.21635 48.6243 -94.9014 51.82715 -95.27185 53.80334 C -95.64232 55.77954 -96.14604 58.94339 -96.40363 60.88083 C -96.66121 62.81828 -96.98294 65.89684 -97.12836 67.76714 C -97.27376 69.63742 -97.41595 72.58534 -97.45163 74.36073 C -97.48732 76.13611 -97.45552 78.90842 -97.38556 80.56284 C -97.31558 82.21725 -97.11722 84.77562 -96.94728 86.2847 C -96.77734 87.7938 -96.42343 90.09772 -96.16066 91.43929 C -95.89787 92.78085 -95.40053 94.79974 -95.05324 95.95384 C -94.70595 97.10796 -94.07979 98.80817 -93.6576 99.75735 C -93.23538 100.70653 -92.49664 102.06439 -92.01024 102.79495 C -91.52383 103.52551 -90.69078 104.52197 -90.15192 105.02278 C -89.61305 105.5236 -88.7053 106.14076 -88.12645 106.4045 C -87.5476 106.66821 -86.5857 106.90115 -85.9799 106.92355 C -85.37411 106.94594 -84.37965 106.78583 -83.76035 106.56592 C -83.14102 106.34601 -82.13567 105.79733 -81.51631 105.33852 C -80.89697 104.87968 -79.90244 103.95084 -79.29646 103.25893 C -78.69048 102.56703 -77.72786 101.267 -77.14882 100.35173 C -76.56978 99.43646 -75.66208 97.7876 -75.12306 96.66232 C -74.58405 95.53703 -73.75046 93.56097 -73.2639 92.24141 C -72.77734 90.92186 -72.0387 88.64677 -71.61627 87.15182 C -71.19383 85.65688 -70.56677 83.11594 -70.21921 81.4668 C -69.87164 79.81766 -69.37425 77.04543 -69.11122 75.26591 C -68.8482 73.4864 -68.49371 70.52554 -68.32349 68.6412 C -68.15327 66.75688 -67.95468 63.64714 -67.88435 61.68488 C -67.81403 59.72263 -67.7814 56.51064 -67.8166 54.49861 C -67.85182 52.48659 -67.9932 49.21638 -68.13821 47.18358 C -68.28322 45.15077 -68.60466 41.87161 -68.8618 39.84752 C -69.11894 37.82344 -69.62158 34.58182 -69.99161 32.59534 C -70.36162 30.60884 -71.04636 27.451 -71.52872 25.53023 C -72.01108 23.60944 -72.87592 20.5791 -73.46814 18.75157 C -74.06036 16.92404 -75.09908 14.06625 -75.79716 12.35858 C -76.49525 10.65091 -77.70111 8.007 -78.49956 6.44382 C -79.298 4.88063 -80.66019 2.48865 -81.55194 1.09213 C -82.44371 -.30437 -83.95013 -2.41115 -84.92683 -3.62129 C -85.90353 -4.83142 -87.53935 -6.62334 -88.59135 -7.62975 C -89.64337 -8.63614 -91.3923 -10.0866 -92.50897 -10.8748 C -93.62563 -11.66301 -95.46982 -12.75139 -96.63953 -13.31062 C -97.80925 -13.86986 -99.7291 -14.58315 -100.93948 -14.90547 C -102.14989 -15.2278 -104.12524 -15.55304 -105.36333 -15.6338 C -106.60141 -15.71455 -108.61047 -15.64871 -109.86273 -15.4875 C -111.11499 -15.32631 -113.13585 -14.87231 -114.38881 -14.47188 C -115.64177 -14.07144 -117.65309 -13.23555 -118.89326 -12.60144 C -120.13344 -11.96735 -122.11339 -10.75974 -123.32722 -9.90166 C -124.54106 -9.0436 -126.46732 -7.4858 -127.64178 -6.41698 C -128.81624 -5.34816 -130.66928 -3.46213 -131.79199 -2.1983 C -132.9147 -.9345 -134.67441 1.25143 -135.7335 2.69182 C -136.79259 4.1322 -138.44048 6.5875 -139.42528 8.183 C -140.41007 9.77852 -141.9305 12.46428 -142.83135 14.1912 C -143.73221 15.9181 -145.10968 18.7963 -145.918 20.62943 C -146.72632 22.46255 -147.94847 25.49081 -148.65718 27.40321 C -149.36588 29.31561 -150.42246 32.44899 -151.02584 34.41263 C -151.62923 36.37628 -152.51207 39.56996 -153.00597 41.5558 C -153.49985 43.54164 -154.20375 46.74663 -154.58551 48.72523 C -154.96726 50.70386 -155.4888 53.87363 -155.75746 55.8163 C -156.02611 57.75899 -156.36554 60.8486 -156.52176 62.7267 C -156.678 64.6048 -156.83727 67.56638 -156.88356 69.35234 C -156.92986 71.13832 -156.91513 73.93115 -156.85541 75.59877 C -156.79567 77.2664 -156.61339 79.84709 -156.45307 81.37148 C -156.29276 82.89584 -155.95384 85.22658 -155.6999 86.58551 C -155.44597 87.94443 -154.9622 89.99234 -154.6228 91.16562 C -154.28339 92.3389 -153.66878 94.0713 -153.25356 95.04167 C -152.83834 96.01202 -152.11049 97.40634 -151.63008 98.1593 C -151.14969 98.91228 -150.32529 99.9443 -149.79116 100.46858 C -149.25702 100.99284 -148.3558 101.65034 -147.7803 101.9379 C -147.2048 102.22543 -146.2471 102.49496 -145.64331 102.54105 C -145.03952 102.58713 -144.04708 102.46603 -143.4285 102.27005 C -142.80994 102.07407 -141.805 101.56404 -141.18506 101.12845 C -140.56511 100.69286 -139.56832 99.79991 -138.9604 99.13046 C -138.35251 98.46101 -137.38596 97.19722 -136.80376 96.3035 C -136.22154 95.40977 -135.30771 93.79416 -134.76425 92.68907 C -134.2208 91.58397 -133.37914 89.63977 -132.88683 88.33871 C -132.39452 87.03767 -131.64517 84.79053 -131.21588 83.31198 C -130.78659 81.83345 -130.14823 79.31715 -129.79271 77.68231 C -129.4372 76.04749 -128.92555 73.2968 -128.65354 71.52917 C -128.3815 69.76155 -128.01194 66.81747 -127.83209 64.94241 C -127.65225 63.06737 -127.43771 59.97084 -127.35727 58.01506 C -127.27682 56.05928 -127.22743 52.85489 -127.25217 50.8465 C -127.2769 48.83809 -127.40146 45.57188 -127.53557 43.53993 C -127.66966 41.50798 -127.97272 38.22772 -128.21869 36.20149 C -128.46466 34.17528 -128.94939 30.92784 -129.30834 28.9363 C -129.66728 26.94473 -130.33449 23.77623 -130.80587 21.8477 C -131.27722 19.91916 -132.12409 16.87447 -132.70563 15.03664 C -133.28719 13.1988 -134.30953 10.32259 -134.99732 8.60187 C -135.68512 6.88113 -136.8742 4.21355 -137.66289 2.63483 C -138.45157 1.05612 -139.7988 -1.36215 -140.68157 -2.7764 C -141.56433 -4.19063 -143.05666 -6.32846 -144.02529 -7.55806 C -144.99391 -8.78767 -146.61777 -10.61143 -147.66283 -11.63866 C -148.70789 -12.66588 -150.4466 -14.15137 -151.55742 -14.96167 C -152.66825 -15.77199 -154.50389 -16.8968 -155.66887 -17.47885 C -156.83386 -18.06088 -158.747 -18.81087 -159.95394 -19.15665 C -161.16086 -19.50241 -163.13167 -19.86638 -164.36768 -19.97101 C -165.60369 -20.07565 -167.61086 -20.0482 -168.86229 -19.9108 C -170.11374 -19.77339 -172.13375 -19.35776 -173.38726 -18.98056 C -174.64076 -18.60336 -176.65467 -17.80348 -177.89678 -17.19223 C -179.1389 -16.58098 -181.12264 -15.41109 -182.3397 -14.57503 C -183.55678 -13.73897 -185.48963 -12.21477 -186.66861 -11.16637 C -187.8476 -10.11795 -189.70874 -8.2639 -190.83708 -7.0188 C -191.96544 -5.77368 -193.73517 -3.61621 -194.80104 -2.19243 C -195.86692 -.76863 -197.5266 1.66147 -198.51924 3.24287 C -199.51189 4.8243 -201.04586 7.49034 -201.95536 9.20534 C -202.86486 10.92033 -204.25659 13.77951 -205.07433 15.60338 C -205.89208 17.42725 -207.13031 20.44456 -207.84918 22.35059 C -208.56806 24.25659 -209.64157 27.38098 -210.25547 29.34059 C -210.86937 31.3002 -211.76914 34.48924 -212.27382 36.47412 C -212.77852 38.45898 -213.50008 41.66559 -213.89298 43.64624 C -214.28586 45.62689 -214.82564 48.80162 -215.10564 50.74928 C -215.38562 52.69695 -215.74349 55.79774 -215.91098 57.68369 C -216.07848 59.56963 -216.25583 62.54568 -216.31291 64.3419 C -216.37 66.13812 -216.37184 68.94919 -216.32244 70.62961 C -216.27301 72.31004 -216.1072 74.91376 -215.95662 76.45331 C -215.80605 77.99286 -215.48226 80.34956 -215.23712 81.72572 C -214.99199 83.10188 -214.5213 85.17934 -214.18984 86.3718 C -213.85837 87.56425 -213.25634 89.3293 -212.84812 90.32016 C -212.4399 91.31102 -211.24767 93.51337 -211.24767 93.51337 "/>
</g>
<path transform="matrix(1,0,0,-1,179.762,127.324008)" stroke-width="1" stroke-linecap="butt" stroke-miterlimit="10" stroke-linejoin="miter" fill="none" stroke="#808080" d="M -37.34186 50.76399 L -33.3139 49.40184 M -131.9544 43.80757 L -127.92645 42.44542 "/>
<path transform="matrix(1,0,0,-1,179.762,127.324008)" stroke-width="1" stroke-linecap="butt" stroke-miterlimit="10" stroke-linejoin="miter" fill="none" stroke="#808080" d="M -108.60582 56.2603 L -112.84593 55.94855 M -52.42235 37.26086 L -56.66246 36.94911 "/>
<path transform="matrix(1,0,0,-1,179.762,127.324008)" stroke-width="1" stroke-linecap="butt" stroke-miterlimit="10" stroke-linejoin="miter" fill="none" stroke="#000000" d="M -16.40536 51.4742 L -146.87528 41.8813 "/>
<path transform="matrix(-.99756,.07333,.07333,.99756,32.88672,85.4427)" d="M 1.99252 0 L -1.19551 1.59401 L 0 0 L -1.19551 -1.59401 "/>
<path transform="matrix(1,0,0,-1,179.762,127.324008)" stroke-width="1" stroke-linecap="butt" stroke-miterlimit="10" stroke-linejoin="miter" fill="none" stroke="#000000" d="M -113.53505 57.05438 L -53.6254 36.79485 "/>
<path transform="matrix(.94963,.32112,.32112,-.94963,126.1366,90.52916)" d="M 1.99252 0 L -1.19551 1.59401 L 0 0 L -1.19551 -1.59401 "/>
<symbol id="font_1_1">
<path d="M .63600006 0 C .65200009 0 .67600008 0 .67600008 .023999989 C .67600008 .048999996 .65300008 .048999996 .63600006 .048999996 L .04 .048999996 C .023999997 .048999996 0 .048999996 0 .025000006 C 0 0 .02300001 0 .04 0 L .63600006 0 Z "/>
</symbol>
<use xlink:href="#font_1_1" transform="matrix(6.9738,0,0,-6.9738,142.71916,83.290927)"/>
<symbol id="font_2_3">
<path d="M .092 .578 C .143 .565 .17300001 .565 .18900001 .565 C .321 .565 .39900003 .65500006 .39900003 .67 C .39900003 .681 .39200003 .684 .38700003 .684 C .38500003 .684 .38300003 .684 .37900005 .681 C .35500003 .672 .30200003 .652 .22800002 .652 C .20000002 .652 .14700002 .654 .08200001 .679 C .072000008 .684 .07 .684 .069 .684 C .056 .684 .056 .67300006 .056 .657 L .056 .36200003 C .056 .34500004 .056 .33300004 .072000008 .33300004 C .08100001 .33300004 .08200001 .33500005 .092 .34700004 C .13500002 .40200005 .19600001 .41000004 .231 .41000004 C .291 .41000004 .31800003 .36200003 .323 .35400004 C .34100003 .32100005 .34700004 .28300003 .34700004 .22500001 C .34700004 .19500001 .34700004 .136 .31700004 .09200001 C .29200004 .056 .24900002 .032 .20000002 .032 C .13500002 .032 .06800001 .068 .043000007 .134 C .08100001 .13100001 .1 .156 .1 .183 C .1 .22600001 .063 .23400001 .050000006 .23400001 C .048000009 .23400001 0 .23400001 0 .18 C 0 .09 .08200001 0 .20200002 0 C .33 0 .442 .095000009 .442 .221 C .442 .33400003 .35600005 .43800003 .23200003 .43800003 C .18800003 .43800003 .136 .42700003 .092 .38900004 L .092 .578 Z "/>
</symbol>
<use xlink:href="#font_2_3" transform="matrix(6.9738,0,0,-6.9738,148.63234,85.00648)"/>
<use xlink:href="#font_2_3" transform="matrix(6.9738,0,0,-6.9738,50.46834,91.76647)"/>
<use xlink:href="#font_1_1" transform="matrix(6.9738,0,0,-6.9738,60.38016,78.24192)"/>
<symbol id="font_2_2">
<path d="M .22600001 .63600006 C .22600001 .66300007 .224 .66400006 .19600001 .66400006 C .132 .601 .041 .6 0 .6 L 0 .564 C .023999997 .564 .09000001 .564 .14500001 .592 L .14500001 .082 C .14500001 .049000004 .14500001 .036000004 .04500001 .036000004 L .0069999995 .036000004 L .0069999995 0 C .024999999 .001 .148 .004 .185 .004 C .21600002 .004 .34200005 .001 .36400003 0 L .36400003 .036000004 L .32600004 .036000004 C .22600001 .036000004 .22600001 .049000004 .22600001 .082 L .22600001 .63600006 Z "/>
</symbol>
<use xlink:href="#font_2_2" transform="matrix(6.9738,0,0,-6.9738,66.614139,79.818)"/>
<use xlink:href="#font_2_2" transform="matrix(6.9738,0,0,-6.9738,120.721149,98.116)"/>
<path transform="matrix(1,0,0,-1,179.762,127.324008)" stroke-width="1" stroke-linecap="butt" stroke-miterlimit="10" stroke-linejoin="miter" fill="none" stroke="#808080" d="M -110.72588 53.97836 L -110.72588 58.23045 M -54.5424 34.97893 L -54.5424 39.23102 "/>
<path transform="matrix(1,0,0,-1,179.762,127.324008)" stroke-width="1" stroke-linecap="butt" stroke-miterlimit="10" stroke-linejoin="miter" fill="none" stroke="#808080" d="M -84.64813 -12.17067 L -80.62018 -13.5328 M -84.64813 17.55754 L -80.62018 16.1954 M -84.64813 77.014 L -80.62018 75.65186 M -84.64813 106.74223 L -80.62018 105.3801 "/>
<path transform="matrix(1,0,0,-1,179.762,127.324008)" stroke-width="1" stroke-linecap="butt" stroke-miterlimit="10" stroke-linejoin="miter" fill="none" stroke="#000000" d="M -82.63414 -18.7974 L -82.63414 110.01428 "/>
<path transform="matrix(0,-1,-1,-0,97.12785,17.309723)" d="M 1.99252 0 L -1.19551 1.59401 L 0 0 L -1.19551 -1.59401 "/>
<use xlink:href="#font_1_1" transform="matrix(6.9738,0,0,-6.9738,82.15117,138.65592)"/>
<use xlink:href="#font_2_2" transform="matrix(6.9738,0,0,-6.9738,88.38414,140.232)"/>
<use xlink:href="#font_1_1" transform="matrix(6.9738,0,0,-6.9738,75.81316,108.525928)"/>
<symbol id="font_2_1">
<path d="M .46400006 .33900003 C .46400006 .44900004 .45100004 .528 .40500004 .598 C .374 .644 .31200005 .684 .23200001 .684 C 0 .684 0 .41100005 0 .33900003 C 0 .26700003 0 0 .23200001 0 C .46400006 0 .46400006 .26700003 .46400006 .33900003 M .23200001 .028 C .186 .028 .125 .055 .105000007 .13700001 C .091000009 .19600001 .091000009 .27800004 .091000009 .35200004 C .091000009 .42500005 .091000009 .50100007 .106000009 .556 C .127 .635 .19100002 .656 .23200001 .656 C .286 .656 .338 .623 .356 .565 C .37200005 .51100006 .37300004 .43900005 .37300004 .35200004 C .37300004 .27800004 .37300004 .20400001 .36 .141 C .34000004 .050000006 .272 .028 .23200001 .028 Z "/>
</symbol>
<use xlink:href="#font_2_1" transform="matrix(6.9738,0,0,-6.9738,81.64963,110.24148)"/>
<symbol id="font_3_1">
<path d="M .11500001 .057000005 C .11500001 .093 .08500001 .115 .058 .115 C .025000006 .115 0 .08800001 0 .058000003 C 0 .022000002 .030000002 0 .05700001 0 C .09 0 .11500001 .027 .11500001 .057000005 Z "/>
</symbol>
<use xlink:href="#font_3_1" transform="matrix(6.9738,0,0,-6.9738,86.039058,110.102008)"/>
<use xlink:href="#font_2_3" transform="matrix(6.9738,0,0,-6.9738,88.06333,110.24148)"/>
<use xlink:href="#font_2_1" transform="matrix(6.9738,0,0,-6.9738,81.649639,51.595479)"/>
<use xlink:href="#font_3_1" transform="matrix(6.9738,0,0,-6.9738,86.03906,51.456)"/>
<use xlink:href="#font_2_3" transform="matrix(6.9738,0,0,-6.9738,88.06334,51.595479)"/>
<use xlink:href="#font_2_2" transform="matrix(6.9738,0,0,-6.9738,88.38414,22.130997)"/>
<path transform="matrix(1,0,0,-1,179.762,127.324008)" stroke-width="1" stroke-linecap="butt" stroke-miterlimit="10" stroke-linejoin="miter" fill="none" stroke="#808080" d="M -35.32787 47.95685 L -35.32787 52.20895 M -129.94043 41.00043 L -129.94043 45.25253 "/>
<path transform="matrix(1,0,0,-1,179.762,127.324008)" stroke-width="1" stroke-linecap="butt" stroke-miterlimit="10" stroke-linejoin="miter" fill="none" stroke="#808080" d="M -80.51408 -12.69586 L -84.7542 -13.00761 M -80.51408 17.03235 L -84.7542 16.7206 M -80.51408 76.4888 L -84.7542 76.17706 M -80.51408 106.21704 L -84.7542 105.90529 "/>
<symbol id="font_3_2">
<path d="M .201 .116000007 C .19100002 .082 .15800002 .028 .107 .028 C .10400001 .028 .07400001 .028 .053000004 .042000005 C .094000007 .055000005 .09700001 .091 .09700001 .097 C .09700001 .119 .080000009 .134 .057000005 .134 C .029000007 .134 0 .11 0 .073 C 0 .023000002 .056 0 .10500001 0 C .15100003 0 .192 .029000003 .21700001 .071 C .241 .018000002 .296 0 .336 0 C .451 0 .512 .125 .512 .15300001 C .512 .16600001 .49900005 .16600001 .49600003 .16600001 C .48200003 .16600001 .48100005 .16100002 .47700004 .14900002 C .456 .08 .39600004 .028 .34 .028 C .3 .028 .279 .055000005 .279 .093 C .279 .119 .303 .21000001 .331 .321 C .351 .398 .39600004 .423 .42900003 .423 C .43100003 .423 .46200005 .423 .483 .409 C .451 .4 .439 .372 .439 .354 C .439 .33200003 .456 .317 .479 .317 C .50200006 .317 .535 .336 .535 .37800003 C .535 .43400003 .47100006 .451 .43100003 .451 C .381 .451 .34100003 .418 .319 .38 C .301 .421 .255 .451 .199 .451 C .087000008 .451 .023000002 .328 .023000002 .298 C .023000002 .285 .037 .285 .040000008 .285 C .053000004 .285 .054000006 .289 .059000009 .30200003 C .084 .38 .14700002 .423 .19600001 .423 C .229 .423 .256 .405 .256 .357 C .256 .337 .24400002 .287 .23500002 .25300003 L .201 .116000007 Z "/>
</symbol>
<use xlink:href="#font_3_2" transform="matrix(6.9738,0,0,-6.9738,25.987742,90.14874)"/>
<symbol id="font_3_3">
<path d="M .50900009 .58100005 C .513 .595 .513 .597 .513 .60300007 C .513 .623 .49700005 .63500007 .48000003 .63500007 C .46900005 .63500007 .45000003 .63000008 .43900005 .611 C .43600003 .605 .42800004 .573 .42300005 .55300006 L .40200005 .47000004 C .39600004 .44600005 .36500005 .32000003 .36200003 .30900003 C .36100004 .30900003 .31700004 .22200002 .23900001 .22200002 C .171 .22200002 .171 .287 .171 .305 C .171 .35900004 .194 .42200003 .22400002 .499 C .23600002 .531 .24100001 .54300007 .24100001 .56 C .24100001 .60800006 .2 .64500007 .146 .64500007 C .045000007 .64500007 0 .509 0 .49200005 C 0 .47900004 .014000002 .47900004 .017 .47900004 C .031 .47900004 .032 .48400004 .035 .495 C .060000007 .578 .103 .61700007 .143 .61700007 C .16000001 .61700007 .168 .606 .168 .582 C .168 .559 .15900001 .537 .154 .52400007 C .106000009 .402 .096 .365 .096 .321 C .096 .30400003 .096 .25700004 .135 .22500001 C .16600001 .19900002 .20800002 .194 .235 .194 C .27500005 .194 .31100003 .209 .34400005 .23900001 C .33100004 .18400002 .32000003 .142 .27800004 .09200001 C .25100003 .061000006 .21100001 .027999998 .158 .027999998 C .15100001 .027999998 .104 .027999998 .083000008 .061000006 C .13700001 .067 .13700001 .11500001 .13700001 .116000007 C .13700001 .148 .107999999 .15400002 .098000008 .15400002 C .073 .15400002 .040000004 .134 .040000004 .08800001 C .040000004 .037 .088 0 .15900001 0 C .26000003 0 .38300003 .07800001 .41400004 .20300001 L .50900009 .58100005 Z "/>
</symbol>
<use xlink:href="#font_3_3" transform="matrix(6.9738,0,0,-6.9738,131.19277,95.40765)"/>
<symbol id="font_3_4">
<path d="M .10700001 .098000008 C .133 .124000009 .15100001 .143 .23600002 .21100001 C .25700004 .22800002 .33200003 .28800003 .361 .316 C .422 .37600003 .46000005 .42700003 .46000005 .439 C .46000005 .451 .44700004 .451 .44300003 .451 C .43400003 .451 .431 .449 .426 .441 C .39500005 .395 .374 .38 .35000003 .38 C .338 .38 .323 .381 .29299999 .41 C .259 .444 .237 .451 .214 .451 C .134 .451 .08 .364 .08 .334 C .08 .32500003 .09 .322 .097 .322 C .109 .322 .111 .32500003 .11500001 .336 C .13000001 .37100003 .186 .373 .202 .373 C .22500001 .373 .251 .367 .265 .364 C .32 .352 .32700003 .352 .352 .352 C .32600004 .32500003 .30800004 .307 .21300002 .23100002 C .135 .16900002 .10800001 .14400001 .089 .124000009 C .029 .065000008 0 .021000002 0 .012000001 C 0 0 .012999997 0 .016999998 0 C .027000003 0 .029 .0020000004 .034 .010000001 C .061000006 .048000006 .09200001 .071 .126 .071 C .13800001 .071 .15300001 .07 .18 .045 C .21100001 .015000001 .23100002 0 .263 0 C .37 0 .43700005 .12100001 .43700005 .15500002 C .43700005 .16700001 .426 .16800002 .42000003 .16800002 C .408 .16800002 .40600003 .16300002 .402 .15200001 C .38300003 .102000009 .324 .078 .27500005 .078 C .25200004 .078 .22700002 .083000008 .202 .089 C .156 .099 .148 .099 .13000001 .099 C .128 .099 .113000009 .099 .10700001 .098000008 Z "/>
</symbol>
<use xlink:href="#font_3_4" transform="matrix(6.9738,0,0,-6.9738,95.50739,12.904745)"/>
</svg>
