<?xml version="1.0" encoding="UTF-8" standalone="no"?>
<!DOCTYPE svg PUBLIC "-//W3C//DTD SVG 1.1//EN" "http://www.w3.org/Graphics/SVG/1.1/DTD/svg11.dtd">
<svg xmlns="http://www.w3.org/2000/svg" xmlns:xlink="http://www.w3.org/1999/xlink" version="1.1" width="198.205pt" height="40.778pt" viewBox="0 0 198.205 40.778">
<symbol id="font_0_2">
<path d="M .71000006 .71700009 C .71000006 .72 .708 .72700008 .699 .72700008 C .69600006 .72700008 .69500008 .7260001 .684 .71500006 L .614 .6380001 C .605 .65200009 .559 .72700008 .448 .72700008 C .22500001 .72700008 0 .50600007 0 .27400003 C 0 .109000008 .118000019 0 .271 0 C .358 0 .43400003 .040000004 .487 .086 C .58000007 .16800002 .597 .25900004 .597 .26200003 C .597 .272 .587 .272 .58500006 .272 C .579 .272 .574 .27 .572 .26200003 C .563 .23300001 .54 .162 .47100003 .104 C .402 .048 .33900003 .031000004 .287 .031000004 C .19700001 .031000004 .091000009 .083000008 .091000009 .23900001 C .091000009 .29600004 .112 .45800004 .21200003 .57500007 C .273 .646 .367 .69600006 .45600004 .69600006 C .558 .69600006 .61700007 .619 .61700007 .503 C .61700007 .46300004 .614 .46200005 .614 .45200003 C .614 .44200004 .625 .44200004 .629 .44200004 C .642 .44200004 .642 .44400005 .647 .46200005 L .71000006 .71700009 Z "/>
</symbol>
<use xlink:href="#font_0_2" transform="matrix(9.9626,0,0,-9.9626,32.37813,19.083178)"/>
<symbol id="font_1_1">
<path d="M .501 .284 C .448 .34600003 .43199999 .363 .394 .39000003 C .333 .43400003 .269 .451 .214 .451 C .09 .451 0 .345 0 .22500001 C 0 .108 .085999999 0 .21100001 0 C .35000003 0 .44700004 .114 .48299999 .16700001 C .536 .105000007 .552 .088 .59000006 .061000006 C .651 .017 .71500006 0 .77000007 0 C .89400008 0 .9840001 .106 .9840001 .22600001 C .9840001 .343 .898 .451 .773 .451 C .634 .451 .537 .337 .501 .284 M .533 .24700003 C .573 .312 .66 .41300003 .782 .41300003 C .88500007 .41300003 .956 .322 .956 .22600001 C .956 .13000001 .878 .055000005 .786 .055000005 C .693 .055000005 .629 .13100001 .533 .24700003 M .45099999 .20400001 C .411 .13900002 .324 .038000004 .202 .038000004 C .09900001 .038000004 .027999998 .12900001 .027999998 .22500001 C .027999998 .321 .106000009 .396 .198 .396 C .291 .396 .35500003 .32 .45099999 .20400001 Z "/>
</symbol>
<use xlink:href="#font_1_1" transform="matrix(6.9738,0,0,-6.9738,40.24998,14.820738)"/>
<symbol id="font_2_1">
<path d="M .23200003 .00999999 C .23200003 .012999982 .23200003 .014999986 .215 .03199999 C .09 .15799999 .058 .347 .058 .5 C .058 .674 .096 .84800007 .21900001 .97300007 C .23200003 .985 .23200003 .98700007 .23200003 .99 C .23200003 .99700006 .22800002 1 .222 1 C .21200001 1 .12200001 .93200007 .06299999 .805 C .012000002 .69500008 0 .584 0 .5 C 0 .422 .011 .301 .066 .188 C .126 .065 .21200001 0 .222 0 C .22800002 0 .23200003 .0029999912 .23200003 .00999999 Z "/>
</symbol>
<use xlink:href="#font_2_1" transform="matrix(9.9626,0,0,-9.9626,49.140298,21.354649)"/>
<symbol id="font_3_1">
<path d="M .252 .314 L .28800003 .314 L .43800003 .082 C .448 .066 .47200004 .027 .483 .012 C .49000005 0 .493 0 .51600006 0 L .65400007 0 C .67200008 0 .68700006 0 .68700006 .018000002 C .68700006 .026 .68100008 .033 .67200008 .035 C .63500007 .043 .5860001 .109000008 .56200006 .141 C .55500009 .15100001 .50500008 .21700001 .43800003 .32500003 C .52700009 .34100003 .61300006 .379 .61300006 .49800004 C .61300006 .637 .46600003 .68500009 .34800003 .68500009 L .034 .68500009 C .016 .68500009 0 .68500009 0 .66700008 C 0 .65000006 .019 .65000006 .027 .65000006 C .084 .65000006 .089 .643 .089 .59300008 L .089 .09200001 C .089 .042000005 .084 .035 .027 .035 C .019 .035 0 .035 0 .018000002 C 0 0 .016 0 .034 0 L .308 0 C .326 0 .34100003 0 .34100003 .018000002 C .34100003 .035 .324 .035 .31300003 .035 C .256 .035 .252 .043 .252 .09200001 L .252 .314 M .44500003 .363 C .47300003 .4 .476 .453 .476 .497 C .476 .545 .47000004 .59800007 .43800003 .63900008 C .47900004 .63000008 .57800009 .59900006 .57800009 .49800004 C .57800009 .43300004 .54800006 .38200004 .44500003 .363 M .252 .596 C .252 .61700007 .252 .65000006 .314 .65000006 C .39900003 .65000006 .441 .615 .441 .497 C .441 .36800004 .41000004 .349 .252 .349 L .252 .596 M .116 .035 C .124 .053000004 .124 .081 .124 .09 L .124 .595 C .124 .605 .124 .632 .116 .65000006 L .23 .65000006 C .21700001 .634 .21700001 .614 .21700001 .59900006 L .21700001 .09 C .21700001 .080000009 .21700001 .053000004 .22500001 .035 L .116 .035 M .32900004 .314 C .33600004 .31500004 .34 .316 .34800003 .316 C .363 .316 .38500003 .31800003 .4 .32000003 C .41500003 .296 .52300009 .11800001 .60600009 .035 L .50900009 .035 L .32900004 .314 Z "/>
</symbol>
<use xlink:href="#font_3_1" transform="matrix(9.9626,0,0,-9.9626,52.1874,18.863999)"/>
<symbol id="font_4_1">
<path d="M .442 .18200001 L .40800003 .18200001 C .40500004 .16000001 .39500005 .101 .38200004 .091000009 C .374 .085 .29700003 .085 .28300003 .085 L .099 .085 C .20400003 .178 .23900002 .20600002 .29900003 .25300003 C .37300004 .312 .442 .374 .442 .469 C .442 .59000006 .33600004 .66400006 .20800004 .66400006 C .084 .66400006 0 .577 0 .485 C 0 .43400003 .043000007 .42900003 .053000004 .42900003 C .077 .42900003 .10600001 .446 .10600001 .48200003 C .10600001 .5 .099 .535 .047000007 .535 C .078 .606 .146 .628 .19300002 .628 C .293 .628 .34500004 .55 .34500004 .469 C .34500004 .38200004 .28300003 .31300003 .25100003 .277 L .010000005 .039 C 0 .030000002 0 .028 0 0 L .41200004 0 L .442 .18200001 Z "/>
</symbol>
<use xlink:href="#font_4_1" transform="matrix(6.9738,0,0,-6.9738,59.66335,14.750999)"/>
<symbol id="font_0_1">
<path d="M .117000009 .194 C .117000009 .26 .092 .29900003 .05300001 .29900003 C .020000004 .29900003 0 .274 0 .246 C 0 .21900001 .020000004 .193 .05300001 .193 C .065000008 .193 .078 .197 .08800001 .206 C .091 .208 .092 .209 .093 .209 C .094000007 .209 .095000009 .208 .095000009 .194 C .095000009 .12 .06000001 .060000004 .027000003 .026999996 C .016000003 .016000003 .016000003 .013999999 .016000003 .0109999929 C .016000003 .003999993 .021000006 0 .026 0 C .037 0 .117000009 .077 .117000009 .194 Z "/>
</symbol>
<use xlink:href="#font_0_1" transform="matrix(9.9626,0,0,-9.9626,64.54978,20.78678)"/>
<use xlink:href="#font_3_1" transform="matrix(9.9626,0,0,-9.9626,68.2804,18.863999)"/>
<symbol id="font_2_2">
<path d="M .232 .5 C .232 .578 .22100002 .699 .16600001 .81200006 C .106 .93500009 .020000004 1 .009999998 1 C .0040000008 1 0 .99600008 0 .99 C 0 .98700007 0 .985 .019000002 .967 C .117000009 .86800006 .174 .709 .174 .5 C .174 .329 .137 .153 .012999997 .026999996 C 0 .014999986 0 .012999982 0 .00999999 C 0 .003999993 .0040000008 0 .009999998 0 C .020000004 0 .11000001 .06799999 .169 .195 C .22 .305 .232 .416 .232 .5 Z "/>
</symbol>
<use xlink:href="#font_2_2" transform="matrix(9.9626,0,0,-9.9626,75.88387,21.354649)"/>
<symbol id="font_5_3">
<path d="M .484 .09200001 C .484 .115 .484 .120000008 .47 .120000008 C .409 .12100001 .31 .12900001 .22000002 .17300001 C .112 .22700002 .071 .29000003 .046000005 .32900004 C .043 .33400003 .037 .33400003 .024 .33400003 C .0009999983 .33400003 0 .333 0 .30800004 L 0 .29200004 C .136 .047000003 .361 0 .463 0 C .484 0 .484 .001 .484 .028 L .484 .09200001 Z "/>
</symbol>
<use xlink:href="#font_5_3" transform="matrix(9.9626,0,0,-9.9626,31.640898,25.538998)"/>
<path transform="matrix(1,0,0,-1,36.363,25.539)" d="M 0 0 L 14.689 0 L 14.689 1.195 L 0 1.195 Z "/>
<symbol id="font_5_2">
<path d="M .48400004 .04200001 C .34800003 .28700004 .123 .33400003 .021000002 .33400003 C 0 .33400003 0 .333 0 .30600003 L 0 .24200002 C 0 .21900001 0 .21400002 .014 .21400002 C .075 .21300002 .17400001 .20500002 .264 .16100002 C .372 .10700001 .41300003 .044000016 .43800003 .00500001 C .441 0 .447 0 .46 0 C .483 0 .48400004 .001000002 .48400004 .026000008 L .48400004 .04200001 Z "/>
</symbol>
<symbol id="font_5_1">
<path d="M .484 .30600003 C .484 .333 .484 .33400003 .463 .33400003 C .361 .33400003 .136 .286 0 .04200001 L 0 .026000008 C 0 .001000002 .0009999983 0 .024 0 C .043 0 .044 .001000002 .049000004 .008000001 C .13100001 .13900002 .269 .21000003 .472 .21400002 C .484 .21400002 .484 .22100002 .484 .24200002 L .484 .30600003 Z "/>
</symbol>
<use xlink:href="#font_5_2" transform="matrix(9.9626,0,0,-9.9626,50.952375,27.670996)"/>
<use xlink:href="#font_5_1" transform="matrix(9.9626,0,0,-9.9626,55.296068,27.670996)"/>
<path transform="matrix(1,0,0,-1,60.019,25.539)" d="M 0 0 L 14.689 0 L 14.689 1.195 L 0 1.195 Z "/>
<symbol id="font_5_4">
<path d="M .48400004 .30800004 C .48400004 .333 .483 .33400003 .46 .33400003 C .441 .33400003 .44 .333 .435 .326 C .35300002 .19500001 .21500002 .124000009 .012000001 .120000008 C 0 .120000008 0 .113000009 0 .09200001 L 0 .028 C 0 .001 0 0 .021000002 0 C .123 0 .34800003 .048 .48400004 .29200004 L .48400004 .30800004 Z "/>
</symbol>
<use xlink:href="#font_5_4" transform="matrix(9.9626,0,0,-9.9626,74.607379,25.539)"/>
<symbol id="font_6_7">
<path d="M .326 .59900006 L .42000003 .59900006 C .43800003 .59900006 .451 .59900006 .451 .62100008 C .451 .63500007 .437 .63500007 .42200003 .63500007 L .333 .63500007 C .344 .70100006 .356 .762 .361 .78300008 C .371 .832 .381 .88000008 .421 .88000008 C .437 .88000008 .453 .87600007 .465 .86600008 C .446 .85800006 .433 .84000006 .433 .82000008 C .433 .791 .45700003 .786 .46800003 .786 C .497 .786 .51900008 .81 .51900008 .841 C .51900008 .884 .47300003 .90800008 .421 .90800008 C .312 .90800008 .289 .79 .283 .759 L .259 .63500007 L .18300002 .63500007 C .165 .63500007 .15300001 .63500007 .15300001 .61300006 C .15300001 .59900006 .165 .59900006 .18100001 .59900006 L .252 .59900006 L .187 .24400002 C .14700002 .027999998 .118 .027999998 .096 .027999998 C .09200001 .027999998 .071 .027999998 .054 .042999999 C .08600001 .05600001 .08600001 .08400001 .08600001 .08800001 C .08600001 .117000009 .062000004 .12200001 .051000004 .12200001 C .022000002 .12200001 0 .098000008 0 .067 C 0 .022 .049000004 0 .095 0 C .19100002 0 .23000002 .128 .24300002 .17600002 C .252 .21000001 .261 .24400002 .267 .278 L .326 .59900006 Z "/>
</symbol>
<symbol id="font_6_f">
<path d="M .49300004 .39900003 C .495 .40800003 .49600006 .409 .49600006 .411 C .49600006 .426 .485 .441 .46400006 .441 C .43200005 .441 .42200006 .412 .41900004 .398 L .35400004 .136 C .34700004 .107 .3 .028 .23000002 .028 C .18400002 .028 .164 .062000004 .164 .109000008 C .164 .16600001 .19600001 .24900002 .22300002 .31800003 C .23000002 .337 .23400003 .34800003 .23400003 .367 C .23400003 .417 .194 .451 .14500001 .451 C .045999998 .451 0 .315 0 .298 C 0 .285 .012999997 .285 .020999998 .285 C .033 .285 .038999998 .285 .042000005 .298 C .07300001 .407 .11800001 .423 .14199999 .423 C .15900001 .423 .16700003 .412 .16700003 .39000003 C .16700003 .367 .16 .351 .14199999 .303 C .106 .20900002 .094000007 .16300002 .094000007 .124000009 C .094000007 .024 .17000002 0 .22600001 0 C .28800003 0 .323 .034 .35200004 .063 C .36800004 .014 .416 0 .44600005 0 C .477 0 .503 .015000001 .52500006 .051000004 C .549 .09 .563 .15 .563 .15300001 C .563 .16600001 .55 .16600001 .54200008 .16600001 C .52400007 .16600001 .523 .16400002 .517 .13900002 C .503 .087000008 .486 .028 .449 .028 C .421 .028 .417 .058000003 .417 .075 C .417 .092 .417 .094000007 .42300005 .117000009 L .49300004 .39900003 Z "/>
</symbol>
<symbol id="font_6_a">
<path d="M .21600002 .366 C .20900002 .42700003 .157 .451 .117000009 .451 C .07399999 .451 .051999995 .423 .036999994 .398 C .015999996 .365 0 .304 0 .298 C 0 .285 .012999997 .285 .020999998 .285 C .038999998 .285 .04 .286 .047 .314 C .064 .38300003 .083 .423 .114 .423 C .14500001 .423 .14500001 .387 .14500001 .375 C .14500001 .356 .132 .305 .124000009 .27 L .09600001 .16200002 C .093 .14700002 .083 .109000008 .079 .094000007 C .07399999 .072000008 .065000008 .037 .065000008 .030000002 C .065000008 .008 .08100001 0 .09600001 0 C .13 0 .137 .030000002 .141 .045 C .14500001 .062000004 .15799999 .112 .164 .134 C .16700003 .14900002 .17700002 .187 .18 .202 C .18300003 .21200001 .19600001 .262 .19700003 .269 C .199 .275 .229 .34100003 .27 .379 C .3 .40600003 .335 .423 .37500004 .423 C .421 .423 .43200005 .388 .43200005 .35500003 C .43200005 .296 .38500003 .17500001 .36800004 .12900001 C .358 .104 .358 .097 .358 .084 C .358 .030000002 .40100003 0 .44700004 0 C .54700008 0 .592 .13700001 .592 .15300001 C .592 .16600001 .57900008 .16600001 .57100006 .16600001 C .55300006 .16600001 .55200007 .16300002 .54700008 .14500001 C .53000006 .083000008 .49400003 .028 .45000006 .028 C .43600006 .028 .425 .035 .425 .062000004 C .425 .084 .43400003 .106 .44200004 .12900001 C .46000005 .17600002 .50200006 .285 .50200006 .34 C .50200006 .418 .448 .451 .379 .451 C .3 .451 .24600002 .404 .21600002 .366 Z "/>
</symbol>
<symbol id="font_6_4">
<path d="M .35500003 .387 C .32600004 .379 .31599999 .35500003 .31599999 .338 C .31599999 .322 .32700003 .305 .352 .305 C .36900003 .305 .402 .316 .402 .364 C .402 .42900003 .33200003 .451 .277 .451 C .13700001 .451 0 .314 0 .172 C 0 .078 .06299999 0 .17400001 0 C .33500005 0 .411 .094000007 .411 .107 C .411 .115 .397 .13100001 .388 .13100001 C .38300003 .13100001 .38000006 .128 .37300004 .120000008 C .31200005 .047000003 .22500001 .028 .175 .028 C .12500002 .028 .078999999 .057000005 .078999999 .13800001 C .078999999 .18500002 .100999999 .291 .147 .349 C .18699999 .4 .235 .423 .278 .423 C .29500003 .423 .338 .418 .35500003 .387 Z "/>
</symbol>
<symbol id="font_6_e">
<path d="M .19400002 .405 L .29300005 .405 C .311 .405 .323 .405 .323 .42700003 C .323 .441 .311 .441 .29500003 .441 L .20300003 .441 L .23900001 .58500006 C .24300002 .59900006 .24300002 .601 .24300002 .605 C .24300002 .623 .22900002 .635 .21100001 .635 C .177 .635 .16900002 .602 .16700001 .593 L .12900001 .441 L .030000002 .441 C .012000002 .441 0 .441 0 .419 C 0 .405 .012000002 .405 .028000005 .405 L .120000008 .405 L .051 .128 C .046000005 .108 .046000005 .101 .046000005 .094000007 C .046000005 .032 .09500001 0 .14700002 0 C .255 0 .319 .13800001 .319 .15400002 C .319 .16600001 .306 .16600001 .29900003 .16600001 C .283 .16600001 .282 .16400002 .27600003 .15 C .22900002 .044000005 .177 .028 .15 .028 C .11600001 .028 .11600001 .065000008 .11600001 .075 C .11600001 .092 .12100001 .113000009 .12200001 .116000007 L .19400002 .405 Z "/>
</symbol>
<symbol id="font_6_8">
<path d="M .26900003 .633 C .26900003 .65400007 .254 .66800007 .23400003 .66800007 C .206 .66800007 .18400002 .642 .18400002 .62 C .18400002 .602 .19600001 .58500006 .22000003 .58500006 C .245 .58500006 .26900003 .609 .26900003 .633 M .123 .257 C .116000007 .23800002 .098 .19200002 .08800001 .16400002 C .078 .13800001 .064 .102000009 .064 .084 C .064 .038000004 .1 0 .153 0 C .25300003 0 .298 .13700001 .298 .15300001 C .298 .16600001 .28500004 .16600001 .277 .16600001 C .259 .16600001 .25800003 .16300002 .25300003 .14500001 C .24000001 .097 .20700002 .028 .15600002 .028 C .132 .028 .132 .052000006 .132 .062000004 C .132 .086 .14900002 .12900001 .162 .16100002 C .17300001 .19200002 .22300002 .319 .22800002 .334 C .23400003 .351 .23400003 .354 .23400003 .367 C .23400003 .412 .199 .451 .144 .451 C .045999998 .451 0 .316 0 .298 C 0 .285 .012999997 .285 .020999998 .285 C .033 .285 .038999998 .285 .042000005 .298 C .074999999 .414 .123 .423 .141 .423 C .153 .423 .16600001 .42000003 .16600001 .389 C .16600001 .367 .15799999 .347 .15 .326 L .123 .257 Z "/>
</symbol>
<symbol id="font_6_b">
<path d="M .44900007 .279 C .44900007 .37600003 .38100005 .451 .278 .451 C .135 .451 0 .312 0 .172 C 0 .07 .072 0 .17100002 0 C .314 0 .44900007 .14000002 .44900007 .279 M .172 .028 C .14400001 .028 .078999999 .042000005 .078999999 .13800001 C .078999999 .18200001 .09900001 .287 .147 .349 C .182 .396 .233 .423 .277 .423 C .31200005 .423 .37 .402 .37 .313 C .37 .279 .35500003 .18300002 .31200005 .115 C .28100003 .067 .22500001 .028 .172 .028 Z "/>
</symbol>
<symbol id="font_6_d">
<path d="M .33900003 .382 C .33400003 .38 .30800004 .366 .30800004 .34 C .30800004 .327 .31500004 .31 .34 .31 C .35200004 .31 .38400004 .316 .38400004 .364 C .38400004 .428 .316 .451 .25800003 .451 C .11500001 .451 .082 .343 .082 .304 C .082 .22300002 .16100002 .20800002 .19800002 .20100002 C .245 .19200002 .30100004 .18200001 .30100004 .13100001 C .30100004 .104 .27600003 .028 .156 .028 C .125 .028 .067 .034 .046000005 .077 C .081 .086 .087 .115 .087 .126 C .087 .14500001 .073 .15900001 .052 .15900001 C .024999999 .15900001 0 .13900002 0 .097 C 0 .037 .062000008 0 .15400002 0 C .32500003 0 .36400003 .12100001 .36400003 .16600001 C .36400003 .19600001 .351 .22400002 .32700003 .24500002 C .298 .269 .273 .274 .21900001 .284 C .18900001 .29 .14500001 .298 .14500001 .33900003 C .14500001 .357 .162 .423 .257 .423 C .28 .423 .323 .418 .33900003 .382 Z "/>
</symbol>
<symbol id="font_6_6">
<path d="M .152 .23800002 C .19500001 .23800002 .39200003 .23800002 .39200003 .363 C .39200003 .417 .34100003 .451 .27100004 .451 C .159 .451 0 .361 0 .18500002 C 0 .08 .062000008 0 .17 0 C .329 0 .40600003 .094000007 .40600003 .107 C .40600003 .115 .39200003 .13100001 .38300003 .13100001 C .37800003 .13100001 .37500007 .128 .36800004 .120000008 C .30700005 .047000003 .22000002 .028 .17 .028 C .105000007 .028 .07700001 .083000008 .07700001 .14600002 C .07700001 .17700002 .083000008 .20800002 .09 .23800002 L .152 .23800002 M .098000008 .266 C .14300002 .421 .259 .423 .27100004 .423 C .31300003 .423 .34400005 .4 .34400005 .364 C .34400005 .266 .184 .266 .145 .266 L .098000008 .266 Z "/>
</symbol>
<symbol id="font_6_10">
<path d="M .47000004 .374 C .47000004 .449 .43 .45200003 .42300005 .45200003 C .397 .45200003 .37100003 .426 .37100003 .40100003 C .37100003 .387 .379 .38 .38400004 .374 C .404 .354 .41300006 .328 .41300006 .299 C .41300006 .259 .358 .028 .24200002 .028 C .20400003 .028 .16500002 .046000005 .16500002 .115 C .16500002 .17000002 .19700003 .252 .22500003 .323 C .23400003 .34800003 .23400003 .358 .23400003 .367 C .23400003 .417 .194 .451 .14500001 .451 C .045999998 .451 0 .315 0 .298 C 0 .285 .012999997 .285 .020999998 .285 C .033 .285 .038999998 .285 .042000005 .298 C .07300001 .407 .11800001 .423 .14199999 .423 C .15900001 .423 .16700003 .412 .16700003 .39000003 C .16700003 .367 .16 .351 .14199999 .303 C .095000009 .18100001 .095000009 .15100001 .095000009 .128 C .095000009 .022 .18 0 .23900002 0 C .40600003 0 .47000004 .30200003 .47000004 .374 Z "/>
</symbol>
<symbol id="font_6_c">
<path d="M .17900002 .19600001 C .18400002 .21800001 .19000003 .23900002 .19500003 .261 C .201 .285 .21200001 .328 .256 .37800003 C .27600003 .40100003 .305 .423 .349 .423 C .36 .423 .39400003 .42200003 .417 .40600003 C .39600004 .396 .38700003 .37800003 .38700003 .361 C .38700003 .333 .409 .327 .42200006 .327 C .44100005 .327 .472 .34100003 .472 .382 C .472 .433 .41000004 .451 .351 .451 C .32400004 .451 .27 .449 .21300003 .38300003 C .19700003 .43800003 .14500001 .451 .117000009 .451 C .07399999 .451 .051999995 .423 .036999994 .398 C .015999996 .365 0 .304 0 .298 C 0 .285 .012999997 .285 .020999998 .285 C .038999998 .285 .04 .286 .047 .314 C .064 .38300003 .083 .423 .114 .423 C .14500001 .423 .14500001 .387 .14500001 .375 C .14500001 .356 .132 .305 .124000009 .27 L .09600001 .16200002 C .093 .14700002 .083 .109000008 .079 .094000007 C .07399999 .072000008 .065000008 .037 .065000008 .030000002 C .065000008 .008 .08100001 0 .09600001 0 C .11800001 0 .13100001 .016 .13499999 .024 C .13800001 .031000004 .14700002 .067 .15200001 .088 L .17900002 .19600001 Z "/>
</symbol>
<symbol id="font_6_2">
<path d="M .41800005 .381 C .422 .396 .422 .398 .422 .402 C .422 .42400003 .40600003 .432 .39100004 .432 C .358 .432 .34800003 .398 .347 .395 C .32200004 .43600003 .28500004 .451 .24900002 .451 C .127 .451 0 .31 0 .16400002 C 0 .057000005 .068 0 .14200002 0 C .206 0 .259 .047000003 .279 .068 C .29200004 .020000002 .33900003 0 .375 0 C .40600003 0 .43200005 .015000001 .454 .051000004 C .47800005 .09 .49200005 .15 .49200005 .15300001 C .49200005 .16600001 .47900004 .16600001 .47100003 .16600001 C .453 .16600001 .45200003 .16400002 .44600005 .13900002 C .43200005 .087000008 .41500003 .028 .37800003 .028 C .35000003 .028 .34600003 .058000003 .34600003 .075 C .34600003 .092 .34600003 .094000007 .35200004 .117000009 L .41800005 .381 M .28500004 .14600002 C .277 .115 .255 .091 .23200003 .069000009 C .19100002 .033000005 .16 .028 .14500001 .028 C .09900001 .028 .076000008 .071 .076000008 .123 C .076000008 .165 .100999999 .275 .12900001 .329 C .16100002 .388 .20900002 .423 .24900002 .423 C .317 .423 .33 .336 .33 .326 C .33 .323 .32900004 .319 .32700003 .312 L .28500004 .14600002 Z "/>
</symbol>
<symbol id="font_6_9">
<path d="M .21600002 .675 C .21700001 .679 .21900001 .68600007 .21900001 .69 C .21900001 .70500007 .20300001 .704 .192 .703 L .08400001 .694 C .07100001 .693 .058 .69200006 .058 .671 C .058 .657 .07100001 .657 .08400001 .657 C .132 .657 .132 .65000006 .132 .64100006 C .132 .634 .13000001 .62600007 .128 .619 L .0050000029 .128 C 0 .108 0 .101 0 .094000007 C 0 .028 .055000009 0 .09900001 0 C .12200001 0 .153 .008 .18 .054000006 C .20200002 .093 .215 .14900002 .215 .15300001 C .215 .16600001 .20200002 .16600001 .194 .16600001 C .176 .16600001 .17500001 .16300002 .171 .14600002 C .157 .093 .14000002 .028 .102 .028 C .074 .028 .07000001 .058000003 .07000001 .075 C .07000001 .092 .075 .113000009 .076000008 .116000007 L .21600002 .675 Z "/>
</symbol>
<symbol id="font_6_3">
<path d="M .19400002 .675 C .19500001 .679 .19700001 .68600007 .19700001 .69 C .19700001 .70500007 .18100001 .704 .17 .703 L .062000008 .694 C .04900001 .693 .036 .69200006 .036 .671 C .036 .657 .04900001 .657 .062000008 .657 C .11 .657 .11 .65000006 .11 .64100006 C .11 .635 .11 .633 .106000009 .619 L .009000003 .23300001 C 0 .19700001 0 .17400001 0 .16100002 C 0 .055000005 .065 0 .13700001 0 C .26 0 .38600005 .143 .38600005 .28800003 C .38600005 .388 .323 .451 .244 .451 C .19000001 .451 .14800002 .418 .12500002 .4 L .19400002 .675 M .138 .028 C .096 .028 .066 .064 .066 .12900001 C .066 .18200001 .103 .316 .10900001 .326 C .13900002 .374 .19200002 .423 .242 .423 C .28900004 .423 .31 .377 .31 .329 C .31 .283 .282 .17100002 .25700004 .124000009 C .22000002 .054000006 .17 .028 .138 .028 Z "/>
</symbol>
<use xlink:href="#font_6_7" transform="matrix(6.9738,0,0,-6.9738,3.2754436,36.453657)"/>
<use xlink:href="#font_6_f" transform="matrix(6.9738,0,0,-6.9738,6.5740516,35.100736)"/>
<use xlink:href="#font_6_a" transform="matrix(6.9738,0,0,-6.9738,10.988466,35.100736)"/>
<use xlink:href="#font_6_4" transform="matrix(6.9738,0,0,-6.9738,15.898023,35.100736)"/>
<use xlink:href="#font_6_e" transform="matrix(6.9738,0,0,-6.9738,19.461634,35.100736)"/>
<use xlink:href="#font_6_8" transform="matrix(6.9738,0,0,-6.9738,22.181418,35.100736)"/>
<use xlink:href="#font_6_b" transform="matrix(6.9738,0,0,-6.9738,25.040677,35.100736)"/>
<use xlink:href="#font_6_a" transform="matrix(6.9738,0,0,-6.9738,28.952979,35.100736)"/>
<use xlink:href="#font_6_d" transform="matrix(6.9738,0,0,-6.9738,33.583585,35.100736)"/>
<use xlink:href="#font_6_b" transform="matrix(6.9738,0,0,-6.9738,40.229616,35.100736)"/>
<use xlink:href="#font_6_7" transform="matrix(6.9738,0,0,-6.9738,43.409669,36.453657)"/>
<use xlink:href="#font_6_d" transform="matrix(6.9738,0,0,-6.9738,49.70004,35.100736)"/>
<use xlink:href="#font_6_6" transform="matrix(6.9738,0,0,-6.9738,53.403127,35.100736)"/>
<use xlink:href="#font_6_10" transform="matrix(6.9738,0,0,-6.9738,56.876077,35.100736)"/>
<use xlink:href="#font_6_6" transform="matrix(6.9738,0,0,-6.9738,61.004568,35.100736)"/>
<use xlink:href="#font_6_c" transform="matrix(6.9738,0,0,-6.9738,64.477519,35.100736)"/>
<use xlink:href="#font_6_2" transform="matrix(6.9738,0,0,-6.9738,67.83889,35.100736)"/>
<use xlink:href="#font_6_9" transform="matrix(6.9738,0,0,-6.9738,71.93251,35.100736)"/>
<use xlink:href="#font_6_10" transform="matrix(6.9738,0,0,-6.9738,76.89786,35.100736)"/>
<use xlink:href="#font_6_2" transform="matrix(6.9738,0,0,-6.9738,80.984508,35.100736)"/>
<use xlink:href="#font_6_c" transform="matrix(6.9738,0,0,-6.9738,84.90378,35.100736)"/>
<use xlink:href="#font_6_8" transform="matrix(6.9738,0,0,-6.9738,88.39068,35.100736)"/>
<use xlink:href="#font_6_2" transform="matrix(6.9738,0,0,-6.9738,91.242969,35.100736)"/>
<use xlink:href="#font_6_3" transform="matrix(6.9738,0,0,-6.9738,95.490009,35.100736)"/>
<use xlink:href="#font_6_9" transform="matrix(6.9738,0,0,-6.9738,99.13731,35.100736)"/>
<use xlink:href="#font_6_6" transform="matrix(6.9738,0,0,-6.9738,101.45261,35.100736)"/>
<use xlink:href="#font_6_d" transform="matrix(6.9738,0,0,-6.9738,104.93951,35.100736)"/>
<path transform="matrix(1,0,0,-1,55.535,23.82)" stroke-width="1" stroke-linecap="butt" stroke-miterlimit="10" stroke-linejoin="miter" fill="none" stroke="#000000" d="M 28.3468 7.08669 L 83.0479 7.08669 "/>
<path transform="matrix(1,0,0,-1,138.5829,16.73331)" d="M 1.99252 0 L -1.19551 1.59401 L 0 0 L -1.19551 -1.59401 "/>
<symbol id="font_7_1">
<path d="M .8370001 .682 C .84400007 .695 .84400007 .697 .84400007 .699 C .84400007 .711 .83400008 .711 .81600007 .711 L .029 .711 C .006000001 .711 .0030000024 .711 0 .698 L .37700004 .027 C .38900004 .004999999 .39600004 0 .42200003 0 C .45200003 0 .45600004 .0069999995 .467 .026 L .8370001 .682 M .21800003 .593 L .7260001 .593 L .472 .142 L .21800003 .593 Z "/>
</symbol>
<use xlink:href="#font_7_1" transform="matrix(9.9626,0,0,-9.9626,108.0119,10.479065)"/>
<use xlink:href="#font_0_2" transform="matrix(9.9626,0,0,-9.9626,143.52913,19.083178)"/>
<use xlink:href="#font_1_1" transform="matrix(6.9738,0,0,-6.9738,151.401,14.820738)"/>
<use xlink:href="#font_2_1" transform="matrix(9.9626,0,0,-9.9626,160.2913,21.354649)"/>
<use xlink:href="#font_3_1" transform="matrix(9.9626,0,0,-9.9626,163.33841,18.863999)"/>
<use xlink:href="#font_4_1" transform="matrix(6.9738,0,0,-6.9738,170.81435,14.750999)"/>
<use xlink:href="#font_0_1" transform="matrix(9.9626,0,0,-9.9626,175.70078,20.78678)"/>
<use xlink:href="#font_3_1" transform="matrix(9.9626,0,0,-9.9626,179.4314,18.863999)"/>
<use xlink:href="#font_4_1" transform="matrix(6.9738,0,0,-6.9738,186.90634,14.750999)"/>
<use xlink:href="#font_2_2" transform="matrix(9.9626,0,0,-9.9626,191.50386,21.354649)"/>
<use xlink:href="#font_5_3" transform="matrix(9.9626,0,0,-9.9626,142.79189,25.538998)"/>
<path transform="matrix(1,0,0,-1,147.515,25.539)" d="M 0 0 L 16.923 0 L 16.923 1.195 L 0 1.195 Z "/>
<use xlink:href="#font_5_2" transform="matrix(9.9626,0,0,-9.9626,164.33838,27.670996)"/>
<use xlink:href="#font_5_1" transform="matrix(9.9626,0,0,-9.9626,168.68207,27.670996)"/>
<path transform="matrix(1,0,0,-1,173.404,25.539)" d="M 0 0 L 16.923 0 L 16.923 1.195 L 0 1.195 Z "/>
<use xlink:href="#font_5_4" transform="matrix(9.9626,0,0,-9.9626,190.22838,25.539)"/>
<symbol id="font_6_1">
<path d="M .326 .59900006 L .57100006 .59900006 L .50200006 .32200004 C .497 .30200003 .497 .29500003 .497 .28800003 C .497 .22200002 .55200007 .194 .5960001 .194 C .62700006 .194 .65300008 .209 .6750001 .245 C .69900009 .284 .71300008 .344 .71300008 .347 C .71300008 .36 .70000007 .36 .69200006 .36 C .674 .36 .67300006 .35800005 .66700008 .333 C .65300008 .28100003 .63600006 .22200002 .59900006 .22200002 C .57100006 .22200002 .56700006 .252 .56700006 .26900003 C .56700006 .286 .572 .307 .5730001 .31 L .64800009 .61 C .65000006 .61600008 .65000006 .62 .65000006 .623 C .65000006 .63500007 .63900008 .63500007 .6240001 .63500007 L .333 .63500007 C .36900003 .836 .377 .88000008 .526 .88000008 C .554 .88000008 .62000009 .88000008 .64900007 .85700008 C .63100007 .85 .61500009 .83000007 .61500009 .81 C .61500009 .79 .62900009 .776 .651 .776 C .67800006 .776 .7020001 .8 .7020001 .83400008 C .7020001 .907 .59300008 .90800008 .52500006 .90800008 C .47500003 .90800008 .393 .90800008 .344 .861 C .291 .809 .284 .77000007 .26000003 .63500007 L .18300002 .63500007 C .165 .63500007 .15300001 .63500007 .15300001 .61300006 C .15300001 .59900006 .165 .59900006 .18100001 .59900006 L .25300003 .59900006 L .18600002 .23600002 C .14800002 .027999998 .117 .027999998 .097 .027999998 C .09200001 .027999998 .07000001 .027999998 .054 .042999999 C .08600001 .05600001 .08600001 .08400001 .08600001 .08800001 C .08600001 .117000009 .062000004 .12200001 .051000004 .12200001 C .022000002 .12200001 0 .098000008 0 .067 C 0 .020999998 .051000004 0 .095 0 C .19600001 0 .23500002 .142 .24500002 .18 C .26000003 .23500002 .26000003 .23700002 .269 .286 L .326 .59900006 Z "/>
</symbol>
<symbol id="font_6_5">
<path d="M .49200005 .675 C .49300004 .679 .495 .68600007 .495 .69 C .495 .70500007 .47900004 .704 .468 .703 L .36 .694 C .347 .693 .33400003 .69200006 .33400003 .671 C .33400003 .657 .347 .657 .36 .657 C .408 .657 .408 .65000006 .408 .64100006 C .408 .638 .408 .63600006 .40400005 .62200006 L .34800003 .395 C .32500003 .43 .291 .451 .24900002 .451 C .127 .451 0 .31 0 .16400002 C 0 .057000005 .068 0 .14200002 0 C .206 0 .259 .047000003 .279 .068 C .29200004 .020000002 .33900003 0 .375 0 C .40600003 0 .43200005 .015000001 .454 .051000004 C .47800005 .09 .49200005 .15 .49200005 .15300001 C .49200005 .16600001 .47900004 .16600001 .47100003 .16600001 C .453 .16600001 .45200003 .16400002 .44600005 .13900002 C .43200005 .087000008 .41500003 .028 .37800003 .028 C .35000003 .028 .34600003 .058000003 .34600003 .075 C .34600003 .092 .351 .113000009 .35200004 .116000007 L .49200005 .675 M .28500004 .14600002 C .277 .115 .255 .091 .23200003 .069000009 C .19100002 .033000005 .16 .028 .14500001 .028 C .09900001 .028 .076000008 .071 .076000008 .123 C .076000008 .165 .100999999 .275 .12900001 .329 C .16100002 .388 .20900002 .423 .24900002 .423 C .317 .423 .33 .336 .33 .326 C .33 .323 .32900004 .319 .32700003 .312 L .28500004 .14600002 Z "/>
</symbol>
<use xlink:href="#font_6_10" transform="matrix(6.9738,0,0,-6.9738,148.1827,35.100736)"/>
<use xlink:href="#font_6_6" transform="matrix(6.9738,0,0,-6.9738,152.31119,35.100736)"/>
<use xlink:href="#font_6_4" transform="matrix(6.9738,0,0,-6.9738,155.66559,35.100736)"/>
<use xlink:href="#font_6_e" transform="matrix(6.9738,0,0,-6.9738,159.22919,35.100736)"/>
<use xlink:href="#font_6_b" transform="matrix(6.9738,0,0,-6.9738,162.24188,35.100736)"/>
<use xlink:href="#font_6_c" transform="matrix(6.9738,0,0,-6.9738,166.15418,35.100736)"/>
<use xlink:href="#font_6_1" transform="matrix(6.9738,0,0,-6.9738,171.88663,36.453657)"/>
<use xlink:href="#font_6_6" transform="matrix(6.9738,0,0,-6.9738,177.6749,35.100736)"/>
<use xlink:href="#font_6_9" transform="matrix(6.9738,0,0,-6.9738,181.32219,35.100736)"/>
<use xlink:href="#font_6_5" transform="matrix(6.9738,0,0,-6.9738,183.59566,35.100736)"/>
<use xlink:href="#font_6_d" transform="matrix(6.9738,0,0,-6.9738,187.52887,35.100736)"/>
</svg>
