<?xml version="1.0" encoding="UTF-8" standalone="no"?>
<!DOCTYPE svg PUBLIC "-//W3C//DTD SVG 1.1//EN" "http://www.w3.org/Graphics/SVG/1.1/DTD/svg11.dtd">
<svg xmlns="http://www.w3.org/2000/svg" xmlns:xlink="http://www.w3.org/1999/xlink" version="1.1" width="192.932pt" height="58.287pt" viewBox="0 0 192.932 58.287">
<path transform="matrix(1,0,0,-1,.797,57.489999)" stroke-width="1" stroke-linecap="butt" stroke-miterlimit="10" stroke-linejoin="miter" fill="none" stroke="#000000" d="M 0 0 L 21.2601 0 M 0 14.17339 L 21.2601 14.17339 M 0 28.34679 L 21.2601 28.34679 M 0 42.52019 L 21.2601 42.52019 M 0 56.68362 L 21.2601 56.68362 M 0 0 L 0 56.69359 M 21.25014 0 L 21.25014 56.69359 "/>
<path transform="matrix(1,0,0,-1,.797,57.489999)" stroke-width="1" stroke-linecap="butt" stroke-miterlimit="10" stroke-linejoin="miter" fill="none" stroke="#000000" d="M 63.7803 56.69359 L 63.7803 0 "/>
<path transform="matrix(1,0,0,-1,.797,57.489999)" stroke-width="1" stroke-linecap="butt" stroke-miterlimit="10" stroke-linejoin="miter" fill="none" stroke="#000000" d="M 106.3005 56.69359 L 106.3005 0 "/>
<path transform="matrix(1,0,0,-1,.797,57.489999)" stroke-width="1" stroke-linecap="butt" stroke-miterlimit="10" stroke-linejoin="miter" fill="none" stroke="#000000" d="M 148.82073 56.69359 L 148.82073 0 "/>
<path transform="matrix(1,0,0,-1,.797,57.489999)" stroke-width="1" stroke-linecap="butt" stroke-miterlimit="10" stroke-linejoin="miter" fill="none" stroke="#000000" d="M 191.34093 56.69359 L 191.34093 0 "/>
<path transform="matrix(1,0,0,-1,.797,57.489999)" stroke-width="1" stroke-linecap="butt" stroke-miterlimit="10" stroke-linejoin="miter" fill="none" stroke="#000000" d="M 0 0 L 191.34093 0 "/>
<path transform="matrix(1,0,0,-1,.797,57.489999)" stroke-width="1" stroke-linecap="butt" stroke-miterlimit="10" stroke-linejoin="miter" fill="none" stroke="#000000" d="M 0 14.17339 L 191.34093 14.17339 "/>
<path transform="matrix(1,0,0,-1,.797,57.489999)" stroke-width="1" stroke-linecap="butt" stroke-miterlimit="10" stroke-linejoin="miter" fill="none" stroke="#000000" d="M 0 28.34679 L 191.34093 28.34679 "/>
<path transform="matrix(1,0,0,-1,.797,57.489999)" stroke-width="1" stroke-linecap="butt" stroke-miterlimit="10" stroke-linejoin="miter" fill="none" stroke="#000000" d="M 0 42.52019 L 191.34093 42.52019 "/>
<path transform="matrix(1,0,0,-1,.797,57.489999)" stroke-width="1" stroke-linecap="butt" stroke-miterlimit="10" stroke-linejoin="miter" fill="none" stroke="#000000" d="M 0 56.69359 L 191.34093 56.69359 "/>
<path transform="matrix(1,0,0,-1,.797,57.489999)" stroke-width="1.59404" stroke-linecap="butt" stroke-miterlimit="10" stroke-linejoin="miter" fill="none" stroke="#000000" d="M 0 14.17339 L 191.34093 14.17339 "/>
<path transform="matrix(1,0,0,-1,.797,57.489999)" stroke-width="1.59404" stroke-linecap="butt" stroke-miterlimit="10" stroke-linejoin="miter" fill="none" stroke="#000000" d="M 21.2601 56.69359 L 21.2601 0 "/>
<path transform="matrix(1,0,0,-1,.797,57.489999)" stroke-width="1" stroke-linecap="butt" stroke-miterlimit="10" stroke-linejoin="miter" fill="none" stroke="#000000" d="M 0 0 L 21.2601 14.17339 "/>
<symbol id="font_0_2">
<path d="M .47300003 .59000006 C .474 .595 .47599999 .6010001 .47599999 .607 C .47599999 .62 .467 .63600006 .44500003 .63600006 C .432 .63600006 .414 .628 .40600003 .609 C .405 .605 .395 .564 .389 .54200008 L .33900003 .342 C .331 .31300003 .331 .31100003 .329 .30200003 C .328 .298 .286 .21900001 .21400002 .21900001 C .15200001 .21900001 .15200001 .282 .15200001 .301 C .15200001 .34600003 .165 .39500005 .20800002 .507 C .216 .53000006 .22200002 .544 .22200002 .563 C .22200002 .612 .18500002 .6470001 .136 .6470001 C .040000008 .6470001 0 .505 0 .49300004 C 0 .48400004 .007000001 .48100005 .014 .48100005 C .025 .48100005 .026000003 .48700003 .030000003 .5 C .051000008 .574 .091000009 .62200006 .133 .62200006 C .157 .62200006 .157 .60300007 .157 .589 C .157 .572 .15300001 .554 .14400001 .53000006 C .097 .40600003 .08400001 .36400003 .08400001 .316 C .08400001 .20500002 .17400001 .194 .21100001 .194 C .26 .194 .295 .22000002 .313 .238 C .3 .187 .289 .14200002 .25 .09200001 C .22000002 .052 .18 .025000006 .136 .025000006 C .10800001 .025000006 .075 .03500001 .061000006 .06300001 C .11400001 .06300001 .12100001 .10700001 .12100001 .117000009 C .12100001 .13900002 .105000007 .15300001 .083000008 .15300001 C .059000009 .15300001 .027 .134 .027 .08800001 C .027 .036 .07300001 0 .136 0 C .23800002 0 .347 .087000008 .37600003 .20400001 L .47300003 .59000006 Z "/>
</symbol>
<use xlink:href="#font_0_2" transform="matrix(8.9664,0,0,-8.9664,4.3790256,51.628107)"/>
<symbol id="font_0_1">
<path d="M .462 .41500003 C .425 .40800003 .41400004 .37600003 .41400004 .36100004 C .41400004 .34200005 .42800004 .32500003 .453 .32500003 C .48100005 .32500003 .508 .34900005 .508 .38400004 C .508 .43000005 .45800004 .45300005 .411 .45300005 C .351 .45300005 .316 .40000005 .30400003 .37900005 C .28500004 .42800004 .24100003 .45300005 .193 .45300005 C .086 .45300005 .028 .32500003 .028 .29900003 C .028 .29000003 .035000005 .28700004 .042000005 .28700004 C .051 .28700004 .054000006 .29200004 .056 .298 C .087000008 .397 .15300001 .42800004 .19100002 .42800004 C .22 .42800004 .24600002 .40900005 .24600002 .36200003 C .24600002 .32600004 .20300001 .16600001 .19000001 .11800001 C .18200001 .087000008 .15200001 .025000003 .097 .025000003 C .07700001 .025000003 .056 .032 .046000005 .038000004 C .07300001 .043 .093 .06600001 .093 .092 C .093 .117000009 .074 .128 .055 .128 C .026 .128 0 .10300001 0 .069000009 C 0 .020000002 .054000006 0 .096 0 C .15400002 0 .18800001 .048 .20300001 .075 C .22800002 .009000001 .287 0 .314 0 C .42200003 0 .479 .13000001 .479 .15400002 C .479 .15900001 .47600005 .16600001 .46600003 .16600001 C .455 .16600001 .45400004 .16200002 .44900004 .14700002 C .42700003 .075 .36900003 .025000003 .317 .025000003 C .28800003 .025000003 .261 .043 .261 .091000009 C .261 .113000009 .275 .16800002 .284 .20600002 C .28800003 .22400002 .31500004 .33200003 .317 .33900003 C .32900004 .37500004 .35900004 .42800004 .41000004 .42800004 C .42800004 .42800004 .44700004 .42500005 .462 .41500003 Z "/>
</symbol>
<use xlink:href="#font_0_1" transform="matrix(8.9664,0,0,-8.9664,13.7809929,54.975629)"/>
<symbol id="font_1_2">
<path d="M .205 .64000007 C .205 .66400006 .205 .666 .18200003 .666 C .120000008 .60200008 .032000007 .60200008 0 .60200008 L 0 .57100006 C .020000004 .57100006 .07900001 .57100006 .13100001 .597 L .13100001 .079 C .13100001 .043 .128 .031000002 .038000004 .031000002 L .0060000049 .031000002 L .0060000049 0 C .04100001 .003 .128 .003 .168 .003 C .20800002 .003 .29500003 .003 .33000005 0 L .33000005 .031000002 L .29800005 .031000002 C .20800002 .031000002 .205 .042000005 .205 .079 L .205 .64000007 Z "/>
</symbol>
<use xlink:href="#font_1_2" transform="matrix(9.9626,0,0,-9.9626,41.712675,53.614)"/>
<symbol id="font_1_3">
<path d="M .07700001 .07700001 L .18300002 .18 C .33900003 .31800003 .39900003 .372 .39900003 .47200004 C .39900003 .586 .30900003 .666 .18700002 .666 C .074 .666 0 .574 0 .485 C 0 .42900003 .05 .42900003 .053000008 .42900003 C .07000001 .42900003 .105000007 .441 .105000007 .48200003 C .105000007 .508 .08700001 .53400006 .052000006 .53400006 C .044000005 .53400006 .042000008 .53400006 .039 .53300008 C .062000004 .59800007 .11600001 .63500007 .17400001 .63500007 C .26500003 .63500007 .308 .554 .308 .47200004 C .308 .39200003 .25800003 .31300003 .20300003 .25100003 L .011000004 .037 C 0 .026 0 .024 0 0 L .37100003 0 L .39900003 .17400001 L .374 .17400001 C .36900003 .14400001 .36200003 .1 .352 .085 C .345 .07700001 .279 .07700001 .257 .07700001 L .07700001 .07700001 Z "/>
</symbol>
<use xlink:href="#font_1_3" transform="matrix(9.9626,0,0,-9.9626,83.84413,53.614)"/>
<symbol id="font_1_4">
<path d="M .24800003 .37400005 C .33 .40100003 .388 .47100006 .388 .55 C .388 .632 .3 .688 .204 .688 C .10300001 .688 .027000003 .628 .027000003 .55200007 C .027000003 .519 .049000004 .5 .078 .5 C .109000008 .5 .12900001 .522 .12900001 .55100008 C .12900001 .6010001 .082 .6010001 .067 .6010001 C .098 .65000006 .164 .66300007 .20000002 .66300007 C .24100003 .66300007 .29600004 .64100006 .29600004 .55100008 C .29600004 .53900006 .29400004 .48100005 .268 .43700005 C .238 .38900004 .204 .38600005 .17900002 .38500003 C .171 .38400004 .14700002 .38200004 .14000002 .38200004 C .132 .38100005 .125 .38000003 .125 .37000004 C .125 .35900004 .132 .35900004 .14900002 .35900004 L .19300002 .35900004 C .275 .35900004 .312 .29100005 .312 .193 C .312 .057000005 .24300003 .028 .199 .028 C .15600002 .028 .081 .045 .046000005 .104 C .081 .09900001 .11200001 .12100001 .11200001 .15900001 C .11200001 .19500001 .085 .215 .056 .215 C .031999999 .215 0 .201 0 .157 C 0 .06600001 .093 0 .20200002 0 C .32400004 0 .41500003 .091000009 .41500003 .193 C .41500003 .27500005 .35200004 .35300005 .24800003 .37400005 Z "/>
</symbol>
<use xlink:href="#font_1_4" transform="matrix(9.9626,0,0,-9.9626,126.283428,53.833177)"/>
<symbol id="font_1_5">
<path d="M .266 .165 L .266 .078 C .266 .042000005 .26400004 .031000002 .19000001 .031000002 L .16900002 .031000002 L .16900002 0 C .21000001 .003 .26200003 .003 .30400003 .003 C .34600003 .003 .39900003 .003 .44000004 0 L .44000004 .031000002 L .41900004 .031000002 C .34500004 .031000002 .34300003 .042000005 .34300003 .078 L .34300003 .165 L .44300003 .165 L .44300003 .19600001 L .34300003 .19600001 L .34300003 .651 C .34300003 .671 .34300003 .67700007 .32700003 .67700007 C .31800003 .67700007 .31500004 .67700007 .307 .665 L 0 .19600001 L 0 .165 L .266 .165 M .272 .19600001 L .028 .19600001 L .272 .569 L .272 .19600001 Z "/>
</symbol>
<use xlink:href="#font_1_5" transform="matrix(9.9626,0,0,-9.9626,168.66394,53.614)"/>
<symbol id="font_1_6">
<path d="M .39900003 .223 C .39900003 .34200005 .317 .44200004 .209 .44200004 C .16100002 .44200004 .118000019 .42600004 .082 .39100004 L .082 .586 C .10200001 .58000007 .135 .573 .16700001 .573 C .29 .573 .36 .66400006 .36 .67700007 C .36 .683 .357 .688 .35 .688 C .349 .688 .347 .688 .342 .68500009 C .322 .67600008 .273 .656 .20600002 .656 C .16600001 .656 .120000008 .66300007 .073 .6840001 C .065 .68700006 .06300001 .68700006 .061000009 .68700006 C .051000004 .68700006 .051000004 .679 .051000004 .66300007 L .051000004 .36700005 C .051000004 .34900005 .051000004 .34100003 .065 .34100003 C .07200001 .34100003 .074 .34400005 .07800001 .35000003 C .08900002 .36600004 .12600002 .42000006 .207 .42000006 C .259 .42000006 .284 .37400005 .292 .35600005 C .308 .31900005 .31 .28000004 .31 .23 C .31 .19500001 .31 .135 .286 .093 C .262 .054000006 .22500001 .028 .17900002 .028 C .106000009 .028 .049000008 .08100001 .032 .14000002 C .035 .13900002 .038000008 .13800001 .049000008 .13800001 C .082 .13800001 .09900001 .163 .09900001 .187 C .09900001 .21100001 .082 .23600002 .049000008 .23600002 C .035 .23600002 0 .22900002 0 .18300002 C 0 .097 .069000009 0 .18100001 0 C .297 0 .39900003 .096 .39900003 .223 Z "/>
</symbol>
<use xlink:href="#font_1_6" transform="matrix(9.9626,0,0,-9.9626,9.43413,39.659177)"/>
<symbol id="font_1_7">
<path d="M .089999999 .35000003 L .089999999 .37400005 C .089999999 .62700006 .21400002 .66300007 .26500003 .66300007 C .28900004 .66300007 .33100004 .65700009 .35300002 .623 C .33800004 .623 .298 .623 .298 .57800009 C .298 .54700008 .32200004 .53200009 .344 .53200009 C .36 .53200009 .39000003 .54100009 .39000003 .58000007 C .39000003 .64000007 .34600003 .688 .263 .688 C .13499999 .688 0 .559 0 .33800004 C 0 .071 .116000007 0 .20900002 0 C .32000003 0 .41500003 .094000007 .41500003 .22600001 C .41500003 .35300005 .32600004 .44900004 .215 .44900004 C .14700002 .44900004 .11000001 .39800004 .089999999 .35000003 M .20900002 .028 C .146 .028 .116000007 .088 .11000001 .103 C .092 .15 .092 .23 .092 .24800001 C .092 .32600004 .124000009 .42600004 .21400002 .42600004 C .23000002 .42600004 .27600003 .42600004 .307 .36400003 C .32500003 .32700003 .32500003 .27600003 .32500003 .22700002 C .32500003 .179 .32500003 .12900001 .30800004 .093 C .27800004 .033000005 .23200003 .028 .20900002 .028 Z "/>
</symbol>
<use xlink:href="#font_1_7" transform="matrix(9.9626,0,0,-9.9626,9.354429,25.486176)"/>
<symbol id="font_1_8">
<path d="M .42000003 .63100007 C .42900003 .64300009 .42900003 .64500007 .42900003 .66600009 L .18600002 .66600009 C .064 .66600009 .062000008 .679 .058000007 .6980001 L .033 .6980001 L 0 .49200005 L .024999999 .49200005 C .028000005 .508 .037 .57100006 .050000006 .58300009 C .057000005 .58900007 .13500002 .58900007 .148 .58900007 L .35500003 .58900007 C .344 .573 .26500003 .46400006 .24300003 .43100003 C .153 .29600004 .12000001 .157 .12000001 .055 C .12000001 .045 .12000001 0 .16600001 0 C .21200001 0 .21200001 .045 .21200001 .055 L .21200001 .106000009 C .21200001 .16100002 .21500004 .216 .22300002 .27 C .22700003 .29300005 .24100003 .37900005 .28500004 .44100005 L .42000003 .63100007 Z "/>
</symbol>
<use xlink:href="#font_1_8" transform="matrix(9.9626,0,0,-9.9626,9.493905,11.313175)"/>
<symbol id="font_2_2">
<path d="M .15699999 .16499996 L 0 .038999976 L .027999998 0 L .15699999 .083000008 L .286 .0009999871 L .314 .037999989 L .15699999 .16499996 Z "/>
</symbol>
<use xlink:href="#font_2_2" transform="matrix(9.9626,0,0,-9.9626,31.30114,33.450788)"/>
<symbol id="font_3_1">
<path d="M .32700003 .156 C .32700003 .17 .312 .17 .303 .17 C .291 .17 .284 .17 .28 .157 C .24900002 .052000006 .198 .036000004 .177 .036000004 C .16700001 .036000004 .161 .039 .161 .058000003 C .161 .08100001 .17 .10300001 .194 .163 L .261 .336 C .266 .349 .26900003 .361 .26900003 .37 C .26900003 .423 .21700001 .46 .155 .46 C .051000004 .46 0 .326 0 .304 C 0 .29 .015000001 .29 .024 .29 C .036000004 .29 .043 .29 .047000003 .303 C .07800001 .408 .12900001 .424 .15 .424 C .16 .424 .16600001 .421 .16600001 .402 C .16600001 .379 .157 .357 .133 .297 L .066 .124000009 C .061 .11100001 .058000003 .09900001 .058000003 .09 C .058000003 .037 .11 0 .172 0 C .27600003 0 .32700003 .134 .32700003 .156 Z "/>
</symbol>
<use xlink:href="#font_3_1" transform="matrix(9.9626,0,0,-9.9626,30.909806,38.8007)"/>
<symbol id="font_1_1">
<path d="M .35300002 .31300003 L .632 .31300003 C .646 .31300003 .665 .31300003 .665 .333 C .665 .35300002 .646 .35300002 .632 .35300002 L .35300002 .35300002 L .35300002 .633 C .35300002 .647 .35300002 .666 .33300004 .666 C .31300003 .666 .31300003 .647 .31300003 .633 L .31300003 .35300002 L .033 .35300002 C .019000002 .35300002 0 .35300002 0 .333 C 0 .31300003 .019000002 .31300003 .033 .31300003 L .31300003 .31300003 L .31300003 .033000005 C .31300003 .019000002 .31300003 0 .33300004 0 C .35300002 0 .35300002 .019000002 .35300002 .033000005 L .35300002 .31300003 Z "/>
</symbol>
<use xlink:href="#font_1_1" transform="matrix(9.9626,0,0,-9.9626,37.283906,39.547899)"/>
<use xlink:href="#font_1_3" transform="matrix(9.9626,0,0,-9.9626,47.18673,38.721)"/>
<use xlink:href="#font_2_2" transform="matrix(9.9626,0,0,-9.9626,53.24114,33.450788)"/>
<symbol id="font_3_2">
<path d="M .42200003 .522 C .425 .53300008 .42700003 .542 .42700003 .556 C .42700003 .62100008 .363 .65400007 .301 .65400007 C .18200001 .65400007 .114 .51500007 .114 .49800004 C .114 .48400004 .12900001 .48400004 .13800001 .48400004 C .155 .48400004 .156 .485 .163 .5 C .201 .586 .25700004 .61800006 .296 .61800006 C .305 .61800006 .32000003 .61800006 .32000003 .58100005 C .32000003 .56200006 .317 .551 .314 .53800007 L .21800001 .157 C .201 .089 .162 .036 .111 .036 C .102000009 .036 .1 .036 .087000008 .038000004 C .119 .060000004 .12100001 .093 .12100001 .098000008 C .12100001 .120000008 .104 .14400001 .071 .14400001 C .034 .14400001 0 .111 0 .072 C 0 .025000006 .048 0 .112 0 C .176 0 .3 .034999998 .33 .156 L .42200003 .522 Z "/>
</symbol>
<use xlink:href="#font_3_2" transform="matrix(9.9626,0,0,-9.9626,51.53052,40.733446)"/>
<symbol id="font_4_1">
<path d="M .57600006 0 C .59300008 0 .611 0 .611 .019999996 C .611 .040000008 .59300008 .040000008 .57600006 .040000008 L .035000005 .040000008 C .018 .040000008 0 .040000008 0 .019999996 C 0 0 .018 0 .035000005 0 L .57600006 0 Z "/>
</symbol>
<use xlink:href="#font_4_1" transform="matrix(9.9626,0,0,-9.9626,78.11189,36.429605)"/>
<use xlink:href="#font_1_4" transform="matrix(9.9626,0,0,-9.9626,85.45242,38.940179)"/>
<use xlink:href="#font_2_2" transform="matrix(9.9626,0,0,-9.9626,91.587139,33.450788)"/>
<use xlink:href="#font_3_2" transform="matrix(9.9626,0,0,-9.9626,89.87553,40.733446)"/>
<use xlink:href="#font_1_3" transform="matrix(9.9626,0,0,-9.9626,124.17713,38.721)"/>
<use xlink:href="#font_2_2" transform="matrix(9.9626,0,0,-9.9626,130.23213,33.450788)"/>
<use xlink:href="#font_3_2" transform="matrix(9.9626,0,0,-9.9626,128.52053,40.733446)"/>
<use xlink:href="#font_1_3" transform="matrix(9.9626,0,0,-9.9626,156.15813,38.721)"/>
<use xlink:href="#font_2_2" transform="matrix(9.9626,0,0,-9.9626,161.35015,33.450788)"/>
<use xlink:href="#font_3_1" transform="matrix(9.9626,0,0,-9.9626,160.95981,38.8007)"/>
<use xlink:href="#font_1_1" transform="matrix(9.9626,0,0,-9.9626,167.33292,39.547899)"/>
<use xlink:href="#font_1_5" transform="matrix(9.9626,0,0,-9.9626,177.01656,38.721)"/>
<use xlink:href="#font_2_2" transform="matrix(9.9626,0,0,-9.9626,183.29114,33.450788)"/>
<use xlink:href="#font_3_2" transform="matrix(9.9626,0,0,-9.9626,181.57953,40.733446)"/>
<use xlink:href="#font_1_4" transform="matrix(9.9626,0,0,-9.9626,39.05843,24.767174)"/>
<use xlink:href="#font_2_2" transform="matrix(9.9626,0,0,-9.9626,45.19314,19.27778)"/>
<use xlink:href="#font_3_2" transform="matrix(9.9626,0,0,-9.9626,43.48152,26.560442)"/>
<symbol id="font_5_1">
<path d="M 1.098 0 C 1.12 0 1.1350001 0 1.1350001 .029 C 1.1350001 .039000006 1.1350001 .049999983 1.1220001 .05700001 C 1.067 .083000008 .95300009 .137 .86800006 .28800003 C .85600009 .307 .855 .308 .82900008 .308 C .81200006 .308 .79300007 .308 .79300007 .28599999 C .79300007 .272 .8510001 .15599999 .9560001 .072999987 L .051000008 .072999987 C .036 .072999987 0 .072999987 0 .037 C 0 0 .035000005 0 .051000008 0 L 1.098 0 Z "/>
</symbol>
<use xlink:href="#font_5_1" transform="matrix(6.9738,0,0,-6.9738,81.87393,18.288605)"/>
<symbol id="font_2_1">
<path d="M .48400004 .33 C .48400004 .42700003 .48299999 .666 .242 .666 C .001000002 .666 0 .42800004 0 .33 C 0 .23100002 .001000002 0 .242 0 C .482 0 .48400004 .23000002 .48400004 .33 M .242 .036000004 C .20600002 .036000004 .15 .058000003 .13700001 .13100001 C .128 .18300002 .128 .28700004 .128 .34200005 C .128 .41400004 .128 .47900004 .136 .531 C .148 .62 .21800001 .63 .242 .63 C .27899999 .63 .32 .611 .339 .56700006 C .356 .53000006 .356 .42400003 .356 .34200005 C .356 .286 .356 .19500003 .34900005 .143 C .33500005 .05 .272 .036000004 .242 .036000004 Z "/>
</symbol>
<use xlink:href="#font_2_1" transform="matrix(9.9626,0,0,-9.9626,83.42032,28.303587)"/>
<use xlink:href="#font_1_3" transform="matrix(9.9626,0,0,-9.9626,113.63813,24.547997)"/>
<use xlink:href="#font_2_2" transform="matrix(9.9626,0,0,-9.9626,118.83113,19.27778)"/>
<use xlink:href="#font_3_1" transform="matrix(9.9626,0,0,-9.9626,118.4398,24.627697)"/>
<use xlink:href="#font_4_1" transform="matrix(9.9626,0,0,-9.9626,125.08289,22.2566)"/>
<use xlink:href="#font_1_4" transform="matrix(9.9626,0,0,-9.9626,134.63643,24.767174)"/>
<use xlink:href="#font_2_2" transform="matrix(9.9626,0,0,-9.9626,140.77114,19.27778)"/>
<use xlink:href="#font_3_2" transform="matrix(9.9626,0,0,-9.9626,139.06052,26.560442)"/>
<use xlink:href="#font_2_2" transform="matrix(9.9626,0,0,-9.9626,158.86014,19.27778)"/>
<use xlink:href="#font_3_1" transform="matrix(9.9626,0,0,-9.9626,158.46881,24.627697)"/>
<use xlink:href="#font_4_1" transform="matrix(9.9626,0,0,-9.9626,165.1119,22.2566)"/>
<use xlink:href="#font_1_3" transform="matrix(9.9626,0,0,-9.9626,174.74514,24.547997)"/>
<use xlink:href="#font_2_2" transform="matrix(9.9626,0,0,-9.9626,180.80014,19.27778)"/>
<use xlink:href="#font_3_2" transform="matrix(9.9626,0,0,-9.9626,179.08953,26.560442)"/>
<use xlink:href="#font_2_2" transform="matrix(9.9626,0,0,-9.9626,33.791139,5.103781)"/>
<use xlink:href="#font_3_1" transform="matrix(9.9626,0,0,-9.9626,33.4008,10.453697)"/>
<use xlink:href="#font_4_1" transform="matrix(9.9626,0,0,-9.9626,40.042894,8.082599)"/>
<use xlink:href="#font_2_2" transform="matrix(9.9626,0,0,-9.9626,50.751134,5.103781)"/>
<use xlink:href="#font_3_2" transform="matrix(9.9626,0,0,-9.9626,49.039518,12.386442)"/>
<use xlink:href="#font_4_1" transform="matrix(9.9626,0,0,-9.9626,78.11189,8.082599)"/>
<use xlink:href="#font_1_3" transform="matrix(9.9626,0,0,-9.9626,85.53213,10.373997)"/>
<use xlink:href="#font_2_2" transform="matrix(9.9626,0,0,-9.9626,91.587139,5.103781)"/>
<use xlink:href="#font_3_2" transform="matrix(9.9626,0,0,-9.9626,89.87553,12.386442)"/>
<use xlink:href="#font_4_1" transform="matrix(9.9626,0,0,-9.9626,110.092899,8.082599)"/>
<use xlink:href="#font_1_3" transform="matrix(9.9626,0,0,-9.9626,117.51213,10.373997)"/>
<use xlink:href="#font_2_2" transform="matrix(9.9626,0,0,-9.9626,122.70514,5.103781)"/>
<use xlink:href="#font_3_1" transform="matrix(9.9626,0,0,-9.9626,122.314807,10.453697)"/>
<use xlink:href="#font_4_1" transform="matrix(9.9626,0,0,-9.9626,128.9569,8.082599)"/>
<use xlink:href="#font_1_3" transform="matrix(9.9626,0,0,-9.9626,138.59113,10.373997)"/>
<use xlink:href="#font_2_2" transform="matrix(9.9626,0,0,-9.9626,144.64614,5.103781)"/>
<use xlink:href="#font_3_2" transform="matrix(9.9626,0,0,-9.9626,142.93453,12.386442)"/>
<use xlink:href="#font_2_2" transform="matrix(9.9626,0,0,-9.9626,169.62514,6.072783)"/>
<use xlink:href="#font_3_1" transform="matrix(9.9626,0,0,-9.9626,169.23381,11.422699)"/>
</svg>
